{"glyphs":{"0":{"ha":1080,"x_min":0,"x_max":475,"o":"m 1080 0 l 1080 1472 l 0 1472 l 0 0 l 1080 0 m 12 83 q 69 140 29 128 l 79 131 q 20 76 39 119 l 12 83 m 167 83 q 224 140 184 128 l 233 131 q 174 76 193 119 l 167 83 m 309 77 q 333 132 309 108 q 387 156 358 156 q 441 134 420 156 q 463 77 463 111 q 441 22 463 45 q 386 -1 418 -1 q 331 22 353 -1 q 309 77 309 45 m 321 83 q 378 140 338 128 l 387 131 q 329 76 347 119 l 321 83 m 463 77 q 488 132 463 108 q 542 156 512 156 q 596 134 574 156 q 617 77 617 111 q 595 22 617 45 q 540 -1 572 -1 q 486 22 508 -1 q 463 77 463 45 m 475 83 q 532 140 492 128 l 542 131 q 483 76 502 119 l 475 83 m 617 77 q 642 132 617 108 q 696 156 667 156 q 750 134 728 156 q 772 77 772 111 q 749 22 772 45 q 694 -1 727 -1 q 640 22 662 -1 q 617 77 617 45 m 629 83 q 687 140 646 128 l 696 131 q 637 76 656 119 l 629 83 m 772 77 q 797 132 772 108 q 850 156 821 156 q 904 134 883 156 q 926 77 926 111 q 903 22 926 45 q 849 -1 881 -1 q 794 22 817 -1 q 772 77 772 45 m 784 83 q 841 140 801 128 l 850 131 q 791 76 810 119 l 784 83 m 939 83 q 996 140 956 128 l 1004 131 q 946 76 964 119 l 939 83 m 12 237 q 69 295 29 282 l 79 286 q 20 230 39 273 l 12 237 m 155 231 q 179 286 155 262 q 233 310 203 310 q 287 288 265 310 q 309 231 309 265 q 286 176 309 199 q 231 153 264 153 q 177 176 199 153 q 155 231 155 199 m 167 237 q 224 295 184 282 l 233 286 q 174 230 193 273 l 167 237 m 309 231 q 333 286 309 262 q 387 310 358 310 q 441 288 420 310 q 463 231 463 265 q 441 176 463 199 q 386 153 418 153 q 331 176 353 153 q 309 231 309 199 m 321 237 q 378 295 338 282 l 387 286 q 329 230 347 273 l 321 237 m 475 237 q 532 295 492 282 l 542 286 q 483 230 502 273 l 475 237 m 629 237 q 687 295 646 282 l 696 286 q 637 230 656 273 l 629 237 m 784 237 q 841 295 801 282 l 850 286 q 791 230 810 273 l 784 237 m 926 231 q 950 286 926 262 q 1004 310 975 310 q 1059 288 1037 310 q 1080 231 1080 265 q 1058 176 1080 199 q 1003 153 1036 153 q 948 176 970 153 q 926 231 926 199 m 939 237 q 996 295 956 282 l 1004 286 q 946 230 964 273 l 939 237 m 12 393 q 69 450 29 438 l 79 441 q 20 386 39 429 l 12 393 m 155 387 q 179 442 155 418 q 233 466 203 466 q 287 444 265 466 q 309 387 309 421 q 286 332 309 355 q 231 309 264 309 q 177 332 199 309 q 155 387 155 355 m 167 393 q 224 450 184 438 l 233 441 q 174 386 193 429 l 167 393 m 309 387 q 333 442 309 418 q 387 466 358 466 q 441 444 420 466 q 463 387 463 421 q 441 332 463 355 q 386 309 418 309 q 331 332 353 309 q 309 387 309 355 m 321 393 q 378 450 338 438 l 387 441 q 329 386 347 429 l 321 393 m 475 393 q 532 450 492 438 l 542 441 q 483 386 502 429 l 475 393 m 629 393 q 687 450 646 438 l 696 441 q 637 386 656 429 l 629 393 m 784 393 q 841 450 801 438 l 850 441 q 791 386 810 429 l 784 393 m 926 387 q 950 442 926 418 q 1004 466 975 466 q 1059 444 1037 466 q 1080 387 1080 421 q 1058 332 1080 355 q 1003 309 1036 309 q 948 332 970 309 q 926 387 926 355 m 939 393 q 996 450 956 438 l 1004 441 q 946 386 964 429 l 939 393 m 12 548 q 69 605 29 593 l 79 595 q 20 540 39 583 l 12 548 m 155 542 q 179 596 155 572 q 233 621 203 621 q 287 598 265 621 q 309 542 309 576 q 286 486 309 509 q 231 463 264 463 q 177 486 199 463 q 155 542 155 509 m 167 548 q 224 605 184 593 l 233 595 q 174 540 193 583 l 167 548 m 321 548 q 378 605 338 593 l 387 595 q 329 540 347 583 l 321 548 m 463 542 q 488 596 463 572 q 542 621 512 621 q 596 598 574 621 q 617 542 617 576 q 595 486 617 509 q 540 463 572 463 q 486 486 508 463 q 463 542 463 509 m 475 548 q 532 605 492 593 l 542 595 q 483 540 502 583 l 475 548 m 629 548 q 687 605 646 593 l 696 595 q 637 540 656 583 l 629 548 m 784 548 q 841 605 801 593 l 850 595 q 791 540 810 583 l 784 548 m 926 542 q 950 596 926 572 q 1004 621 975 621 q 1059 598 1037 621 q 1080 542 1080 576 q 1058 486 1080 509 q 1003 463 1036 463 q 948 486 970 463 q 926 542 926 509 m 939 548 q 996 605 956 593 l 1004 595 q 946 540 964 583 l 939 548 m 12 702 q 69 760 29 747 l 79 750 q 20 694 39 738 l 12 702 m 155 696 q 179 751 155 727 q 233 774 203 774 q 287 752 265 774 q 309 696 309 730 q 286 640 309 663 q 231 617 264 617 q 177 640 199 617 q 155 696 155 663 m 167 702 q 224 760 184 747 l 233 750 q 174 694 193 738 l 167 702 m 321 702 q 378 760 338 747 l 387 750 q 329 694 347 738 l 321 702 m 463 696 q 488 751 463 727 q 542 774 512 774 q 596 752 574 774 q 617 696 617 730 q 595 640 617 663 q 540 617 572 617 q 486 640 508 617 q 463 696 463 663 m 475 702 q 532 760 492 747 l 542 750 q 483 694 502 738 l 475 702 m 617 696 q 642 751 617 727 q 696 774 667 774 q 750 752 728 774 q 772 696 772 730 q 749 640 772 663 q 694 617 727 617 q 640 640 662 617 q 617 696 617 663 m 629 702 q 687 760 646 747 l 696 750 q 637 694 656 738 l 629 702 m 784 702 q 841 760 801 747 l 850 750 q 791 694 810 738 l 784 702 m 926 696 q 950 751 926 727 q 1004 774 975 774 q 1059 752 1037 774 q 1080 696 1080 730 q 1058 640 1080 663 q 1003 617 1036 617 q 948 640 970 617 q 926 696 926 663 m 939 702 q 996 760 956 747 l 1004 750 q 946 694 964 738 l 939 702 m 12 857 q 69 913 29 901 l 79 904 q 20 849 39 892 l 12 857 m 155 850 q 179 905 155 881 q 233 929 203 929 q 287 907 265 929 q 309 850 309 884 q 286 795 309 818 q 231 772 264 772 q 177 795 199 772 q 155 850 155 818 m 167 857 q 224 913 184 901 l 233 904 q 174 849 193 892 l 167 857 m 321 857 q 378 913 338 901 l 387 904 q 329 849 347 892 l 321 857 m 475 857 q 532 913 492 901 l 542 904 q 483 849 502 892 l 475 857 m 617 850 q 642 905 617 881 q 696 929 667 929 q 750 907 728 929 q 772 850 772 884 q 749 795 772 818 q 694 772 727 772 q 640 795 662 772 q 617 850 617 818 m 629 857 q 687 913 646 901 l 696 904 q 637 849 656 892 l 629 857 m 784 857 q 841 913 801 901 l 850 904 q 791 849 810 892 l 784 857 m 926 850 q 950 905 926 881 q 1004 929 975 929 q 1059 907 1037 929 q 1080 850 1080 884 q 1058 795 1080 818 q 1003 772 1036 772 q 948 795 970 772 q 926 850 926 818 m 939 857 q 996 913 956 901 l 1004 904 q 946 849 964 892 l 939 857 m 12 1010 q 69 1068 29 1055 l 79 1059 q 20 1003 39 1046 l 12 1010 m 155 1004 q 179 1059 155 1036 q 233 1083 203 1083 q 287 1061 265 1083 q 309 1004 309 1038 q 286 949 309 972 q 231 926 264 926 q 177 949 199 926 q 155 1004 155 972 m 167 1010 q 224 1068 184 1055 l 233 1059 q 174 1003 193 1046 l 167 1010 m 321 1010 q 378 1068 338 1055 l 387 1059 q 329 1003 347 1046 l 321 1010 m 475 1010 q 532 1068 492 1055 l 542 1059 q 483 1003 502 1046 l 475 1010 m 629 1010 q 687 1068 646 1055 l 696 1059 q 637 1003 656 1046 l 629 1010 m 772 1004 q 797 1059 772 1036 q 850 1083 821 1083 q 904 1061 883 1083 q 926 1004 926 1038 q 903 949 926 972 q 849 926 881 926 q 794 949 817 926 q 772 1004 772 972 m 784 1010 q 841 1068 801 1055 l 850 1059 q 791 1003 810 1046 l 784 1010 m 926 1004 q 950 1059 926 1036 q 1004 1083 975 1083 q 1059 1061 1037 1083 q 1080 1004 1080 1038 q 1058 949 1080 972 q 1003 926 1036 926 q 948 949 970 926 q 926 1004 926 972 m 939 1010 q 996 1068 956 1055 l 1004 1059 q 946 1003 964 1046 l 939 1010 m 12 1165 q 69 1222 29 1210 l 79 1213 q 20 1158 39 1200 l 12 1165 m 155 1159 q 179 1214 155 1190 q 233 1238 203 1238 q 287 1215 265 1238 q 309 1159 309 1193 q 286 1103 309 1126 q 231 1080 264 1080 q 177 1103 199 1080 q 155 1159 155 1126 m 167 1165 q 224 1222 184 1210 l 233 1213 q 174 1158 193 1200 l 167 1165 m 321 1165 q 378 1222 338 1210 l 387 1213 q 329 1158 347 1200 l 321 1165 m 475 1165 q 532 1222 492 1210 l 542 1213 q 483 1158 502 1200 l 475 1165 m 629 1165 q 687 1222 646 1210 l 696 1213 q 637 1158 656 1200 l 629 1165 m 772 1159 q 797 1214 772 1190 q 850 1238 821 1238 q 904 1215 883 1238 q 926 1159 926 1193 q 903 1103 926 1126 q 849 1080 881 1080 q 794 1103 817 1080 q 772 1159 772 1126 m 784 1165 q 841 1222 801 1210 l 850 1213 q 791 1158 810 1200 l 784 1165 m 926 1159 q 950 1214 926 1190 q 1004 1238 975 1238 q 1059 1215 1037 1238 q 1080 1159 1080 1193 q 1058 1103 1080 1126 q 1003 1080 1036 1080 q 948 1103 970 1080 q 926 1159 926 1126 m 939 1165 q 996 1222 956 1210 l 1004 1213 q 946 1158 964 1200 l 939 1165 m 12 1320 q 69 1377 29 1364 l 79 1367 q 20 1312 39 1355 l 12 1320 m 167 1320 q 224 1377 184 1364 l 233 1367 q 174 1312 193 1355 l 167 1320 m 309 1313 q 333 1368 309 1344 q 387 1392 358 1392 q 441 1370 420 1392 q 463 1313 463 1348 q 441 1258 463 1281 q 386 1234 418 1234 q 331 1258 353 1234 q 309 1313 309 1281 m 321 1320 q 378 1377 338 1364 l 387 1367 q 329 1312 347 1355 l 321 1320 m 463 1313 q 488 1368 463 1344 q 542 1392 512 1392 q 596 1370 574 1392 q 617 1313 617 1348 q 595 1258 617 1281 q 540 1234 572 1234 q 486 1258 508 1234 q 463 1313 463 1281 m 475 1320 q 532 1377 492 1364 l 542 1367 q 483 1312 502 1355 l 475 1320 m 617 1313 q 642 1368 617 1344 q 696 1392 667 1392 q 750 1370 728 1392 q 772 1313 772 1348 q 749 1258 772 1281 q 694 1234 727 1234 q 640 1258 662 1234 q 617 1313 617 1281 m 629 1320 q 687 1377 646 1364 l 696 1367 q 637 1312 656 1355 l 629 1320 m 772 1313 q 797 1368 772 1344 q 850 1392 821 1392 q 904 1370 883 1392 q 926 1313 926 1348 q 903 1258 926 1281 q 849 1234 881 1234 q 794 1258 817 1234 q 772 1313 772 1281 m 784 1320 q 841 1377 801 1364 l 850 1367 q 791 1312 810 1355 l 784 1320 m 939 1320 q 996 1377 956 1364 l 1004 1367 q 946 1312 964 1355 l 939 1320 z "},"1":{"ha":1080,"x_min":0,"x_max":475,"o":"m 1080 0 l 1080 1472 l 0 1472 l 0 0 l 1080 0 m 12 83 q 69 140 29 128 l 79 131 q 20 76 39 119 l 12 83 m 155 77 q 179 132 155 108 q 233 156 203 156 q 287 134 265 156 q 309 77 309 111 q 286 22 309 45 q 231 -1 264 -1 q 177 22 199 -1 q 155 77 155 45 m 167 83 q 224 140 184 128 l 233 131 q 174 76 193 119 l 167 83 m 309 77 q 333 132 309 108 q 387 156 358 156 q 441 134 420 156 q 463 77 463 111 q 441 22 463 45 q 386 -1 418 -1 q 331 22 353 -1 q 309 77 309 45 m 321 83 q 378 140 338 128 l 387 131 q 329 76 347 119 l 321 83 m 463 77 q 488 132 463 108 q 542 156 512 156 q 596 134 574 156 q 617 77 617 111 q 595 22 617 45 q 540 -1 572 -1 q 486 22 508 -1 q 463 77 463 45 m 475 83 q 532 140 492 128 l 542 131 q 483 76 502 119 l 475 83 m 617 77 q 642 132 617 108 q 696 156 667 156 q 750 134 728 156 q 772 77 772 111 q 749 22 772 45 q 694 -1 727 -1 q 640 22 662 -1 q 617 77 617 45 m 629 83 q 687 140 646 128 l 696 131 q 637 76 656 119 l 629 83 m 772 77 q 797 132 772 108 q 850 156 821 156 q 904 134 883 156 q 926 77 926 111 q 903 22 926 45 q 849 -1 881 -1 q 794 22 817 -1 q 772 77 772 45 m 784 83 q 841 140 801 128 l 850 131 q 791 76 810 119 l 784 83 m 926 77 q 950 132 926 108 q 1004 156 975 156 q 1059 134 1037 156 q 1080 77 1080 111 q 1058 22 1080 45 q 1003 -1 1036 -1 q 948 22 970 -1 q 926 77 926 45 m 939 83 q 996 140 956 128 l 1004 131 q 946 76 964 119 l 939 83 m 12 237 q 69 295 29 282 l 79 286 q 20 230 39 273 l 12 237 m 167 237 q 224 295 184 282 l 233 286 q 174 230 193 273 l 167 237 m 321 237 q 378 295 338 282 l 387 286 q 329 230 347 273 l 321 237 m 463 231 q 488 286 463 262 q 542 310 512 310 q 596 288 574 310 q 617 231 617 265 q 595 176 617 199 q 540 153 572 153 q 486 176 508 153 q 463 231 463 199 m 475 237 q 532 295 492 282 l 542 286 q 483 230 502 273 l 475 237 m 629 237 q 687 295 646 282 l 696 286 q 637 230 656 273 l 629 237 m 784 237 q 841 295 801 282 l 850 286 q 791 230 810 273 l 784 237 m 939 237 q 996 295 956 282 l 1004 286 q 946 230 964 273 l 939 237 m 12 393 q 69 450 29 438 l 79 441 q 20 386 39 429 l 12 393 m 167 393 q 224 450 184 438 l 233 441 q 174 386 193 429 l 167 393 m 321 393 q 378 450 338 438 l 387 441 q 329 386 347 429 l 321 393 m 463 387 q 488 442 463 418 q 542 466 512 466 q 596 444 574 466 q 617 387 617 421 q 595 332 617 355 q 540 309 572 309 q 486 332 508 309 q 463 387 463 355 m 475 393 q 532 450 492 438 l 542 441 q 483 386 502 429 l 475 393 m 629 393 q 687 450 646 438 l 696 441 q 637 386 656 429 l 629 393 m 784 393 q 841 450 801 438 l 850 441 q 791 386 810 429 l 784 393 m 939 393 q 996 450 956 438 l 1004 441 q 946 386 964 429 l 939 393 m 12 548 q 69 605 29 593 l 79 595 q 20 540 39 583 l 12 548 m 167 548 q 224 605 184 593 l 233 595 q 174 540 193 583 l 167 548 m 321 548 q 378 605 338 593 l 387 595 q 329 540 347 583 l 321 548 m 463 542 q 488 596 463 572 q 542 621 512 621 q 596 598 574 621 q 617 542 617 576 q 595 486 617 509 q 540 463 572 463 q 486 486 508 463 q 463 542 463 509 m 475 548 q 532 605 492 593 l 542 595 q 483 540 502 583 l 475 548 m 629 548 q 687 605 646 593 l 696 595 q 637 540 656 583 l 629 548 m 784 548 q 841 605 801 593 l 850 595 q 791 540 810 583 l 784 548 m 939 548 q 996 605 956 593 l 1004 595 q 946 540 964 583 l 939 548 m 12 702 q 69 760 29 747 l 79 750 q 20 694 39 738 l 12 702 m 167 702 q 224 760 184 747 l 233 750 q 174 694 193 738 l 167 702 m 321 702 q 378 760 338 747 l 387 750 q 329 694 347 738 l 321 702 m 463 696 q 488 751 463 727 q 542 774 512 774 q 596 752 574 774 q 617 696 617 730 q 595 640 617 663 q 540 617 572 617 q 486 640 508 617 q 463 696 463 663 m 475 702 q 532 760 492 747 l 542 750 q 483 694 502 738 l 475 702 m 629 702 q 687 760 646 747 l 696 750 q 637 694 656 738 l 629 702 m 784 702 q 841 760 801 747 l 850 750 q 791 694 810 738 l 784 702 m 939 702 q 996 760 956 747 l 1004 750 q 946 694 964 738 l 939 702 m 12 857 q 69 913 29 901 l 79 904 q 20 849 39 892 l 12 857 m 167 857 q 224 913 184 901 l 233 904 q 174 849 193 892 l 167 857 m 321 857 q 378 913 338 901 l 387 904 q 329 849 347 892 l 321 857 m 463 850 q 488 905 463 881 q 542 929 512 929 q 596 907 574 929 q 617 850 617 884 q 595 795 617 818 q 540 772 572 772 q 486 795 508 772 q 463 850 463 818 m 475 857 q 532 913 492 901 l 542 904 q 483 849 502 892 l 475 857 m 629 857 q 687 913 646 901 l 696 904 q 637 849 656 892 l 629 857 m 784 857 q 841 913 801 901 l 850 904 q 791 849 810 892 l 784 857 m 939 857 q 996 913 956 901 l 1004 904 q 946 849 964 892 l 939 857 m 12 1010 q 69 1068 29 1055 l 79 1059 q 20 1003 39 1046 l 12 1010 m 167 1010 q 224 1068 184 1055 l 233 1059 q 174 1003 193 1046 l 167 1010 m 321 1010 q 378 1068 338 1055 l 387 1059 q 329 1003 347 1046 l 321 1010 m 463 1004 q 488 1059 463 1036 q 542 1083 512 1083 q 596 1061 574 1083 q 617 1004 617 1038 q 595 949 617 972 q 540 926 572 926 q 486 949 508 926 q 463 1004 463 972 m 475 1010 q 532 1068 492 1055 l 542 1059 q 483 1003 502 1046 l 475 1010 m 629 1010 q 687 1068 646 1055 l 696 1059 q 637 1003 656 1046 l 629 1010 m 784 1010 q 841 1068 801 1055 l 850 1059 q 791 1003 810 1046 l 784 1010 m 939 1010 q 996 1068 956 1055 l 1004 1059 q 946 1003 964 1046 l 939 1010 m 12 1165 q 69 1222 29 1210 l 79 1213 q 20 1158 39 1200 l 12 1165 m 167 1165 q 224 1222 184 1210 l 233 1213 q 174 1158 193 1200 l 167 1165 m 309 1159 q 333 1214 309 1190 q 387 1238 358 1238 q 441 1215 420 1238 q 463 1159 463 1193 q 441 1103 463 1126 q 386 1080 418 1080 q 331 1103 353 1080 q 309 1159 309 1126 m 321 1165 q 378 1222 338 1210 l 387 1213 q 329 1158 347 1200 l 321 1165 m 463 1159 q 488 1214 463 1190 q 542 1238 512 1238 q 596 1215 574 1238 q 617 1159 617 1193 q 595 1103 617 1126 q 540 1080 572 1080 q 486 1103 508 1080 q 463 1159 463 1126 m 475 1165 q 532 1222 492 1210 l 542 1213 q 483 1158 502 1200 l 475 1165 m 629 1165 q 687 1222 646 1210 l 696 1213 q 637 1158 656 1200 l 629 1165 m 784 1165 q 841 1222 801 1210 l 850 1213 q 791 1158 810 1200 l 784 1165 m 939 1165 q 996 1222 956 1210 l 1004 1213 q 946 1158 964 1200 l 939 1165 m 12 1320 q 69 1377 29 1364 l 79 1367 q 20 1312 39 1355 l 12 1320 m 167 1320 q 224 1377 184 1364 l 233 1367 q 174 1312 193 1355 l 167 1320 m 321 1320 q 378 1377 338 1364 l 387 1367 q 329 1312 347 1355 l 321 1320 m 463 1313 q 488 1368 463 1344 q 542 1392 512 1392 q 596 1370 574 1392 q 617 1313 617 1348 q 595 1258 617 1281 q 540 1234 572 1234 q 486 1258 508 1234 q 463 1313 463 1281 m 475 1320 q 532 1377 492 1364 l 542 1367 q 483 1312 502 1355 l 475 1320 m 629 1320 q 687 1377 646 1364 l 696 1367 q 637 1312 656 1355 l 629 1320 m 784 1320 q 841 1377 801 1364 l 850 1367 q 791 1312 810 1355 l 784 1320 m 939 1320 q 996 1377 956 1364 l 1004 1367 q 946 1312 964 1355 l 939 1320 z "},"2":{"ha":1080,"x_min":0,"x_max":1080,"o":"m 1080 0 l 1080 1472 l 0 1472 l 0 0 l 1080 0 m 12 83 q 69 140 29 128 l 79 131 q 20 76 39 119 l 12 83 m 155 77 q 179 132 155 108 q 233 156 203 156 q 287 134 265 156 q 309 77 309 111 q 286 22 309 45 q 231 -1 264 -1 q 177 22 199 -1 q 155 77 155 45 m 167 83 q 224 140 184 128 l 233 131 q 174 76 193 119 l 167 83 m 309 77 q 333 132 309 108 q 387 156 358 156 q 441 134 420 156 q 463 77 463 111 q 441 22 463 45 q 386 -1 418 -1 q 331 22 353 -1 q 309 77 309 45 m 321 83 q 378 140 338 128 l 387 131 q 329 76 347 119 l 321 83 m 463 77 q 488 132 463 108 q 542 156 512 156 q 596 134 574 156 q 617 77 617 111 q 595 22 617 45 q 540 -1 572 -1 q 486 22 508 -1 q 463 77 463 45 m 475 83 q 532 140 492 128 l 542 131 q 483 76 502 119 l 475 83 m 617 77 q 642 132 617 108 q 696 156 667 156 q 750 134 728 156 q 772 77 772 111 q 749 22 772 45 q 694 -1 727 -1 q 640 22 662 -1 q 617 77 617 45 m 629 83 q 687 140 646 128 l 696 131 q 637 76 656 119 l 629 83 m 772 77 q 797 132 772 108 q 850 156 821 156 q 904 134 883 156 q 926 77 926 111 q 903 22 926 45 q 849 -1 881 -1 q 794 22 817 -1 q 772 77 772 45 m 784 83 q 841 140 801 128 l 850 131 q 791 76 810 119 l 784 83 m 926 77 q 950 132 926 108 q 1004 156 975 156 q 1059 134 1037 156 q 1080 77 1080 111 q 1058 22 1080 45 q 1003 -1 1036 -1 q 948 22 970 -1 q 926 77 926 45 m 939 83 q 996 140 956 128 l 1004 131 q 946 76 964 119 l 939 83 m 12 237 q 69 295 29 282 l 79 286 q 20 230 39 273 l 12 237 m 155 231 q 179 286 155 262 q 233 310 203 310 q 287 288 265 310 q 309 231 309 265 q 286 176 309 199 q 231 153 264 153 q 177 176 199 153 q 155 231 155 199 m 167 237 q 224 295 184 282 l 233 286 q 174 230 193 273 l 167 237 m 321 237 q 378 295 338 282 l 387 286 q 329 230 347 273 l 321 237 m 475 237 q 532 295 492 282 l 542 286 q 483 230 502 273 l 475 237 m 629 237 q 687 295 646 282 l 696 286 q 637 230 656 273 l 629 237 m 784 237 q 841 295 801 282 l 850 286 q 791 230 810 273 l 784 237 m 939 237 q 996 295 956 282 l 1004 286 q 946 230 964 273 l 939 237 m 12 393 q 69 450 29 438 l 79 441 q 20 386 39 429 l 12 393 m 155 387 q 179 442 155 418 q 233 466 203 466 q 287 444 265 466 q 309 387 309 421 q 286 332 309 355 q 231 309 264 309 q 177 332 199 309 q 155 387 155 355 m 167 393 q 224 450 184 438 l 233 441 q 174 386 193 429 l 167 393 m 321 393 q 378 450 338 438 l 387 441 q 329 386 347 429 l 321 393 m 475 393 q 532 450 492 438 l 542 441 q 483 386 502 429 l 475 393 m 629 393 q 687 450 646 438 l 696 441 q 637 386 656 429 l 629 393 m 784 393 q 841 450 801 438 l 850 441 q 791 386 810 429 l 784 393 m 939 393 q 996 450 956 438 l 1004 441 q 946 386 964 429 l 939 393 m 12 548 q 69 605 29 593 l 79 595 q 20 540 39 583 l 12 548 m 155 542 q 179 596 155 572 q 233 621 203 621 q 287 598 265 621 q 309 542 309 576 q 286 486 309 509 q 231 463 264 463 q 177 486 199 463 q 155 542 155 509 m 167 548 q 224 605 184 593 l 233 595 q 174 540 193 583 l 167 548 m 321 548 q 378 605 338 593 l 387 595 q 329 540 347 583 l 321 548 m 475 548 q 532 605 492 593 l 542 595 q 483 540 502 583 l 475 548 m 629 548 q 687 605 646 593 l 696 595 q 637 540 656 583 l 629 548 m 784 548 q 841 605 801 593 l 850 595 q 791 540 810 583 l 784 548 m 939 548 q 996 605 956 593 l 1004 595 q 946 540 964 583 l 939 548 m 12 702 q 69 760 29 747 l 79 750 q 20 694 39 738 l 12 702 m 167 702 q 224 760 184 747 l 233 750 q 174 694 193 738 l 167 702 m 309 696 q 333 751 309 727 q 387 774 358 774 q 441 752 420 774 q 463 696 463 730 q 441 640 463 663 q 386 617 418 617 q 331 640 353 617 q 309 696 309 663 m 321 702 q 378 760 338 747 l 387 750 q 329 694 347 738 l 321 702 m 463 696 q 488 751 463 727 q 542 774 512 774 q 596 752 574 774 q 617 696 617 730 q 595 640 617 663 q 540 617 572 617 q 486 640 508 617 q 463 696 463 663 m 475 702 q 532 760 492 747 l 542 750 q 483 694 502 738 l 475 702 m 617 696 q 642 751 617 727 q 696 774 667 774 q 750 752 728 774 q 772 696 772 730 q 749 640 772 663 q 694 617 727 617 q 640 640 662 617 q 617 696 617 663 m 629 702 q 687 760 646 747 l 696 750 q 637 694 656 738 l 629 702 m 772 696 q 797 751 772 727 q 850 774 821 774 q 904 752 883 774 q 926 696 926 730 q 903 640 926 663 q 849 617 881 617 q 794 640 817 617 q 772 696 772 663 m 784 702 q 841 760 801 747 l 850 750 q 791 694 810 738 l 784 702 m 926 696 q 950 751 926 727 q 1004 774 975 774 q 1059 752 1037 774 q 1080 696 1080 730 q 1058 640 1080 663 q 1003 617 1036 617 q 948 640 970 617 q 926 696 926 663 m 939 702 q 996 760 956 747 l 1004 750 q 946 694 964 738 l 939 702 m 12 857 q 69 913 29 901 l 79 904 q 20 849 39 892 l 12 857 m 167 857 q 224 913 184 901 l 233 904 q 174 849 193 892 l 167 857 m 321 857 q 378 913 338 901 l 387 904 q 329 849 347 892 l 321 857 m 475 857 q 532 913 492 901 l 542 904 q 483 849 502 892 l 475 857 m 629 857 q 687 913 646 901 l 696 904 q 637 849 656 892 l 629 857 m 784 857 q 841 913 801 901 l 850 904 q 791 849 810 892 l 784 857 m 926 850 q 950 905 926 881 q 1004 929 975 929 q 1059 907 1037 929 q 1080 850 1080 884 q 1058 795 1080 818 q 1003 772 1036 772 q 948 795 970 772 q 926 850 926 818 m 939 857 q 996 913 956 901 l 1004 904 q 946 849 964 892 l 939 857 m 12 1010 q 69 1068 29 1055 l 79 1059 q 20 1003 39 1046 l 12 1010 m 167 1010 q 224 1068 184 1055 l 233 1059 q 174 1003 193 1046 l 167 1010 m 321 1010 q 378 1068 338 1055 l 387 1059 q 329 1003 347 1046 l 321 1010 m 475 1010 q 532 1068 492 1055 l 542 1059 q 483 1003 502 1046 l 475 1010 m 629 1010 q 687 1068 646 1055 l 696 1059 q 637 1003 656 1046 l 629 1010 m 784 1010 q 841 1068 801 1055 l 850 1059 q 791 1003 810 1046 l 784 1010 m 926 1004 q 950 1059 926 1036 q 1004 1083 975 1083 q 1059 1061 1037 1083 q 1080 1004 1080 1038 q 1058 949 1080 972 q 1003 926 1036 926 q 948 949 970 926 q 926 1004 926 972 m 939 1010 q 996 1068 956 1055 l 1004 1059 q 946 1003 964 1046 l 939 1010 m 12 1165 q 69 1222 29 1210 l 79 1213 q 20 1158 39 1200 l 12 1165 m 155 1159 q 179 1214 155 1190 q 233 1238 203 1238 q 287 1215 265 1238 q 309 1159 309 1193 q 286 1103 309 1126 q 231 1080 264 1080 q 177 1103 199 1080 q 155 1159 155 1126 m 167 1165 q 224 1222 184 1210 l 233 1213 q 174 1158 193 1200 l 167 1165 m 321 1165 q 378 1222 338 1210 l 387 1213 q 329 1158 347 1200 l 321 1165 m 475 1165 q 532 1222 492 1210 l 542 1213 q 483 1158 502 1200 l 475 1165 m 629 1165 q 687 1222 646 1210 l 696 1213 q 637 1158 656 1200 l 629 1165 m 784 1165 q 841 1222 801 1210 l 850 1213 q 791 1158 810 1200 l 784 1165 m 926 1159 q 950 1214 926 1190 q 1004 1238 975 1238 q 1059 1215 1037 1238 q 1080 1159 1080 1193 q 1058 1103 1080 1126 q 1003 1080 1036 1080 q 948 1103 970 1080 q 926 1159 926 1126 m 939 1165 q 996 1222 956 1210 l 1004 1213 q 946 1158 964 1200 l 939 1165 m 12 1320 q 69 1377 29 1364 l 79 1367 q 20 1312 39 1355 l 12 1320 m 155 1313 q 179 1368 155 1344 q 233 1392 203 1392 q 287 1370 265 1392 q 309 1313 309 1348 q 286 1258 309 1281 q 231 1234 264 1234 q 177 1258 199 1234 q 155 1313 155 1281 m 167 1320 q 224 1377 184 1364 l 233 1367 q 174 1312 193 1355 l 167 1320 m 309 1313 q 333 1368 309 1344 q 387 1392 358 1392 q 441 1370 420 1392 q 463 1313 463 1348 q 441 1258 463 1281 q 386 1234 418 1234 q 331 1258 353 1234 q 309 1313 309 1281 m 321 1320 q 378 1377 338 1364 l 387 1367 q 329 1312 347 1355 l 321 1320 m 463 1313 q 488 1368 463 1344 q 542 1392 512 1392 q 596 1370 574 1392 q 617 1313 617 1348 q 595 1258 617 1281 q 540 1234 572 1234 q 486 1258 508 1234 q 463 1313 463 1281 m 475 1320 q 532 1377 492 1364 l 542 1367 q 483 1312 502 1355 l 475 1320 m 617 1313 q 642 1368 617 1344 q 696 1392 667 1392 q 750 1370 728 1392 q 772 1313 772 1348 q 749 1258 772 1281 q 694 1234 727 1234 q 640 1258 662 1234 q 617 1313 617 1281 m 629 1320 q 687 1377 646 1364 l 696 1367 q 637 1312 656 1355 l 629 1320 m 772 1313 q 797 1368 772 1344 q 850 1392 821 1392 q 904 1370 883 1392 q 926 1313 926 1348 q 903 1258 926 1281 q 849 1234 881 1234 q 794 1258 817 1234 q 772 1313 772 1281 m 784 1320 q 841 1377 801 1364 l 850 1367 q 791 1312 810 1355 l 784 1320 m 939 1320 q 996 1377 956 1364 l 1004 1367 q 946 1312 964 1355 l 939 1320 z "},"3":{"ha":1080,"x_min":0,"x_max":1080,"o":"m 1080 0 l 1080 1472 l 0 1472 l 0 0 l 1080 0 m 12 83 q 69 140 29 128 l 79 131 q 20 76 39 119 l 12 83 m 155 77 q 179 132 155 108 q 233 156 203 156 q 287 134 265 156 q 309 77 309 111 q 286 22 309 45 q 231 -1 264 -1 q 177 22 199 -1 q 155 77 155 45 m 167 83 q 224 140 184 128 l 233 131 q 174 76 193 119 l 167 83 m 309 77 q 333 132 309 108 q 387 156 358 156 q 441 134 420 156 q 463 77 463 111 q 441 22 463 45 q 386 -1 418 -1 q 331 22 353 -1 q 309 77 309 45 m 321 83 q 378 140 338 128 l 387 131 q 329 76 347 119 l 321 83 m 463 77 q 488 132 463 108 q 542 156 512 156 q 596 134 574 156 q 617 77 617 111 q 595 22 617 45 q 540 -1 572 -1 q 486 22 508 -1 q 463 77 463 45 m 475 83 q 532 140 492 128 l 542 131 q 483 76 502 119 l 475 83 m 617 77 q 642 132 617 108 q 696 156 667 156 q 750 134 728 156 q 772 77 772 111 q 749 22 772 45 q 694 -1 727 -1 q 640 22 662 -1 q 617 77 617 45 m 629 83 q 687 140 646 128 l 696 131 q 637 76 656 119 l 629 83 m 772 77 q 797 132 772 108 q 850 156 821 156 q 904 134 883 156 q 926 77 926 111 q 903 22 926 45 q 849 -1 881 -1 q 794 22 817 -1 q 772 77 772 45 m 784 83 q 841 140 801 128 l 850 131 q 791 76 810 119 l 784 83 m 939 83 q 996 140 956 128 l 1004 131 q 946 76 964 119 l 939 83 m 12 237 q 69 295 29 282 l 79 286 q 20 230 39 273 l 12 237 m 167 237 q 224 295 184 282 l 233 286 q 174 230 193 273 l 167 237 m 321 237 q 378 295 338 282 l 387 286 q 329 230 347 273 l 321 237 m 475 237 q 532 295 492 282 l 542 286 q 483 230 502 273 l 475 237 m 629 237 q 687 295 646 282 l 696 286 q 637 230 656 273 l 629 237 m 784 237 q 841 295 801 282 l 850 286 q 791 230 810 273 l 784 237 m 926 231 q 950 286 926 262 q 1004 310 975 310 q 1059 288 1037 310 q 1080 231 1080 265 q 1058 176 1080 199 q 1003 153 1036 153 q 948 176 970 153 q 926 231 926 199 m 939 237 q 996 295 956 282 l 1004 286 q 946 230 964 273 l 939 237 m 12 393 q 69 450 29 438 l 79 441 q 20 386 39 429 l 12 393 m 167 393 q 224 450 184 438 l 233 441 q 174 386 193 429 l 167 393 m 321 393 q 378 450 338 438 l 387 441 q 329 386 347 429 l 321 393 m 475 393 q 532 450 492 438 l 542 441 q 483 386 502 429 l 475 393 m 629 393 q 687 450 646 438 l 696 441 q 637 386 656 429 l 629 393 m 784 393 q 841 450 801 438 l 850 441 q 791 386 810 429 l 784 393 m 926 387 q 950 442 926 418 q 1004 466 975 466 q 1059 444 1037 466 q 1080 387 1080 421 q 1058 332 1080 355 q 1003 309 1036 309 q 948 332 970 309 q 926 387 926 355 m 939 393 q 996 450 956 438 l 1004 441 q 946 386 964 429 l 939 393 m 12 548 q 69 605 29 593 l 79 595 q 20 540 39 583 l 12 548 m 167 548 q 224 605 184 593 l 233 595 q 174 540 193 583 l 167 548 m 321 548 q 378 605 338 593 l 387 595 q 329 540 347 583 l 321 548 m 475 548 q 532 605 492 593 l 542 595 q 483 540 502 583 l 475 548 m 629 548 q 687 605 646 593 l 696 595 q 637 540 656 583 l 629 548 m 784 548 q 841 605 801 593 l 850 595 q 791 540 810 583 l 784 548 m 926 542 q 950 596 926 572 q 1004 621 975 621 q 1059 598 1037 621 q 1080 542 1080 576 q 1058 486 1080 509 q 1003 463 1036 463 q 948 486 970 463 q 926 542 926 509 m 939 548 q 996 605 956 593 l 1004 595 q 946 540 964 583 l 939 548 m 12 702 q 69 760 29 747 l 79 750 q 20 694 39 738 l 12 702 m 155 696 q 179 751 155 727 q 233 774 203 774 q 287 752 265 774 q 309 696 309 730 q 286 640 309 663 q 231 617 264 617 q 177 640 199 617 q 155 696 155 663 m 167 702 q 224 760 184 747 l 233 750 q 174 694 193 738 l 167 702 m 309 696 q 333 751 309 727 q 387 774 358 774 q 441 752 420 774 q 463 696 463 730 q 441 640 463 663 q 386 617 418 617 q 331 640 353 617 q 309 696 309 663 m 321 702 q 378 760 338 747 l 387 750 q 329 694 347 738 l 321 702 m 463 696 q 488 751 463 727 q 542 774 512 774 q 596 752 574 774 q 617 696 617 730 q 595 640 617 663 q 540 617 572 617 q 486 640 508 617 q 463 696 463 663 m 475 702 q 532 760 492 747 l 542 750 q 483 694 502 738 l 475 702 m 617 696 q 642 751 617 727 q 696 774 667 774 q 750 752 728 774 q 772 696 772 730 q 749 640 772 663 q 694 617 727 617 q 640 640 662 617 q 617 696 617 663 m 629 702 q 687 760 646 747 l 696 750 q 637 694 656 738 l 629 702 m 772 696 q 797 751 772 727 q 850 774 821 774 q 904 752 883 774 q 926 696 926 730 q 903 640 926 663 q 849 617 881 617 q 794 640 817 617 q 772 696 772 663 m 784 702 q 841 760 801 747 l 850 750 q 791 694 810 738 l 784 702 m 939 702 q 996 760 956 747 l 1004 750 q 946 694 964 738 l 939 702 m 12 857 q 69 913 29 901 l 79 904 q 20 849 39 892 l 12 857 m 167 857 q 224 913 184 901 l 233 904 q 174 849 193 892 l 167 857 m 321 857 q 378 913 338 901 l 387 904 q 329 849 347 892 l 321 857 m 475 857 q 532 913 492 901 l 542 904 q 483 849 502 892 l 475 857 m 629 857 q 687 913 646 901 l 696 904 q 637 849 656 892 l 629 857 m 784 857 q 841 913 801 901 l 850 904 q 791 849 810 892 l 784 857 m 926 850 q 950 905 926 881 q 1004 929 975 929 q 1059 907 1037 929 q 1080 850 1080 884 q 1058 795 1080 818 q 1003 772 1036 772 q 948 795 970 772 q 926 850 926 818 m 939 857 q 996 913 956 901 l 1004 904 q 946 849 964 892 l 939 857 m 12 1010 q 69 1068 29 1055 l 79 1059 q 20 1003 39 1046 l 12 1010 m 167 1010 q 224 1068 184 1055 l 233 1059 q 174 1003 193 1046 l 167 1010 m 321 1010 q 378 1068 338 1055 l 387 1059 q 329 1003 347 1046 l 321 1010 m 475 1010 q 532 1068 492 1055 l 542 1059 q 483 1003 502 1046 l 475 1010 m 629 1010 q 687 1068 646 1055 l 696 1059 q 637 1003 656 1046 l 629 1010 m 784 1010 q 841 1068 801 1055 l 850 1059 q 791 1003 810 1046 l 784 1010 m 926 1004 q 950 1059 926 1036 q 1004 1083 975 1083 q 1059 1061 1037 1083 q 1080 1004 1080 1038 q 1058 949 1080 972 q 1003 926 1036 926 q 948 949 970 926 q 926 1004 926 972 m 939 1010 q 996 1068 956 1055 l 1004 1059 q 946 1003 964 1046 l 939 1010 m 12 1165 q 69 1222 29 1210 l 79 1213 q 20 1158 39 1200 l 12 1165 m 167 1165 q 224 1222 184 1210 l 233 1213 q 174 1158 193 1200 l 167 1165 m 321 1165 q 378 1222 338 1210 l 387 1213 q 329 1158 347 1200 l 321 1165 m 475 1165 q 532 1222 492 1210 l 542 1213 q 483 1158 502 1200 l 475 1165 m 629 1165 q 687 1222 646 1210 l 696 1213 q 637 1158 656 1200 l 629 1165 m 784 1165 q 841 1222 801 1210 l 850 1213 q 791 1158 810 1200 l 784 1165 m 926 1159 q 950 1214 926 1190 q 1004 1238 975 1238 q 1059 1215 1037 1238 q 1080 1159 1080 1193 q 1058 1103 1080 1126 q 1003 1080 1036 1080 q 948 1103 970 1080 q 926 1159 926 1126 m 939 1165 q 996 1222 956 1210 l 1004 1213 q 946 1158 964 1200 l 939 1165 m 12 1320 q 69 1377 29 1364 l 79 1367 q 20 1312 39 1355 l 12 1320 m 155 1313 q 179 1368 155 1344 q 233 1392 203 1392 q 287 1370 265 1392 q 309 1313 309 1348 q 286 1258 309 1281 q 231 1234 264 1234 q 177 1258 199 1234 q 155 1313 155 1281 m 167 1320 q 224 1377 184 1364 l 233 1367 q 174 1312 193 1355 l 167 1320 m 309 1313 q 333 1368 309 1344 q 387 1392 358 1392 q 441 1370 420 1392 q 463 1313 463 1348 q 441 1258 463 1281 q 386 1234 418 1234 q 331 1258 353 1234 q 309 1313 309 1281 m 321 1320 q 378 1377 338 1364 l 387 1367 q 329 1312 347 1355 l 321 1320 m 463 1313 q 488 1368 463 1344 q 542 1392 512 1392 q 596 1370 574 1392 q 617 1313 617 1348 q 595 1258 617 1281 q 540 1234 572 1234 q 486 1258 508 1234 q 463 1313 463 1281 m 475 1320 q 532 1377 492 1364 l 542 1367 q 483 1312 502 1355 l 475 1320 m 617 1313 q 642 1368 617 1344 q 696 1392 667 1392 q 750 1370 728 1392 q 772 1313 772 1348 q 749 1258 772 1281 q 694 1234 727 1234 q 640 1258 662 1234 q 617 1313 617 1281 m 629 1320 q 687 1377 646 1364 l 696 1367 q 637 1312 656 1355 l 629 1320 m 772 1313 q 797 1368 772 1344 q 850 1392 821 1392 q 904 1370 883 1392 q 926 1313 926 1348 q 903 1258 926 1281 q 849 1234 881 1234 q 794 1258 817 1234 q 772 1313 772 1281 m 784 1320 q 841 1377 801 1364 l 850 1367 q 791 1312 810 1355 l 784 1320 m 939 1320 q 996 1377 956 1364 l 1004 1367 q 946 1312 964 1355 l 939 1320 z "},"4":{"ha":1080,"x_min":0,"x_max":475,"o":"m 1080 0 l 1080 1472 l 0 1472 l 0 0 l 1080 0 m 12 83 q 69 140 29 128 l 79 131 q 20 76 39 119 l 12 83 m 167 83 q 224 140 184 128 l 233 131 q 174 76 193 119 l 167 83 m 321 83 q 378 140 338 128 l 387 131 q 329 76 347 119 l 321 83 m 475 83 q 532 140 492 128 l 542 131 q 483 76 502 119 l 475 83 m 629 83 q 687 140 646 128 l 696 131 q 637 76 656 119 l 629 83 m 772 77 q 797 132 772 108 q 850 156 821 156 q 904 134 883 156 q 926 77 926 111 q 903 22 926 45 q 849 -1 881 -1 q 794 22 817 -1 q 772 77 772 45 m 784 83 q 841 140 801 128 l 850 131 q 791 76 810 119 l 784 83 m 939 83 q 996 140 956 128 l 1004 131 q 946 76 964 119 l 939 83 m 12 237 q 69 295 29 282 l 79 286 q 20 230 39 273 l 12 237 m 167 237 q 224 295 184 282 l 233 286 q 174 230 193 273 l 167 237 m 321 237 q 378 295 338 282 l 387 286 q 329 230 347 273 l 321 237 m 475 237 q 532 295 492 282 l 542 286 q 483 230 502 273 l 475 237 m 629 237 q 687 295 646 282 l 696 286 q 637 230 656 273 l 629 237 m 772 231 q 797 286 772 262 q 850 310 821 310 q 904 288 883 310 q 926 231 926 265 q 903 176 926 199 q 849 153 881 153 q 794 176 817 153 q 772 231 772 199 m 784 237 q 841 295 801 282 l 850 286 q 791 230 810 273 l 784 237 m 939 237 q 996 295 956 282 l 1004 286 q 946 230 964 273 l 939 237 m 12 393 q 69 450 29 438 l 79 441 q 20 386 39 429 l 12 393 m 167 393 q 224 450 184 438 l 233 441 q 174 386 193 429 l 167 393 m 321 393 q 378 450 338 438 l 387 441 q 329 386 347 429 l 321 393 m 475 393 q 532 450 492 438 l 542 441 q 483 386 502 429 l 475 393 m 629 393 q 687 450 646 438 l 696 441 q 637 386 656 429 l 629 393 m 772 387 q 797 442 772 418 q 850 466 821 466 q 904 444 883 466 q 926 387 926 421 q 903 332 926 355 q 849 309 881 309 q 794 332 817 309 q 772 387 772 355 m 784 393 q 841 450 801 438 l 850 441 q 791 386 810 429 l 784 393 m 939 393 q 996 450 956 438 l 1004 441 q 946 386 964 429 l 939 393 m 12 548 q 69 605 29 593 l 79 595 q 20 540 39 583 l 12 548 m 155 542 q 179 596 155 572 q 233 621 203 621 q 287 598 265 621 q 309 542 309 576 q 286 486 309 509 q 231 463 264 463 q 177 486 199 463 q 155 542 155 509 m 167 548 q 224 605 184 593 l 233 595 q 174 540 193 583 l 167 548 m 309 542 q 333 596 309 572 q 387 621 358 621 q 441 598 420 621 q 463 542 463 576 q 441 486 463 509 q 386 463 418 463 q 331 486 353 463 q 309 542 309 509 m 321 548 q 378 605 338 593 l 387 595 q 329 540 347 583 l 321 548 m 463 542 q 488 596 463 572 q 542 621 512 621 q 596 598 574 621 q 617 542 617 576 q 595 486 617 509 q 540 463 572 463 q 486 486 508 463 q 463 542 463 509 m 475 548 q 532 605 492 593 l 542 595 q 483 540 502 583 l 475 548 m 617 542 q 642 596 617 572 q 696 621 667 621 q 750 598 728 621 q 772 542 772 576 q 749 486 772 509 q 694 463 727 463 q 640 486 662 463 q 617 542 617 509 m 629 548 q 687 605 646 593 l 696 595 q 637 540 656 583 l 629 548 m 772 542 q 797 596 772 572 q 850 621 821 621 q 904 598 883 621 q 926 542 926 576 q 903 486 926 509 q 849 463 881 463 q 794 486 817 463 q 772 542 772 509 m 784 548 q 841 605 801 593 l 850 595 q 791 540 810 583 l 784 548 m 926 542 q 950 596 926 572 q 1004 621 975 621 q 1059 598 1037 621 q 1080 542 1080 576 q 1058 486 1080 509 q 1003 463 1036 463 q 948 486 970 463 q 926 542 926 509 m 939 548 q 996 605 956 593 l 1004 595 q 946 540 964 583 l 939 548 m 12 702 q 69 760 29 747 l 79 750 q 20 694 39 738 l 12 702 m 155 696 q 179 751 155 727 q 233 774 203 774 q 287 752 265 774 q 309 696 309 730 q 286 640 309 663 q 231 617 264 617 q 177 640 199 617 q 155 696 155 663 m 167 702 q 224 760 184 747 l 233 750 q 174 694 193 738 l 167 702 m 321 702 q 378 760 338 747 l 387 750 q 329 694 347 738 l 321 702 m 475 702 q 532 760 492 747 l 542 750 q 483 694 502 738 l 475 702 m 629 702 q 687 760 646 747 l 696 750 q 637 694 656 738 l 629 702 m 772 696 q 797 751 772 727 q 850 774 821 774 q 904 752 883 774 q 926 696 926 730 q 903 640 926 663 q 849 617 881 617 q 794 640 817 617 q 772 696 772 663 m 784 702 q 841 760 801 747 l 850 750 q 791 694 810 738 l 784 702 m 939 702 q 996 760 956 747 l 1004 750 q 946 694 964 738 l 939 702 m 12 857 q 69 913 29 901 l 79 904 q 20 849 39 892 l 12 857 m 167 857 q 224 913 184 901 l 233 904 q 174 849 193 892 l 167 857 m 309 850 q 333 905 309 881 q 387 929 358 929 q 441 907 420 929 q 463 850 463 884 q 441 795 463 818 q 386 772 418 772 q 331 795 353 772 q 309 850 309 818 m 321 857 q 378 913 338 901 l 387 904 q 329 849 347 892 l 321 857 m 475 857 q 532 913 492 901 l 542 904 q 483 849 502 892 l 475 857 m 629 857 q 687 913 646 901 l 696 904 q 637 849 656 892 l 629 857 m 772 850 q 797 905 772 881 q 850 929 821 929 q 904 907 883 929 q 926 850 926 884 q 903 795 926 818 q 849 772 881 772 q 794 795 817 772 q 772 850 772 818 m 784 857 q 841 913 801 901 l 850 904 q 791 849 810 892 l 784 857 m 939 857 q 996 913 956 901 l 1004 904 q 946 849 964 892 l 939 857 m 12 1010 q 69 1068 29 1055 l 79 1059 q 20 1003 39 1046 l 12 1010 m 167 1010 q 224 1068 184 1055 l 233 1059 q 174 1003 193 1046 l 167 1010 m 321 1010 q 378 1068 338 1055 l 387 1059 q 329 1003 347 1046 l 321 1010 m 463 1004 q 488 1059 463 1036 q 542 1083 512 1083 q 596 1061 574 1083 q 617 1004 617 1038 q 595 949 617 972 q 540 926 572 926 q 486 949 508 926 q 463 1004 463 972 m 475 1010 q 532 1068 492 1055 l 542 1059 q 483 1003 502 1046 l 475 1010 m 629 1010 q 687 1068 646 1055 l 696 1059 q 637 1003 656 1046 l 629 1010 m 772 1004 q 797 1059 772 1036 q 850 1083 821 1083 q 904 1061 883 1083 q 926 1004 926 1038 q 903 949 926 972 q 849 926 881 926 q 794 949 817 926 q 772 1004 772 972 m 784 1010 q 841 1068 801 1055 l 850 1059 q 791 1003 810 1046 l 784 1010 m 939 1010 q 996 1068 956 1055 l 1004 1059 q 946 1003 964 1046 l 939 1010 m 12 1165 q 69 1222 29 1210 l 79 1213 q 20 1158 39 1200 l 12 1165 m 167 1165 q 224 1222 184 1210 l 233 1213 q 174 1158 193 1200 l 167 1165 m 321 1165 q 378 1222 338 1210 l 387 1213 q 329 1158 347 1200 l 321 1165 m 475 1165 q 532 1222 492 1210 l 542 1213 q 483 1158 502 1200 l 475 1165 m 617 1159 q 642 1214 617 1190 q 696 1238 667 1238 q 750 1215 728 1238 q 772 1159 772 1193 q 749 1103 772 1126 q 694 1080 727 1080 q 640 1103 662 1080 q 617 1159 617 1126 m 629 1165 q 687 1222 646 1210 l 696 1213 q 637 1158 656 1200 l 629 1165 m 772 1159 q 797 1214 772 1190 q 850 1238 821 1238 q 904 1215 883 1238 q 926 1159 926 1193 q 903 1103 926 1126 q 849 1080 881 1080 q 794 1103 817 1080 q 772 1159 772 1126 m 784 1165 q 841 1222 801 1210 l 850 1213 q 791 1158 810 1200 l 784 1165 m 939 1165 q 996 1222 956 1210 l 1004 1213 q 946 1158 964 1200 l 939 1165 m 12 1320 q 69 1377 29 1364 l 79 1367 q 20 1312 39 1355 l 12 1320 m 167 1320 q 224 1377 184 1364 l 233 1367 q 174 1312 193 1355 l 167 1320 m 321 1320 q 378 1377 338 1364 l 387 1367 q 329 1312 347 1355 l 321 1320 m 475 1320 q 532 1377 492 1364 l 542 1367 q 483 1312 502 1355 l 475 1320 m 629 1320 q 687 1377 646 1364 l 696 1367 q 637 1312 656 1355 l 629 1320 m 772 1313 q 797 1368 772 1344 q 850 1392 821 1392 q 904 1370 883 1392 q 926 1313 926 1348 q 903 1258 926 1281 q 849 1234 881 1234 q 794 1258 817 1234 q 772 1313 772 1281 m 784 1320 q 841 1377 801 1364 l 850 1367 q 791 1312 810 1355 l 784 1320 m 939 1320 q 996 1377 956 1364 l 1004 1367 q 946 1312 964 1355 l 939 1320 z "},"5":{"ha":1080,"x_min":0,"x_max":475,"o":"m 1080 0 l 1080 1472 l 0 1472 l 0 0 l 1080 0 m 12 83 q 69 140 29 128 l 79 131 q 20 76 39 119 l 12 83 m 155 77 q 179 132 155 108 q 233 156 203 156 q 287 134 265 156 q 309 77 309 111 q 286 22 309 45 q 231 -1 264 -1 q 177 22 199 -1 q 155 77 155 45 m 167 83 q 224 140 184 128 l 233 131 q 174 76 193 119 l 167 83 m 309 77 q 333 132 309 108 q 387 156 358 156 q 441 134 420 156 q 463 77 463 111 q 441 22 463 45 q 386 -1 418 -1 q 331 22 353 -1 q 309 77 309 45 m 321 83 q 378 140 338 128 l 387 131 q 329 76 347 119 l 321 83 m 463 77 q 488 132 463 108 q 542 156 512 156 q 596 134 574 156 q 617 77 617 111 q 595 22 617 45 q 540 -1 572 -1 q 486 22 508 -1 q 463 77 463 45 m 475 83 q 532 140 492 128 l 542 131 q 483 76 502 119 l 475 83 m 617 77 q 642 132 617 108 q 696 156 667 156 q 750 134 728 156 q 772 77 772 111 q 749 22 772 45 q 694 -1 727 -1 q 640 22 662 -1 q 617 77 617 45 m 629 83 q 687 140 646 128 l 696 131 q 637 76 656 119 l 629 83 m 772 77 q 797 132 772 108 q 850 156 821 156 q 904 134 883 156 q 926 77 926 111 q 903 22 926 45 q 849 -1 881 -1 q 794 22 817 -1 q 772 77 772 45 m 784 83 q 841 140 801 128 l 850 131 q 791 76 810 119 l 784 83 m 939 83 q 996 140 956 128 l 1004 131 q 946 76 964 119 l 939 83 m 12 237 q 69 295 29 282 l 79 286 q 20 230 39 273 l 12 237 m 167 237 q 224 295 184 282 l 233 286 q 174 230 193 273 l 167 237 m 321 237 q 378 295 338 282 l 387 286 q 329 230 347 273 l 321 237 m 475 237 q 532 295 492 282 l 542 286 q 483 230 502 273 l 475 237 m 629 237 q 687 295 646 282 l 696 286 q 637 230 656 273 l 629 237 m 784 237 q 841 295 801 282 l 850 286 q 791 230 810 273 l 784 237 m 926 231 q 950 286 926 262 q 1004 310 975 310 q 1059 288 1037 310 q 1080 231 1080 265 q 1058 176 1080 199 q 1003 153 1036 153 q 948 176 970 153 q 926 231 926 199 m 939 237 q 996 295 956 282 l 1004 286 q 946 230 964 273 l 939 237 m 12 393 q 69 450 29 438 l 79 441 q 20 386 39 429 l 12 393 m 167 393 q 224 450 184 438 l 233 441 q 174 386 193 429 l 167 393 m 321 393 q 378 450 338 438 l 387 441 q 329 386 347 429 l 321 393 m 475 393 q 532 450 492 438 l 542 441 q 483 386 502 429 l 475 393 m 629 393 q 687 450 646 438 l 696 441 q 637 386 656 429 l 629 393 m 784 393 q 841 450 801 438 l 850 441 q 791 386 810 429 l 784 393 m 926 387 q 950 442 926 418 q 1004 466 975 466 q 1059 444 1037 466 q 1080 387 1080 421 q 1058 332 1080 355 q 1003 309 1036 309 q 948 332 970 309 q 926 387 926 355 m 939 393 q 996 450 956 438 l 1004 441 q 946 386 964 429 l 939 393 m 12 548 q 69 605 29 593 l 79 595 q 20 540 39 583 l 12 548 m 167 548 q 224 605 184 593 l 233 595 q 174 540 193 583 l 167 548 m 321 548 q 378 605 338 593 l 387 595 q 329 540 347 583 l 321 548 m 475 548 q 532 605 492 593 l 542 595 q 483 540 502 583 l 475 548 m 629 548 q 687 605 646 593 l 696 595 q 637 540 656 583 l 629 548 m 784 548 q 841 605 801 593 l 850 595 q 791 540 810 583 l 784 548 m 926 542 q 950 596 926 572 q 1004 621 975 621 q 1059 598 1037 621 q 1080 542 1080 576 q 1058 486 1080 509 q 1003 463 1036 463 q 948 486 970 463 q 926 542 926 509 m 939 548 q 996 605 956 593 l 1004 595 q 946 540 964 583 l 939 548 m 12 702 q 69 760 29 747 l 79 750 q 20 694 39 738 l 12 702 m 155 696 q 179 751 155 727 q 233 774 203 774 q 287 752 265 774 q 309 696 309 730 q 286 640 309 663 q 231 617 264 617 q 177 640 199 617 q 155 696 155 663 m 167 702 q 224 760 184 747 l 233 750 q 174 694 193 738 l 167 702 m 309 696 q 333 751 309 727 q 387 774 358 774 q 441 752 420 774 q 463 696 463 730 q 441 640 463 663 q 386 617 418 617 q 331 640 353 617 q 309 696 309 663 m 321 702 q 378 760 338 747 l 387 750 q 329 694 347 738 l 321 702 m 463 696 q 488 751 463 727 q 542 774 512 774 q 596 752 574 774 q 617 696 617 730 q 595 640 617 663 q 540 617 572 617 q 486 640 508 617 q 463 696 463 663 m 475 702 q 532 760 492 747 l 542 750 q 483 694 502 738 l 475 702 m 617 696 q 642 751 617 727 q 696 774 667 774 q 750 752 728 774 q 772 696 772 730 q 749 640 772 663 q 694 617 727 617 q 640 640 662 617 q 617 696 617 663 m 629 702 q 687 760 646 747 l 696 750 q 637 694 656 738 l 629 702 m 772 696 q 797 751 772 727 q 850 774 821 774 q 904 752 883 774 q 926 696 926 730 q 903 640 926 663 q 849 617 881 617 q 794 640 817 617 q 772 696 772 663 m 784 702 q 841 760 801 747 l 850 750 q 791 694 810 738 l 784 702 m 939 702 q 996 760 956 747 l 1004 750 q 946 694 964 738 l 939 702 m 12 857 q 69 913 29 901 l 79 904 q 20 849 39 892 l 12 857 m 155 850 q 179 905 155 881 q 233 929 203 929 q 287 907 265 929 q 309 850 309 884 q 286 795 309 818 q 231 772 264 772 q 177 795 199 772 q 155 850 155 818 m 167 857 q 224 913 184 901 l 233 904 q 174 849 193 892 l 167 857 m 321 857 q 378 913 338 901 l 387 904 q 329 849 347 892 l 321 857 m 475 857 q 532 913 492 901 l 542 904 q 483 849 502 892 l 475 857 m 629 857 q 687 913 646 901 l 696 904 q 637 849 656 892 l 629 857 m 784 857 q 841 913 801 901 l 850 904 q 791 849 810 892 l 784 857 m 939 857 q 996 913 956 901 l 1004 904 q 946 849 964 892 l 939 857 m 12 1010 q 69 1068 29 1055 l 79 1059 q 20 1003 39 1046 l 12 1010 m 155 1004 q 179 1059 155 1036 q 233 1083 203 1083 q 287 1061 265 1083 q 309 1004 309 1038 q 286 949 309 972 q 231 926 264 926 q 177 949 199 926 q 155 1004 155 972 m 167 1010 q 224 1068 184 1055 l 233 1059 q 174 1003 193 1046 l 167 1010 m 321 1010 q 378 1068 338 1055 l 387 1059 q 329 1003 347 1046 l 321 1010 m 475 1010 q 532 1068 492 1055 l 542 1059 q 483 1003 502 1046 l 475 1010 m 629 1010 q 687 1068 646 1055 l 696 1059 q 637 1003 656 1046 l 629 1010 m 784 1010 q 841 1068 801 1055 l 850 1059 q 791 1003 810 1046 l 784 1010 m 939 1010 q 996 1068 956 1055 l 1004 1059 q 946 1003 964 1046 l 939 1010 m 12 1165 q 69 1222 29 1210 l 79 1213 q 20 1158 39 1200 l 12 1165 m 155 1159 q 179 1214 155 1190 q 233 1238 203 1238 q 287 1215 265 1238 q 309 1159 309 1193 q 286 1103 309 1126 q 231 1080 264 1080 q 177 1103 199 1080 q 155 1159 155 1126 m 167 1165 q 224 1222 184 1210 l 233 1213 q 174 1158 193 1200 l 167 1165 m 321 1165 q 378 1222 338 1210 l 387 1213 q 329 1158 347 1200 l 321 1165 m 475 1165 q 532 1222 492 1210 l 542 1213 q 483 1158 502 1200 l 475 1165 m 629 1165 q 687 1222 646 1210 l 696 1213 q 637 1158 656 1200 l 629 1165 m 784 1165 q 841 1222 801 1210 l 850 1213 q 791 1158 810 1200 l 784 1165 m 939 1165 q 996 1222 956 1210 l 1004 1213 q 946 1158 964 1200 l 939 1165 m 12 1320 q 69 1377 29 1364 l 79 1367 q 20 1312 39 1355 l 12 1320 m 155 1313 q 179 1368 155 1344 q 233 1392 203 1392 q 287 1370 265 1392 q 309 1313 309 1348 q 286 1258 309 1281 q 231 1234 264 1234 q 177 1258 199 1234 q 155 1313 155 1281 m 167 1320 q 224 1377 184 1364 l 233 1367 q 174 1312 193 1355 l 167 1320 m 309 1313 q 333 1368 309 1344 q 387 1392 358 1392 q 441 1370 420 1392 q 463 1313 463 1348 q 441 1258 463 1281 q 386 1234 418 1234 q 331 1258 353 1234 q 309 1313 309 1281 m 321 1320 q 378 1377 338 1364 l 387 1367 q 329 1312 347 1355 l 321 1320 m 463 1313 q 488 1368 463 1344 q 542 1392 512 1392 q 596 1370 574 1392 q 617 1313 617 1348 q 595 1258 617 1281 q 540 1234 572 1234 q 486 1258 508 1234 q 463 1313 463 1281 m 475 1320 q 532 1377 492 1364 l 542 1367 q 483 1312 502 1355 l 475 1320 m 617 1313 q 642 1368 617 1344 q 696 1392 667 1392 q 750 1370 728 1392 q 772 1313 772 1348 q 749 1258 772 1281 q 694 1234 727 1234 q 640 1258 662 1234 q 617 1313 617 1281 m 629 1320 q 687 1377 646 1364 l 696 1367 q 637 1312 656 1355 l 629 1320 m 772 1313 q 797 1368 772 1344 q 850 1392 821 1392 q 904 1370 883 1392 q 926 1313 926 1348 q 903 1258 926 1281 q 849 1234 881 1234 q 794 1258 817 1234 q 772 1313 772 1281 m 784 1320 q 841 1377 801 1364 l 850 1367 q 791 1312 810 1355 l 784 1320 m 926 1313 q 950 1368 926 1344 q 1004 1392 975 1392 q 1059 1370 1037 1392 q 1080 1313 1080 1348 q 1058 1258 1080 1281 q 1003 1234 1036 1234 q 948 1258 970 1234 q 926 1313 926 1281 m 939 1320 q 996 1377 956 1364 l 1004 1367 q 946 1312 964 1355 l 939 1320 z "},"6":{"ha":1080,"x_min":0,"x_max":475,"o":"m 1080 0 l 1080 1472 l 0 1472 l 0 0 l 1080 0 m 12 83 q 69 140 29 128 l 79 131 q 20 76 39 119 l 12 83 m 167 83 q 224 140 184 128 l 233 131 q 174 76 193 119 l 167 83 m 309 77 q 333 132 309 108 q 387 156 358 156 q 441 134 420 156 q 463 77 463 111 q 441 22 463 45 q 386 -1 418 -1 q 331 22 353 -1 q 309 77 309 45 m 321 83 q 378 140 338 128 l 387 131 q 329 76 347 119 l 321 83 m 463 77 q 488 132 463 108 q 542 156 512 156 q 596 134 574 156 q 617 77 617 111 q 595 22 617 45 q 540 -1 572 -1 q 486 22 508 -1 q 463 77 463 45 m 475 83 q 532 140 492 128 l 542 131 q 483 76 502 119 l 475 83 m 617 77 q 642 132 617 108 q 696 156 667 156 q 750 134 728 156 q 772 77 772 111 q 749 22 772 45 q 694 -1 727 -1 q 640 22 662 -1 q 617 77 617 45 m 629 83 q 687 140 646 128 l 696 131 q 637 76 656 119 l 629 83 m 772 77 q 797 132 772 108 q 850 156 821 156 q 904 134 883 156 q 926 77 926 111 q 903 22 926 45 q 849 -1 881 -1 q 794 22 817 -1 q 772 77 772 45 m 784 83 q 841 140 801 128 l 850 131 q 791 76 810 119 l 784 83 m 939 83 q 996 140 956 128 l 1004 131 q 946 76 964 119 l 939 83 m 12 237 q 69 295 29 282 l 79 286 q 20 230 39 273 l 12 237 m 155 231 q 179 286 155 262 q 233 310 203 310 q 287 288 265 310 q 309 231 309 265 q 286 176 309 199 q 231 153 264 153 q 177 176 199 153 q 155 231 155 199 m 167 237 q 224 295 184 282 l 233 286 q 174 230 193 273 l 167 237 m 321 237 q 378 295 338 282 l 387 286 q 329 230 347 273 l 321 237 m 475 237 q 532 295 492 282 l 542 286 q 483 230 502 273 l 475 237 m 629 237 q 687 295 646 282 l 696 286 q 637 230 656 273 l 629 237 m 784 237 q 841 295 801 282 l 850 286 q 791 230 810 273 l 784 237 m 926 231 q 950 286 926 262 q 1004 310 975 310 q 1059 288 1037 310 q 1080 231 1080 265 q 1058 176 1080 199 q 1003 153 1036 153 q 948 176 970 153 q 926 231 926 199 m 939 237 q 996 295 956 282 l 1004 286 q 946 230 964 273 l 939 237 m 12 393 q 69 450 29 438 l 79 441 q 20 386 39 429 l 12 393 m 155 387 q 179 442 155 418 q 233 466 203 466 q 287 444 265 466 q 309 387 309 421 q 286 332 309 355 q 231 309 264 309 q 177 332 199 309 q 155 387 155 355 m 167 393 q 224 450 184 438 l 233 441 q 174 386 193 429 l 167 393 m 321 393 q 378 450 338 438 l 387 441 q 329 386 347 429 l 321 393 m 475 393 q 532 450 492 438 l 542 441 q 483 386 502 429 l 475 393 m 629 393 q 687 450 646 438 l 696 441 q 637 386 656 429 l 629 393 m 784 393 q 841 450 801 438 l 850 441 q 791 386 810 429 l 784 393 m 926 387 q 950 442 926 418 q 1004 466 975 466 q 1059 444 1037 466 q 1080 387 1080 421 q 1058 332 1080 355 q 1003 309 1036 309 q 948 332 970 309 q 926 387 926 355 m 939 393 q 996 450 956 438 l 1004 441 q 946 386 964 429 l 939 393 m 12 548 q 69 605 29 593 l 79 595 q 20 540 39 583 l 12 548 m 155 542 q 179 596 155 572 q 233 621 203 621 q 287 598 265 621 q 309 542 309 576 q 286 486 309 509 q 231 463 264 463 q 177 486 199 463 q 155 542 155 509 m 167 548 q 224 605 184 593 l 233 595 q 174 540 193 583 l 167 548 m 321 548 q 378 605 338 593 l 387 595 q 329 540 347 583 l 321 548 m 475 548 q 532 605 492 593 l 542 595 q 483 540 502 583 l 475 548 m 629 548 q 687 605 646 593 l 696 595 q 637 540 656 583 l 629 548 m 784 548 q 841 605 801 593 l 850 595 q 791 540 810 583 l 784 548 m 926 542 q 950 596 926 572 q 1004 621 975 621 q 1059 598 1037 621 q 1080 542 1080 576 q 1058 486 1080 509 q 1003 463 1036 463 q 948 486 970 463 q 926 542 926 509 m 939 548 q 996 605 956 593 l 1004 595 q 946 540 964 583 l 939 548 m 12 702 q 69 760 29 747 l 79 750 q 20 694 39 738 l 12 702 m 155 696 q 179 751 155 727 q 233 774 203 774 q 287 752 265 774 q 309 696 309 730 q 286 640 309 663 q 231 617 264 617 q 177 640 199 617 q 155 696 155 663 m 167 702 q 224 760 184 747 l 233 750 q 174 694 193 738 l 167 702 m 309 696 q 333 751 309 727 q 387 774 358 774 q 441 752 420 774 q 463 696 463 730 q 441 640 463 663 q 386 617 418 617 q 331 640 353 617 q 309 696 309 663 m 321 702 q 378 760 338 747 l 387 750 q 329 694 347 738 l 321 702 m 463 696 q 488 751 463 727 q 542 774 512 774 q 596 752 574 774 q 617 696 617 730 q 595 640 617 663 q 540 617 572 617 q 486 640 508 617 q 463 696 463 663 m 475 702 q 532 760 492 747 l 542 750 q 483 694 502 738 l 475 702 m 617 696 q 642 751 617 727 q 696 774 667 774 q 750 752 728 774 q 772 696 772 730 q 749 640 772 663 q 694 617 727 617 q 640 640 662 617 q 617 696 617 663 m 629 702 q 687 760 646 747 l 696 750 q 637 694 656 738 l 629 702 m 772 696 q 797 751 772 727 q 850 774 821 774 q 904 752 883 774 q 926 696 926 730 q 903 640 926 663 q 849 617 881 617 q 794 640 817 617 q 772 696 772 663 m 784 702 q 841 760 801 747 l 850 750 q 791 694 810 738 l 784 702 m 939 702 q 996 760 956 747 l 1004 750 q 946 694 964 738 l 939 702 m 12 857 q 69 913 29 901 l 79 904 q 20 849 39 892 l 12 857 m 155 850 q 179 905 155 881 q 233 929 203 929 q 287 907 265 929 q 309 850 309 884 q 286 795 309 818 q 231 772 264 772 q 177 795 199 772 q 155 850 155 818 m 167 857 q 224 913 184 901 l 233 904 q 174 849 193 892 l 167 857 m 321 857 q 378 913 338 901 l 387 904 q 329 849 347 892 l 321 857 m 475 857 q 532 913 492 901 l 542 904 q 483 849 502 892 l 475 857 m 629 857 q 687 913 646 901 l 696 904 q 637 849 656 892 l 629 857 m 784 857 q 841 913 801 901 l 850 904 q 791 849 810 892 l 784 857 m 939 857 q 996 913 956 901 l 1004 904 q 946 849 964 892 l 939 857 m 12 1010 q 69 1068 29 1055 l 79 1059 q 20 1003 39 1046 l 12 1010 m 155 1004 q 179 1059 155 1036 q 233 1083 203 1083 q 287 1061 265 1083 q 309 1004 309 1038 q 286 949 309 972 q 231 926 264 926 q 177 949 199 926 q 155 1004 155 972 m 167 1010 q 224 1068 184 1055 l 233 1059 q 174 1003 193 1046 l 167 1010 m 321 1010 q 378 1068 338 1055 l 387 1059 q 329 1003 347 1046 l 321 1010 m 475 1010 q 532 1068 492 1055 l 542 1059 q 483 1003 502 1046 l 475 1010 m 629 1010 q 687 1068 646 1055 l 696 1059 q 637 1003 656 1046 l 629 1010 m 784 1010 q 841 1068 801 1055 l 850 1059 q 791 1003 810 1046 l 784 1010 m 939 1010 q 996 1068 956 1055 l 1004 1059 q 946 1003 964 1046 l 939 1010 m 12 1165 q 69 1222 29 1210 l 79 1213 q 20 1158 39 1200 l 12 1165 m 155 1159 q 179 1214 155 1190 q 233 1238 203 1238 q 287 1215 265 1238 q 309 1159 309 1193 q 286 1103 309 1126 q 231 1080 264 1080 q 177 1103 199 1080 q 155 1159 155 1126 m 167 1165 q 224 1222 184 1210 l 233 1213 q 174 1158 193 1200 l 167 1165 m 321 1165 q 378 1222 338 1210 l 387 1213 q 329 1158 347 1200 l 321 1165 m 475 1165 q 532 1222 492 1210 l 542 1213 q 483 1158 502 1200 l 475 1165 m 629 1165 q 687 1222 646 1210 l 696 1213 q 637 1158 656 1200 l 629 1165 m 784 1165 q 841 1222 801 1210 l 850 1213 q 791 1158 810 1200 l 784 1165 m 926 1159 q 950 1214 926 1190 q 1004 1238 975 1238 q 1059 1215 1037 1238 q 1080 1159 1080 1193 q 1058 1103 1080 1126 q 1003 1080 1036 1080 q 948 1103 970 1080 q 926 1159 926 1126 m 939 1165 q 996 1222 956 1210 l 1004 1213 q 946 1158 964 1200 l 939 1165 m 12 1320 q 69 1377 29 1364 l 79 1367 q 20 1312 39 1355 l 12 1320 m 167 1320 q 224 1377 184 1364 l 233 1367 q 174 1312 193 1355 l 167 1320 m 309 1313 q 333 1368 309 1344 q 387 1392 358 1392 q 441 1370 420 1392 q 463 1313 463 1348 q 441 1258 463 1281 q 386 1234 418 1234 q 331 1258 353 1234 q 309 1313 309 1281 m 321 1320 q 378 1377 338 1364 l 387 1367 q 329 1312 347 1355 l 321 1320 m 463 1313 q 488 1368 463 1344 q 542 1392 512 1392 q 596 1370 574 1392 q 617 1313 617 1348 q 595 1258 617 1281 q 540 1234 572 1234 q 486 1258 508 1234 q 463 1313 463 1281 m 475 1320 q 532 1377 492 1364 l 542 1367 q 483 1312 502 1355 l 475 1320 m 617 1313 q 642 1368 617 1344 q 696 1392 667 1392 q 750 1370 728 1392 q 772 1313 772 1348 q 749 1258 772 1281 q 694 1234 727 1234 q 640 1258 662 1234 q 617 1313 617 1281 m 629 1320 q 687 1377 646 1364 l 696 1367 q 637 1312 656 1355 l 629 1320 m 772 1313 q 797 1368 772 1344 q 850 1392 821 1392 q 904 1370 883 1392 q 926 1313 926 1348 q 903 1258 926 1281 q 849 1234 881 1234 q 794 1258 817 1234 q 772 1313 772 1281 m 784 1320 q 841 1377 801 1364 l 850 1367 q 791 1312 810 1355 l 784 1320 m 939 1320 q 996 1377 956 1364 l 1004 1367 q 946 1312 964 1355 l 939 1320 z "},"7":{"ha":1080,"x_min":0,"x_max":475,"o":"m 1080 0 l 1080 1472 l 0 1472 l 0 0 l 1080 0 m 12 83 q 69 140 29 128 l 79 131 q 20 76 39 119 l 12 83 m 167 83 q 224 140 184 128 l 233 131 q 174 76 193 119 l 167 83 m 321 83 q 378 140 338 128 l 387 131 q 329 76 347 119 l 321 83 m 463 77 q 488 132 463 108 q 542 156 512 156 q 596 134 574 156 q 617 77 617 111 q 595 22 617 45 q 540 -1 572 -1 q 486 22 508 -1 q 463 77 463 45 m 475 83 q 532 140 492 128 l 542 131 q 483 76 502 119 l 475 83 m 629 83 q 687 140 646 128 l 696 131 q 637 76 656 119 l 629 83 m 784 83 q 841 140 801 128 l 850 131 q 791 76 810 119 l 784 83 m 939 83 q 996 140 956 128 l 1004 131 q 946 76 964 119 l 939 83 m 12 237 q 69 295 29 282 l 79 286 q 20 230 39 273 l 12 237 m 167 237 q 224 295 184 282 l 233 286 q 174 230 193 273 l 167 237 m 321 237 q 378 295 338 282 l 387 286 q 329 230 347 273 l 321 237 m 463 231 q 488 286 463 262 q 542 310 512 310 q 596 288 574 310 q 617 231 617 265 q 595 176 617 199 q 540 153 572 153 q 486 176 508 153 q 463 231 463 199 m 475 237 q 532 295 492 282 l 542 286 q 483 230 502 273 l 475 237 m 629 237 q 687 295 646 282 l 696 286 q 637 230 656 273 l 629 237 m 784 237 q 841 295 801 282 l 850 286 q 791 230 810 273 l 784 237 m 939 237 q 996 295 956 282 l 1004 286 q 946 230 964 273 l 939 237 m 12 393 q 69 450 29 438 l 79 441 q 20 386 39 429 l 12 393 m 167 393 q 224 450 184 438 l 233 441 q 174 386 193 429 l 167 393 m 321 393 q 378 450 338 438 l 387 441 q 329 386 347 429 l 321 393 m 463 387 q 488 442 463 418 q 542 466 512 466 q 596 444 574 466 q 617 387 617 421 q 595 332 617 355 q 540 309 572 309 q 486 332 508 309 q 463 387 463 355 m 475 393 q 532 450 492 438 l 542 441 q 483 386 502 429 l 475 393 m 629 393 q 687 450 646 438 l 696 441 q 637 386 656 429 l 629 393 m 784 393 q 841 450 801 438 l 850 441 q 791 386 810 429 l 784 393 m 939 393 q 996 450 956 438 l 1004 441 q 946 386 964 429 l 939 393 m 12 548 q 69 605 29 593 l 79 595 q 20 540 39 583 l 12 548 m 167 548 q 224 605 184 593 l 233 595 q 174 540 193 583 l 167 548 m 321 548 q 378 605 338 593 l 387 595 q 329 540 347 583 l 321 548 m 463 542 q 488 596 463 572 q 542 621 512 621 q 596 598 574 621 q 617 542 617 576 q 595 486 617 509 q 540 463 572 463 q 486 486 508 463 q 463 542 463 509 m 475 548 q 532 605 492 593 l 542 595 q 483 540 502 583 l 475 548 m 629 548 q 687 605 646 593 l 696 595 q 637 540 656 583 l 629 548 m 784 548 q 841 605 801 593 l 850 595 q 791 540 810 583 l 784 548 m 939 548 q 996 605 956 593 l 1004 595 q 946 540 964 583 l 939 548 m 12 702 q 69 760 29 747 l 79 750 q 20 694 39 738 l 12 702 m 167 702 q 224 760 184 747 l 233 750 q 174 694 193 738 l 167 702 m 321 702 q 378 760 338 747 l 387 750 q 329 694 347 738 l 321 702 m 475 702 q 532 760 492 747 l 542 750 q 483 694 502 738 l 475 702 m 617 696 q 642 751 617 727 q 696 774 667 774 q 750 752 728 774 q 772 696 772 730 q 749 640 772 663 q 694 617 727 617 q 640 640 662 617 q 617 696 617 663 m 629 702 q 687 760 646 747 l 696 750 q 637 694 656 738 l 629 702 m 784 702 q 841 760 801 747 l 850 750 q 791 694 810 738 l 784 702 m 939 702 q 996 760 956 747 l 1004 750 q 946 694 964 738 l 939 702 m 12 857 q 69 913 29 901 l 79 904 q 20 849 39 892 l 12 857 m 167 857 q 224 913 184 901 l 233 904 q 174 849 193 892 l 167 857 m 321 857 q 378 913 338 901 l 387 904 q 329 849 347 892 l 321 857 m 475 857 q 532 913 492 901 l 542 904 q 483 849 502 892 l 475 857 m 629 857 q 687 913 646 901 l 696 904 q 637 849 656 892 l 629 857 m 772 850 q 797 905 772 881 q 850 929 821 929 q 904 907 883 929 q 926 850 926 884 q 903 795 926 818 q 849 772 881 772 q 794 795 817 772 q 772 850 772 818 m 784 857 q 841 913 801 901 l 850 904 q 791 849 810 892 l 784 857 m 939 857 q 996 913 956 901 l 1004 904 q 946 849 964 892 l 939 857 m 12 1010 q 69 1068 29 1055 l 79 1059 q 20 1003 39 1046 l 12 1010 m 167 1010 q 224 1068 184 1055 l 233 1059 q 174 1003 193 1046 l 167 1010 m 321 1010 q 378 1068 338 1055 l 387 1059 q 329 1003 347 1046 l 321 1010 m 475 1010 q 532 1068 492 1055 l 542 1059 q 483 1003 502 1046 l 475 1010 m 629 1010 q 687 1068 646 1055 l 696 1059 q 637 1003 656 1046 l 629 1010 m 784 1010 q 841 1068 801 1055 l 850 1059 q 791 1003 810 1046 l 784 1010 m 926 1004 q 950 1059 926 1036 q 1004 1083 975 1083 q 1059 1061 1037 1083 q 1080 1004 1080 1038 q 1058 949 1080 972 q 1003 926 1036 926 q 948 949 970 926 q 926 1004 926 972 m 939 1010 q 996 1068 956 1055 l 1004 1059 q 946 1003 964 1046 l 939 1010 m 12 1165 q 69 1222 29 1210 l 79 1213 q 20 1158 39 1200 l 12 1165 m 155 1159 q 179 1214 155 1190 q 233 1238 203 1238 q 287 1215 265 1238 q 309 1159 309 1193 q 286 1103 309 1126 q 231 1080 264 1080 q 177 1103 199 1080 q 155 1159 155 1126 m 167 1165 q 224 1222 184 1210 l 233 1213 q 174 1158 193 1200 l 167 1165 m 321 1165 q 378 1222 338 1210 l 387 1213 q 329 1158 347 1200 l 321 1165 m 475 1165 q 532 1222 492 1210 l 542 1213 q 483 1158 502 1200 l 475 1165 m 629 1165 q 687 1222 646 1210 l 696 1213 q 637 1158 656 1200 l 629 1165 m 784 1165 q 841 1222 801 1210 l 850 1213 q 791 1158 810 1200 l 784 1165 m 926 1159 q 950 1214 926 1190 q 1004 1238 975 1238 q 1059 1215 1037 1238 q 1080 1159 1080 1193 q 1058 1103 1080 1126 q 1003 1080 1036 1080 q 948 1103 970 1080 q 926 1159 926 1126 m 939 1165 q 996 1222 956 1210 l 1004 1213 q 946 1158 964 1200 l 939 1165 m 12 1320 q 69 1377 29 1364 l 79 1367 q 20 1312 39 1355 l 12 1320 m 155 1313 q 179 1368 155 1344 q 233 1392 203 1392 q 287 1370 265 1392 q 309 1313 309 1348 q 286 1258 309 1281 q 231 1234 264 1234 q 177 1258 199 1234 q 155 1313 155 1281 m 167 1320 q 224 1377 184 1364 l 233 1367 q 174 1312 193 1355 l 167 1320 m 309 1313 q 333 1368 309 1344 q 387 1392 358 1392 q 441 1370 420 1392 q 463 1313 463 1348 q 441 1258 463 1281 q 386 1234 418 1234 q 331 1258 353 1234 q 309 1313 309 1281 m 321 1320 q 378 1377 338 1364 l 387 1367 q 329 1312 347 1355 l 321 1320 m 463 1313 q 488 1368 463 1344 q 542 1392 512 1392 q 596 1370 574 1392 q 617 1313 617 1348 q 595 1258 617 1281 q 540 1234 572 1234 q 486 1258 508 1234 q 463 1313 463 1281 m 475 1320 q 532 1377 492 1364 l 542 1367 q 483 1312 502 1355 l 475 1320 m 617 1313 q 642 1368 617 1344 q 696 1392 667 1392 q 750 1370 728 1392 q 772 1313 772 1348 q 749 1258 772 1281 q 694 1234 727 1234 q 640 1258 662 1234 q 617 1313 617 1281 m 629 1320 q 687 1377 646 1364 l 696 1367 q 637 1312 656 1355 l 629 1320 m 772 1313 q 797 1368 772 1344 q 850 1392 821 1392 q 904 1370 883 1392 q 926 1313 926 1348 q 903 1258 926 1281 q 849 1234 881 1234 q 794 1258 817 1234 q 772 1313 772 1281 m 784 1320 q 841 1377 801 1364 l 850 1367 q 791 1312 810 1355 l 784 1320 m 926 1313 q 950 1368 926 1344 q 1004 1392 975 1392 q 1059 1370 1037 1392 q 1080 1313 1080 1348 q 1058 1258 1080 1281 q 1003 1234 1036 1234 q 948 1258 970 1234 q 926 1313 926 1281 m 939 1320 q 996 1377 956 1364 l 1004 1367 q 946 1312 964 1355 l 939 1320 z "},"8":{"ha":1080,"x_min":0,"x_max":475,"o":"m 1080 0 l 1080 1472 l 0 1472 l 0 0 l 1080 0 m 12 83 q 69 140 29 128 l 79 131 q 20 76 39 119 l 12 83 m 167 83 q 224 140 184 128 l 233 131 q 174 76 193 119 l 167 83 m 309 77 q 333 132 309 108 q 387 156 358 156 q 441 134 420 156 q 463 77 463 111 q 441 22 463 45 q 386 -1 418 -1 q 331 22 353 -1 q 309 77 309 45 m 321 83 q 378 140 338 128 l 387 131 q 329 76 347 119 l 321 83 m 463 77 q 488 132 463 108 q 542 156 512 156 q 596 134 574 156 q 617 77 617 111 q 595 22 617 45 q 540 -1 572 -1 q 486 22 508 -1 q 463 77 463 45 m 475 83 q 532 140 492 128 l 542 131 q 483 76 502 119 l 475 83 m 617 77 q 642 132 617 108 q 696 156 667 156 q 750 134 728 156 q 772 77 772 111 q 749 22 772 45 q 694 -1 727 -1 q 640 22 662 -1 q 617 77 617 45 m 629 83 q 687 140 646 128 l 696 131 q 637 76 656 119 l 629 83 m 772 77 q 797 132 772 108 q 850 156 821 156 q 904 134 883 156 q 926 77 926 111 q 903 22 926 45 q 849 -1 881 -1 q 794 22 817 -1 q 772 77 772 45 m 784 83 q 841 140 801 128 l 850 131 q 791 76 810 119 l 784 83 m 939 83 q 996 140 956 128 l 1004 131 q 946 76 964 119 l 939 83 m 12 237 q 69 295 29 282 l 79 286 q 20 230 39 273 l 12 237 m 155 231 q 179 286 155 262 q 233 310 203 310 q 287 288 265 310 q 309 231 309 265 q 286 176 309 199 q 231 153 264 153 q 177 176 199 153 q 155 231 155 199 m 167 237 q 224 295 184 282 l 233 286 q 174 230 193 273 l 167 237 m 321 237 q 378 295 338 282 l 387 286 q 329 230 347 273 l 321 237 m 475 237 q 532 295 492 282 l 542 286 q 483 230 502 273 l 475 237 m 629 237 q 687 295 646 282 l 696 286 q 637 230 656 273 l 629 237 m 784 237 q 841 295 801 282 l 850 286 q 791 230 810 273 l 784 237 m 926 231 q 950 286 926 262 q 1004 310 975 310 q 1059 288 1037 310 q 1080 231 1080 265 q 1058 176 1080 199 q 1003 153 1036 153 q 948 176 970 153 q 926 231 926 199 m 939 237 q 996 295 956 282 l 1004 286 q 946 230 964 273 l 939 237 m 12 393 q 69 450 29 438 l 79 441 q 20 386 39 429 l 12 393 m 155 387 q 179 442 155 418 q 233 466 203 466 q 287 444 265 466 q 309 387 309 421 q 286 332 309 355 q 231 309 264 309 q 177 332 199 309 q 155 387 155 355 m 167 393 q 224 450 184 438 l 233 441 q 174 386 193 429 l 167 393 m 321 393 q 378 450 338 438 l 387 441 q 329 386 347 429 l 321 393 m 475 393 q 532 450 492 438 l 542 441 q 483 386 502 429 l 475 393 m 629 393 q 687 450 646 438 l 696 441 q 637 386 656 429 l 629 393 m 784 393 q 841 450 801 438 l 850 441 q 791 386 810 429 l 784 393 m 926 387 q 950 442 926 418 q 1004 466 975 466 q 1059 444 1037 466 q 1080 387 1080 421 q 1058 332 1080 355 q 1003 309 1036 309 q 948 332 970 309 q 926 387 926 355 m 939 393 q 996 450 956 438 l 1004 441 q 946 386 964 429 l 939 393 m 12 548 q 69 605 29 593 l 79 595 q 20 540 39 583 l 12 548 m 155 542 q 179 596 155 572 q 233 621 203 621 q 287 598 265 621 q 309 542 309 576 q 286 486 309 509 q 231 463 264 463 q 177 486 199 463 q 155 542 155 509 m 167 548 q 224 605 184 593 l 233 595 q 174 540 193 583 l 167 548 m 321 548 q 378 605 338 593 l 387 595 q 329 540 347 583 l 321 548 m 475 548 q 532 605 492 593 l 542 595 q 483 540 502 583 l 475 548 m 629 548 q 687 605 646 593 l 696 595 q 637 540 656 583 l 629 548 m 784 548 q 841 605 801 593 l 850 595 q 791 540 810 583 l 784 548 m 926 542 q 950 596 926 572 q 1004 621 975 621 q 1059 598 1037 621 q 1080 542 1080 576 q 1058 486 1080 509 q 1003 463 1036 463 q 948 486 970 463 q 926 542 926 509 m 939 548 q 996 605 956 593 l 1004 595 q 946 540 964 583 l 939 548 m 12 702 q 69 760 29 747 l 79 750 q 20 694 39 738 l 12 702 m 167 702 q 224 760 184 747 l 233 750 q 174 694 193 738 l 167 702 m 309 696 q 333 751 309 727 q 387 774 358 774 q 441 752 420 774 q 463 696 463 730 q 441 640 463 663 q 386 617 418 617 q 331 640 353 617 q 309 696 309 663 m 321 702 q 378 760 338 747 l 387 750 q 329 694 347 738 l 321 702 m 463 696 q 488 751 463 727 q 542 774 512 774 q 596 752 574 774 q 617 696 617 730 q 595 640 617 663 q 540 617 572 617 q 486 640 508 617 q 463 696 463 663 m 475 702 q 532 760 492 747 l 542 750 q 483 694 502 738 l 475 702 m 617 696 q 642 751 617 727 q 696 774 667 774 q 750 752 728 774 q 772 696 772 730 q 749 640 772 663 q 694 617 727 617 q 640 640 662 617 q 617 696 617 663 m 629 702 q 687 760 646 747 l 696 750 q 637 694 656 738 l 629 702 m 772 696 q 797 751 772 727 q 850 774 821 774 q 904 752 883 774 q 926 696 926 730 q 903 640 926 663 q 849 617 881 617 q 794 640 817 617 q 772 696 772 663 m 784 702 q 841 760 801 747 l 850 750 q 791 694 810 738 l 784 702 m 939 702 q 996 760 956 747 l 1004 750 q 946 694 964 738 l 939 702 m 12 857 q 69 913 29 901 l 79 904 q 20 849 39 892 l 12 857 m 155 850 q 179 905 155 881 q 233 929 203 929 q 287 907 265 929 q 309 850 309 884 q 286 795 309 818 q 231 772 264 772 q 177 795 199 772 q 155 850 155 818 m 167 857 q 224 913 184 901 l 233 904 q 174 849 193 892 l 167 857 m 321 857 q 378 913 338 901 l 387 904 q 329 849 347 892 l 321 857 m 475 857 q 532 913 492 901 l 542 904 q 483 849 502 892 l 475 857 m 629 857 q 687 913 646 901 l 696 904 q 637 849 656 892 l 629 857 m 784 857 q 841 913 801 901 l 850 904 q 791 849 810 892 l 784 857 m 926 850 q 950 905 926 881 q 1004 929 975 929 q 1059 907 1037 929 q 1080 850 1080 884 q 1058 795 1080 818 q 1003 772 1036 772 q 948 795 970 772 q 926 850 926 818 m 939 857 q 996 913 956 901 l 1004 904 q 946 849 964 892 l 939 857 m 12 1010 q 69 1068 29 1055 l 79 1059 q 20 1003 39 1046 l 12 1010 m 155 1004 q 179 1059 155 1036 q 233 1083 203 1083 q 287 1061 265 1083 q 309 1004 309 1038 q 286 949 309 972 q 231 926 264 926 q 177 949 199 926 q 155 1004 155 972 m 167 1010 q 224 1068 184 1055 l 233 1059 q 174 1003 193 1046 l 167 1010 m 321 1010 q 378 1068 338 1055 l 387 1059 q 329 1003 347 1046 l 321 1010 m 475 1010 q 532 1068 492 1055 l 542 1059 q 483 1003 502 1046 l 475 1010 m 629 1010 q 687 1068 646 1055 l 696 1059 q 637 1003 656 1046 l 629 1010 m 784 1010 q 841 1068 801 1055 l 850 1059 q 791 1003 810 1046 l 784 1010 m 926 1004 q 950 1059 926 1036 q 1004 1083 975 1083 q 1059 1061 1037 1083 q 1080 1004 1080 1038 q 1058 949 1080 972 q 1003 926 1036 926 q 948 949 970 926 q 926 1004 926 972 m 939 1010 q 996 1068 956 1055 l 1004 1059 q 946 1003 964 1046 l 939 1010 m 12 1165 q 69 1222 29 1210 l 79 1213 q 20 1158 39 1200 l 12 1165 m 155 1159 q 179 1214 155 1190 q 233 1238 203 1238 q 287 1215 265 1238 q 309 1159 309 1193 q 286 1103 309 1126 q 231 1080 264 1080 q 177 1103 199 1080 q 155 1159 155 1126 m 167 1165 q 224 1222 184 1210 l 233 1213 q 174 1158 193 1200 l 167 1165 m 321 1165 q 378 1222 338 1210 l 387 1213 q 329 1158 347 1200 l 321 1165 m 475 1165 q 532 1222 492 1210 l 542 1213 q 483 1158 502 1200 l 475 1165 m 629 1165 q 687 1222 646 1210 l 696 1213 q 637 1158 656 1200 l 629 1165 m 784 1165 q 841 1222 801 1210 l 850 1213 q 791 1158 810 1200 l 784 1165 m 926 1159 q 950 1214 926 1190 q 1004 1238 975 1238 q 1059 1215 1037 1238 q 1080 1159 1080 1193 q 1058 1103 1080 1126 q 1003 1080 1036 1080 q 948 1103 970 1080 q 926 1159 926 1126 m 939 1165 q 996 1222 956 1210 l 1004 1213 q 946 1158 964 1200 l 939 1165 m 12 1320 q 69 1377 29 1364 l 79 1367 q 20 1312 39 1355 l 12 1320 m 167 1320 q 224 1377 184 1364 l 233 1367 q 174 1312 193 1355 l 167 1320 m 309 1313 q 333 1368 309 1344 q 387 1392 358 1392 q 441 1370 420 1392 q 463 1313 463 1348 q 441 1258 463 1281 q 386 1234 418 1234 q 331 1258 353 1234 q 309 1313 309 1281 m 321 1320 q 378 1377 338 1364 l 387 1367 q 329 1312 347 1355 l 321 1320 m 463 1313 q 488 1368 463 1344 q 542 1392 512 1392 q 596 1370 574 1392 q 617 1313 617 1348 q 595 1258 617 1281 q 540 1234 572 1234 q 486 1258 508 1234 q 463 1313 463 1281 m 475 1320 q 532 1377 492 1364 l 542 1367 q 483 1312 502 1355 l 475 1320 m 617 1313 q 642 1368 617 1344 q 696 1392 667 1392 q 750 1370 728 1392 q 772 1313 772 1348 q 749 1258 772 1281 q 694 1234 727 1234 q 640 1258 662 1234 q 617 1313 617 1281 m 629 1320 q 687 1377 646 1364 l 696 1367 q 637 1312 656 1355 l 629 1320 m 772 1313 q 797 1368 772 1344 q 850 1392 821 1392 q 904 1370 883 1392 q 926 1313 926 1348 q 903 1258 926 1281 q 849 1234 881 1234 q 794 1258 817 1234 q 772 1313 772 1281 m 784 1320 q 841 1377 801 1364 l 850 1367 q 791 1312 810 1355 l 784 1320 m 939 1320 q 996 1377 956 1364 l 1004 1367 q 946 1312 964 1355 l 939 1320 z "},"9":{"ha":1080,"x_min":0,"x_max":475,"o":"m 1080 0 l 1080 1472 l 0 1472 l 0 0 l 1080 0 m 12 83 q 69 140 29 128 l 79 131 q 20 76 39 119 l 12 83 m 167 83 q 224 140 184 128 l 233 131 q 174 76 193 119 l 167 83 m 309 77 q 333 132 309 108 q 387 156 358 156 q 441 134 420 156 q 463 77 463 111 q 441 22 463 45 q 386 -1 418 -1 q 331 22 353 -1 q 309 77 309 45 m 321 83 q 378 140 338 128 l 387 131 q 329 76 347 119 l 321 83 m 463 77 q 488 132 463 108 q 542 156 512 156 q 596 134 574 156 q 617 77 617 111 q 595 22 617 45 q 540 -1 572 -1 q 486 22 508 -1 q 463 77 463 45 m 475 83 q 532 140 492 128 l 542 131 q 483 76 502 119 l 475 83 m 617 77 q 642 132 617 108 q 696 156 667 156 q 750 134 728 156 q 772 77 772 111 q 749 22 772 45 q 694 -1 727 -1 q 640 22 662 -1 q 617 77 617 45 m 629 83 q 687 140 646 128 l 696 131 q 637 76 656 119 l 629 83 m 772 77 q 797 132 772 108 q 850 156 821 156 q 904 134 883 156 q 926 77 926 111 q 903 22 926 45 q 849 -1 881 -1 q 794 22 817 -1 q 772 77 772 45 m 784 83 q 841 140 801 128 l 850 131 q 791 76 810 119 l 784 83 m 939 83 q 996 140 956 128 l 1004 131 q 946 76 964 119 l 939 83 m 12 237 q 69 295 29 282 l 79 286 q 20 230 39 273 l 12 237 m 167 237 q 224 295 184 282 l 233 286 q 174 230 193 273 l 167 237 m 321 237 q 378 295 338 282 l 387 286 q 329 230 347 273 l 321 237 m 475 237 q 532 295 492 282 l 542 286 q 483 230 502 273 l 475 237 m 629 237 q 687 295 646 282 l 696 286 q 637 230 656 273 l 629 237 m 784 237 q 841 295 801 282 l 850 286 q 791 230 810 273 l 784 237 m 926 231 q 950 286 926 262 q 1004 310 975 310 q 1059 288 1037 310 q 1080 231 1080 265 q 1058 176 1080 199 q 1003 153 1036 153 q 948 176 970 153 q 926 231 926 199 m 939 237 q 996 295 956 282 l 1004 286 q 946 230 964 273 l 939 237 m 12 393 q 69 450 29 438 l 79 441 q 20 386 39 429 l 12 393 m 167 393 q 224 450 184 438 l 233 441 q 174 386 193 429 l 167 393 m 321 393 q 378 450 338 438 l 387 441 q 329 386 347 429 l 321 393 m 475 393 q 532 450 492 438 l 542 441 q 483 386 502 429 l 475 393 m 629 393 q 687 450 646 438 l 696 441 q 637 386 656 429 l 629 393 m 784 393 q 841 450 801 438 l 850 441 q 791 386 810 429 l 784 393 m 926 387 q 950 442 926 418 q 1004 466 975 466 q 1059 444 1037 466 q 1080 387 1080 421 q 1058 332 1080 355 q 1003 309 1036 309 q 948 332 970 309 q 926 387 926 355 m 939 393 q 996 450 956 438 l 1004 441 q 946 386 964 429 l 939 393 m 12 548 q 69 605 29 593 l 79 595 q 20 540 39 583 l 12 548 m 167 548 q 224 605 184 593 l 233 595 q 174 540 193 583 l 167 548 m 321 548 q 378 605 338 593 l 387 595 q 329 540 347 583 l 321 548 m 475 548 q 532 605 492 593 l 542 595 q 483 540 502 583 l 475 548 m 629 548 q 687 605 646 593 l 696 595 q 637 540 656 583 l 629 548 m 784 548 q 841 605 801 593 l 850 595 q 791 540 810 583 l 784 548 m 926 542 q 950 596 926 572 q 1004 621 975 621 q 1059 598 1037 621 q 1080 542 1080 576 q 1058 486 1080 509 q 1003 463 1036 463 q 948 486 970 463 q 926 542 926 509 m 939 548 q 996 605 956 593 l 1004 595 q 946 540 964 583 l 939 548 m 12 702 q 69 760 29 747 l 79 750 q 20 694 39 738 l 12 702 m 167 702 q 224 760 184 747 l 233 750 q 174 694 193 738 l 167 702 m 309 696 q 333 751 309 727 q 387 774 358 774 q 441 752 420 774 q 463 696 463 730 q 441 640 463 663 q 386 617 418 617 q 331 640 353 617 q 309 696 309 663 m 321 702 q 378 760 338 747 l 387 750 q 329 694 347 738 l 321 702 m 463 696 q 488 751 463 727 q 542 774 512 774 q 596 752 574 774 q 617 696 617 730 q 595 640 617 663 q 540 617 572 617 q 486 640 508 617 q 463 696 463 663 m 475 702 q 532 760 492 747 l 542 750 q 483 694 502 738 l 475 702 m 617 696 q 642 751 617 727 q 696 774 667 774 q 750 752 728 774 q 772 696 772 730 q 749 640 772 663 q 694 617 727 617 q 640 640 662 617 q 617 696 617 663 m 629 702 q 687 760 646 747 l 696 750 q 637 694 656 738 l 629 702 m 772 696 q 797 751 772 727 q 850 774 821 774 q 904 752 883 774 q 926 696 926 730 q 903 640 926 663 q 849 617 881 617 q 794 640 817 617 q 772 696 772 663 m 784 702 q 841 760 801 747 l 850 750 q 791 694 810 738 l 784 702 m 926 696 q 950 751 926 727 q 1004 774 975 774 q 1059 752 1037 774 q 1080 696 1080 730 q 1058 640 1080 663 q 1003 617 1036 617 q 948 640 970 617 q 926 696 926 663 m 939 702 q 996 760 956 747 l 1004 750 q 946 694 964 738 l 939 702 m 12 857 q 69 913 29 901 l 79 904 q 20 849 39 892 l 12 857 m 155 850 q 179 905 155 881 q 233 929 203 929 q 287 907 265 929 q 309 850 309 884 q 286 795 309 818 q 231 772 264 772 q 177 795 199 772 q 155 850 155 818 m 167 857 q 224 913 184 901 l 233 904 q 174 849 193 892 l 167 857 m 321 857 q 378 913 338 901 l 387 904 q 329 849 347 892 l 321 857 m 475 857 q 532 913 492 901 l 542 904 q 483 849 502 892 l 475 857 m 629 857 q 687 913 646 901 l 696 904 q 637 849 656 892 l 629 857 m 784 857 q 841 913 801 901 l 850 904 q 791 849 810 892 l 784 857 m 926 850 q 950 905 926 881 q 1004 929 975 929 q 1059 907 1037 929 q 1080 850 1080 884 q 1058 795 1080 818 q 1003 772 1036 772 q 948 795 970 772 q 926 850 926 818 m 939 857 q 996 913 956 901 l 1004 904 q 946 849 964 892 l 939 857 m 12 1010 q 69 1068 29 1055 l 79 1059 q 20 1003 39 1046 l 12 1010 m 155 1004 q 179 1059 155 1036 q 233 1083 203 1083 q 287 1061 265 1083 q 309 1004 309 1038 q 286 949 309 972 q 231 926 264 926 q 177 949 199 926 q 155 1004 155 972 m 167 1010 q 224 1068 184 1055 l 233 1059 q 174 1003 193 1046 l 167 1010 m 321 1010 q 378 1068 338 1055 l 387 1059 q 329 1003 347 1046 l 321 1010 m 475 1010 q 532 1068 492 1055 l 542 1059 q 483 1003 502 1046 l 475 1010 m 629 1010 q 687 1068 646 1055 l 696 1059 q 637 1003 656 1046 l 629 1010 m 784 1010 q 841 1068 801 1055 l 850 1059 q 791 1003 810 1046 l 784 1010 m 926 1004 q 950 1059 926 1036 q 1004 1083 975 1083 q 1059 1061 1037 1083 q 1080 1004 1080 1038 q 1058 949 1080 972 q 1003 926 1036 926 q 948 949 970 926 q 926 1004 926 972 m 939 1010 q 996 1068 956 1055 l 1004 1059 q 946 1003 964 1046 l 939 1010 m 12 1165 q 69 1222 29 1210 l 79 1213 q 20 1158 39 1200 l 12 1165 m 155 1159 q 179 1214 155 1190 q 233 1238 203 1238 q 287 1215 265 1238 q 309 1159 309 1193 q 286 1103 309 1126 q 231 1080 264 1080 q 177 1103 199 1080 q 155 1159 155 1126 m 167 1165 q 224 1222 184 1210 l 233 1213 q 174 1158 193 1200 l 167 1165 m 321 1165 q 378 1222 338 1210 l 387 1213 q 329 1158 347 1200 l 321 1165 m 475 1165 q 532 1222 492 1210 l 542 1213 q 483 1158 502 1200 l 475 1165 m 629 1165 q 687 1222 646 1210 l 696 1213 q 637 1158 656 1200 l 629 1165 m 784 1165 q 841 1222 801 1210 l 850 1213 q 791 1158 810 1200 l 784 1165 m 926 1159 q 950 1214 926 1190 q 1004 1238 975 1238 q 1059 1215 1037 1238 q 1080 1159 1080 1193 q 1058 1103 1080 1126 q 1003 1080 1036 1080 q 948 1103 970 1080 q 926 1159 926 1126 m 939 1165 q 996 1222 956 1210 l 1004 1213 q 946 1158 964 1200 l 939 1165 m 12 1320 q 69 1377 29 1364 l 79 1367 q 20 1312 39 1355 l 12 1320 m 167 1320 q 224 1377 184 1364 l 233 1367 q 174 1312 193 1355 l 167 1320 m 309 1313 q 333 1368 309 1344 q 387 1392 358 1392 q 441 1370 420 1392 q 463 1313 463 1348 q 441 1258 463 1281 q 386 1234 418 1234 q 331 1258 353 1234 q 309 1313 309 1281 m 321 1320 q 378 1377 338 1364 l 387 1367 q 329 1312 347 1355 l 321 1320 m 463 1313 q 488 1368 463 1344 q 542 1392 512 1392 q 596 1370 574 1392 q 617 1313 617 1348 q 595 1258 617 1281 q 540 1234 572 1234 q 486 1258 508 1234 q 463 1313 463 1281 m 475 1320 q 532 1377 492 1364 l 542 1367 q 483 1312 502 1355 l 475 1320 m 617 1313 q 642 1368 617 1344 q 696 1392 667 1392 q 750 1370 728 1392 q 772 1313 772 1348 q 749 1258 772 1281 q 694 1234 727 1234 q 640 1258 662 1234 q 617 1313 617 1281 m 629 1320 q 687 1377 646 1364 l 696 1367 q 637 1312 656 1355 l 629 1320 m 772 1313 q 797 1368 772 1344 q 850 1392 821 1392 q 904 1370 883 1392 q 926 1313 926 1348 q 903 1258 926 1281 q 849 1234 881 1234 q 794 1258 817 1234 q 772 1313 772 1281 m 784 1320 q 841 1377 801 1364 l 850 1367 q 791 1312 810 1355 l 784 1320 m 939 1320 q 996 1377 956 1364 l 1004 1367 q 946 1312 964 1355 l 939 1320 z "}," ":{"ha":1080,"x_min":0,"x_max":475,"o":"m 1080 0 l 1080 1469 l 0 1469 l 0 0 l 1080 0 m 12 83 q 69 140 29 128 l 79 131 q 20 76 39 119 l 12 83 m 167 83 q 224 140 184 128 l 233 131 q 174 76 193 119 l 167 83 m 321 83 q 378 140 338 128 l 387 131 q 329 76 347 119 l 321 83 m 475 83 q 532 140 492 128 l 542 131 q 483 76 502 119 l 475 83 m 629 83 q 687 140 646 128 l 696 131 q 637 76 656 119 l 629 83 m 784 83 q 841 140 801 128 l 850 131 q 791 76 810 119 l 784 83 m 939 83 q 996 140 956 128 l 1004 131 q 946 76 964 119 l 939 83 m 12 237 q 69 295 29 282 l 79 286 q 20 230 39 273 l 12 237 m 167 237 q 224 295 184 282 l 233 286 q 174 230 193 273 l 167 237 m 321 237 q 378 295 338 282 l 387 286 q 329 230 347 273 l 321 237 m 475 237 q 532 295 492 282 l 542 286 q 483 230 502 273 l 475 237 m 629 237 q 687 295 646 282 l 696 286 q 637 230 656 273 l 629 237 m 784 237 q 841 295 801 282 l 850 286 q 791 230 810 273 l 784 237 m 939 237 q 996 295 956 282 l 1004 286 q 946 230 964 273 l 939 237 m 12 393 q 69 450 29 438 l 79 441 q 20 386 39 429 l 12 393 m 167 393 q 224 450 184 438 l 233 441 q 174 386 193 429 l 167 393 m 321 393 q 378 450 338 438 l 387 441 q 329 386 347 429 l 321 393 m 475 393 q 532 450 492 438 l 542 441 q 483 386 502 429 l 475 393 m 629 393 q 687 450 646 438 l 696 441 q 637 386 656 429 l 629 393 m 784 393 q 841 450 801 438 l 850 441 q 791 386 810 429 l 784 393 m 939 393 q 996 450 956 438 l 1004 441 q 946 386 964 429 l 939 393 m 12 548 q 69 605 29 593 l 79 595 q 20 540 39 583 l 12 548 m 167 548 q 224 605 184 593 l 233 595 q 174 540 193 583 l 167 548 m 321 548 q 378 605 338 593 l 387 595 q 329 540 347 583 l 321 548 m 475 548 q 532 605 492 593 l 542 595 q 483 540 502 583 l 475 548 m 629 548 q 687 605 646 593 l 696 595 q 637 540 656 583 l 629 548 m 784 548 q 841 605 801 593 l 850 595 q 791 540 810 583 l 784 548 m 939 548 q 996 605 956 593 l 1004 595 q 946 540 964 583 l 939 548 m 12 702 q 69 760 29 747 l 79 750 q 20 694 39 738 l 12 702 m 167 702 q 224 760 184 747 l 233 750 q 174 694 193 738 l 167 702 m 321 702 q 378 760 338 747 l 387 750 q 329 694 347 738 l 321 702 m 475 702 q 532 760 492 747 l 542 750 q 483 694 502 738 l 475 702 m 629 702 q 687 760 646 747 l 696 750 q 637 694 656 738 l 629 702 m 784 702 q 841 760 801 747 l 850 750 q 791 694 810 738 l 784 702 m 939 702 q 996 760 956 747 l 1004 750 q 946 694 964 738 l 939 702 m 12 857 q 69 913 29 901 l 79 904 q 20 849 39 892 l 12 857 m 167 857 q 224 913 184 901 l 233 904 q 174 849 193 892 l 167 857 m 321 857 q 378 913 338 901 l 387 904 q 329 849 347 892 l 321 857 m 475 857 q 532 913 492 901 l 542 904 q 483 849 502 892 l 475 857 m 629 857 q 687 913 646 901 l 696 904 q 637 849 656 892 l 629 857 m 784 857 q 841 913 801 901 l 850 904 q 791 849 810 892 l 784 857 m 939 857 q 996 913 956 901 l 1004 904 q 946 849 964 892 l 939 857 m 12 1010 q 69 1068 29 1055 l 79 1059 q 20 1003 39 1046 l 12 1010 m 167 1010 q 224 1068 184 1055 l 233 1059 q 174 1003 193 1046 l 167 1010 m 321 1010 q 378 1068 338 1055 l 387 1059 q 329 1003 347 1046 l 321 1010 m 475 1010 q 532 1068 492 1055 l 542 1059 q 483 1003 502 1046 l 475 1010 m 629 1010 q 687 1068 646 1055 l 696 1059 q 637 1003 656 1046 l 629 1010 m 784 1010 q 841 1068 801 1055 l 850 1059 q 791 1003 810 1046 l 784 1010 m 939 1010 q 996 1068 956 1055 l 1004 1059 q 946 1003 964 1046 l 939 1010 m 12 1165 q 69 1222 29 1210 l 79 1213 q 20 1158 39 1200 l 12 1165 m 167 1165 q 224 1222 184 1210 l 233 1213 q 174 1158 193 1200 l 167 1165 m 321 1165 q 378 1222 338 1210 l 387 1213 q 329 1158 347 1200 l 321 1165 m 475 1165 q 532 1222 492 1210 l 542 1213 q 483 1158 502 1200 l 475 1165 m 629 1165 q 687 1222 646 1210 l 696 1213 q 637 1158 656 1200 l 629 1165 m 784 1165 q 841 1222 801 1210 l 850 1213 q 791 1158 810 1200 l 784 1165 m 939 1165 q 996 1222 956 1210 l 1004 1213 q 946 1158 964 1200 l 939 1165 m 12 1320 q 69 1377 29 1364 l 79 1367 q 20 1312 39 1355 l 12 1320 m 167 1320 q 224 1377 184 1364 l 233 1367 q 174 1312 193 1355 l 167 1320 m 321 1320 q 378 1377 338 1364 l 387 1367 q 329 1312 347 1355 l 321 1320 m 475 1320 q 532 1377 492 1364 l 542 1367 q 483 1312 502 1355 l 475 1320 m 629 1320 q 687 1377 646 1364 l 696 1367 q 637 1312 656 1355 l 629 1320 m 784 1320 q 841 1377 801 1364 l 850 1367 q 791 1312 810 1355 l 784 1320 m 939 1320 q 996 1377 956 1364 l 1004 1367 q 946 1312 964 1355 l 939 1320 z "},"!":{"ha":1080,"x_min":0,"x_max":475,"o":"m 1080 0 l 1080 1469 l 0 1469 l 0 0 l 1080 0 m 12 83 q 69 140 29 128 l 79 131 q 20 76 39 119 l 12 83 m 167 83 q 224 140 184 128 l 233 131 q 174 76 193 119 l 167 83 m 309 77 q 333 132 309 108 q 387 156 358 156 q 441 134 420 156 q 463 77 463 111 q 441 22 463 45 q 386 -1 418 -1 q 331 22 353 -1 q 309 77 309 45 m 321 83 q 378 140 338 128 l 387 131 q 329 76 347 119 l 321 83 m 463 77 q 488 132 463 108 q 542 156 512 156 q 596 134 574 156 q 617 77 617 111 q 595 22 617 45 q 540 -1 572 -1 q 486 22 508 -1 q 463 77 463 45 m 475 83 q 532 140 492 128 l 542 131 q 483 76 502 119 l 475 83 m 629 83 q 687 140 646 128 l 696 131 q 637 76 656 119 l 629 83 m 784 83 q 841 140 801 128 l 850 131 q 791 76 810 119 l 784 83 m 939 83 q 996 140 956 128 l 1004 131 q 946 76 964 119 l 939 83 m 12 237 q 69 295 29 282 l 79 286 q 20 230 39 273 l 12 237 m 167 237 q 224 295 184 282 l 233 286 q 174 230 193 273 l 167 237 m 309 231 q 333 286 309 262 q 387 310 358 310 q 441 288 420 310 q 463 231 463 265 q 441 176 463 199 q 386 153 418 153 q 331 176 353 153 q 309 231 309 199 m 321 237 q 378 295 338 282 l 387 286 q 329 230 347 273 l 321 237 m 463 231 q 488 286 463 262 q 542 310 512 310 q 596 288 574 310 q 617 231 617 265 q 595 176 617 199 q 540 153 572 153 q 486 176 508 153 q 463 231 463 199 m 475 237 q 532 295 492 282 l 542 286 q 483 230 502 273 l 475 237 m 629 237 q 687 295 646 282 l 696 286 q 637 230 656 273 l 629 237 m 784 237 q 841 295 801 282 l 850 286 q 791 230 810 273 l 784 237 m 939 237 q 996 295 956 282 l 1004 286 q 946 230 964 273 l 939 237 m 12 393 q 69 450 29 438 l 79 441 q 20 386 39 429 l 12 393 m 167 393 q 224 450 184 438 l 233 441 q 174 386 193 429 l 167 393 m 321 393 q 378 450 338 438 l 387 441 q 329 386 347 429 l 321 393 m 475 393 q 532 450 492 438 l 542 441 q 483 386 502 429 l 475 393 m 629 393 q 687 450 646 438 l 696 441 q 637 386 656 429 l 629 393 m 784 393 q 841 450 801 438 l 850 441 q 791 386 810 429 l 784 393 m 939 393 q 996 450 956 438 l 1004 441 q 946 386 964 429 l 939 393 m 12 548 q 69 605 29 593 l 79 595 q 20 540 39 583 l 12 548 m 167 548 q 224 605 184 593 l 233 595 q 174 540 193 583 l 167 548 m 309 542 q 333 596 309 572 q 387 621 358 621 q 441 598 420 621 q 463 542 463 576 q 441 486 463 509 q 386 463 418 463 q 331 486 353 463 q 309 542 309 509 m 321 548 q 378 605 338 593 l 387 595 q 329 540 347 583 l 321 548 m 463 542 q 488 596 463 572 q 542 621 512 621 q 596 598 574 621 q 617 542 617 576 q 595 486 617 509 q 540 463 572 463 q 486 486 508 463 q 463 542 463 509 m 475 548 q 532 605 492 593 l 542 595 q 483 540 502 583 l 475 548 m 629 548 q 687 605 646 593 l 696 595 q 637 540 656 583 l 629 548 m 784 548 q 841 605 801 593 l 850 595 q 791 540 810 583 l 784 548 m 939 548 q 996 605 956 593 l 1004 595 q 946 540 964 583 l 939 548 m 12 702 q 69 760 29 747 l 79 750 q 20 694 39 738 l 12 702 m 167 702 q 224 760 184 747 l 233 750 q 174 694 193 738 l 167 702 m 309 696 q 333 751 309 727 q 387 774 358 774 q 441 752 420 774 q 463 696 463 730 q 441 640 463 663 q 386 617 418 617 q 331 640 353 617 q 309 696 309 663 m 321 702 q 378 760 338 747 l 387 750 q 329 694 347 738 l 321 702 m 463 696 q 488 751 463 727 q 542 774 512 774 q 596 752 574 774 q 617 696 617 730 q 595 640 617 663 q 540 617 572 617 q 486 640 508 617 q 463 696 463 663 m 475 702 q 532 760 492 747 l 542 750 q 483 694 502 738 l 475 702 m 617 696 q 642 751 617 727 q 696 774 667 774 q 750 752 728 774 q 772 696 772 730 q 749 640 772 663 q 694 617 727 617 q 640 640 662 617 q 617 696 617 663 m 629 702 q 687 760 646 747 l 696 750 q 637 694 656 738 l 629 702 m 784 702 q 841 760 801 747 l 850 750 q 791 694 810 738 l 784 702 m 939 702 q 996 760 956 747 l 1004 750 q 946 694 964 738 l 939 702 m 12 857 q 69 913 29 901 l 79 904 q 20 849 39 892 l 12 857 m 167 857 q 224 913 184 901 l 233 904 q 174 849 193 892 l 167 857 m 309 850 q 333 905 309 881 q 387 929 358 929 q 441 907 420 929 q 463 850 463 884 q 441 795 463 818 q 386 772 418 772 q 331 795 353 772 q 309 850 309 818 m 321 857 q 378 913 338 901 l 387 904 q 329 849 347 892 l 321 857 m 463 850 q 488 905 463 881 q 542 929 512 929 q 596 907 574 929 q 617 850 617 884 q 595 795 617 818 q 540 772 572 772 q 486 795 508 772 q 463 850 463 818 m 475 857 q 532 913 492 901 l 542 904 q 483 849 502 892 l 475 857 m 617 850 q 642 905 617 881 q 696 929 667 929 q 750 907 728 929 q 772 850 772 884 q 749 795 772 818 q 694 772 727 772 q 640 795 662 772 q 617 850 617 818 m 629 857 q 687 913 646 901 l 696 904 q 637 849 656 892 l 629 857 m 784 857 q 841 913 801 901 l 850 904 q 791 849 810 892 l 784 857 m 939 857 q 996 913 956 901 l 1004 904 q 946 849 964 892 l 939 857 m 12 1010 q 69 1068 29 1055 l 79 1059 q 20 1003 39 1046 l 12 1010 m 167 1010 q 224 1068 184 1055 l 233 1059 q 174 1003 193 1046 l 167 1010 m 309 1004 q 333 1059 309 1036 q 387 1083 358 1083 q 441 1061 420 1083 q 463 1004 463 1038 q 441 949 463 972 q 386 926 418 926 q 331 949 353 926 q 309 1004 309 972 m 321 1010 q 378 1068 338 1055 l 387 1059 q 329 1003 347 1046 l 321 1010 m 463 1004 q 488 1059 463 1036 q 542 1083 512 1083 q 596 1061 574 1083 q 617 1004 617 1038 q 595 949 617 972 q 540 926 572 926 q 486 949 508 926 q 463 1004 463 972 m 475 1010 q 532 1068 492 1055 l 542 1059 q 483 1003 502 1046 l 475 1010 m 617 1004 q 642 1059 617 1036 q 696 1083 667 1083 q 750 1061 728 1083 q 772 1004 772 1038 q 749 949 772 972 q 694 926 727 926 q 640 949 662 926 q 617 1004 617 972 m 629 1010 q 687 1068 646 1055 l 696 1059 q 637 1003 656 1046 l 629 1010 m 784 1010 q 841 1068 801 1055 l 850 1059 q 791 1003 810 1046 l 784 1010 m 939 1010 q 996 1068 956 1055 l 1004 1059 q 946 1003 964 1046 l 939 1010 m 12 1165 q 69 1222 29 1210 l 79 1213 q 20 1158 39 1200 l 12 1165 m 167 1165 q 224 1222 184 1210 l 233 1213 q 174 1158 193 1200 l 167 1165 m 309 1159 q 333 1214 309 1190 q 387 1238 358 1238 q 441 1215 420 1238 q 463 1159 463 1193 q 441 1103 463 1126 q 386 1080 418 1080 q 331 1103 353 1080 q 309 1159 309 1126 m 321 1165 q 378 1222 338 1210 l 387 1213 q 329 1158 347 1200 l 321 1165 m 463 1159 q 488 1214 463 1190 q 542 1238 512 1238 q 596 1215 574 1238 q 617 1159 617 1193 q 595 1103 617 1126 q 540 1080 572 1080 q 486 1103 508 1080 q 463 1159 463 1126 m 475 1165 q 532 1222 492 1210 l 542 1213 q 483 1158 502 1200 l 475 1165 m 617 1159 q 642 1214 617 1190 q 696 1238 667 1238 q 750 1215 728 1238 q 772 1159 772 1193 q 749 1103 772 1126 q 694 1080 727 1080 q 640 1103 662 1080 q 617 1159 617 1126 m 629 1165 q 687 1222 646 1210 l 696 1213 q 637 1158 656 1200 l 629 1165 m 784 1165 q 841 1222 801 1210 l 850 1213 q 791 1158 810 1200 l 784 1165 m 939 1165 q 996 1222 956 1210 l 1004 1213 q 946 1158 964 1200 l 939 1165 m 12 1320 q 69 1377 29 1364 l 79 1367 q 20 1312 39 1355 l 12 1320 m 167 1320 q 224 1377 184 1364 l 233 1367 q 174 1312 193 1355 l 167 1320 m 309 1313 q 333 1368 309 1344 q 387 1392 358 1392 q 441 1370 420 1392 q 463 1313 463 1348 q 441 1258 463 1281 q 386 1234 418 1234 q 331 1258 353 1234 q 309 1313 309 1281 m 321 1320 q 378 1377 338 1364 l 387 1367 q 329 1312 347 1355 l 321 1320 m 463 1313 q 488 1368 463 1344 q 542 1392 512 1392 q 596 1370 574 1392 q 617 1313 617 1348 q 595 1258 617 1281 q 540 1234 572 1234 q 486 1258 508 1234 q 463 1313 463 1281 m 475 1320 q 532 1377 492 1364 l 542 1367 q 483 1312 502 1355 l 475 1320 m 617 1313 q 642 1368 617 1344 q 696 1392 667 1392 q 750 1370 728 1392 q 772 1313 772 1348 q 749 1258 772 1281 q 694 1234 727 1234 q 640 1258 662 1234 q 617 1313 617 1281 m 629 1320 q 687 1377 646 1364 l 696 1367 q 637 1312 656 1355 l 629 1320 m 784 1320 q 841 1377 801 1364 l 850 1367 q 791 1312 810 1355 l 784 1320 m 939 1320 q 996 1377 956 1364 l 1004 1367 q 946 1312 964 1355 l 939 1320 z "},"\"":{"ha":1080,"x_min":0,"x_max":475,"o":"m 1080 0 l 1080 1468 l 0 1468 l 0 0 l 1080 0 m 12 83 q 69 140 29 128 l 79 131 q 20 76 39 119 l 12 83 m 167 83 q 224 140 184 128 l 233 131 q 174 76 193 119 l 167 83 m 321 83 q 378 140 338 128 l 387 131 q 329 76 347 119 l 321 83 m 475 83 q 532 140 492 128 l 542 131 q 483 76 502 119 l 475 83 m 629 83 q 687 140 646 128 l 696 131 q 637 76 656 119 l 629 83 m 784 83 q 841 140 801 128 l 850 131 q 791 76 810 119 l 784 83 m 939 83 q 996 140 956 128 l 1004 131 q 946 76 964 119 l 939 83 m 12 237 q 69 295 29 282 l 79 286 q 20 230 39 273 l 12 237 m 167 237 q 224 295 184 282 l 233 286 q 174 230 193 273 l 167 237 m 321 237 q 378 295 338 282 l 387 286 q 329 230 347 273 l 321 237 m 475 237 q 532 295 492 282 l 542 286 q 483 230 502 273 l 475 237 m 629 237 q 687 295 646 282 l 696 286 q 637 230 656 273 l 629 237 m 784 237 q 841 295 801 282 l 850 286 q 791 230 810 273 l 784 237 m 939 237 q 996 295 956 282 l 1004 286 q 946 230 964 273 l 939 237 m 12 393 q 69 450 29 438 l 79 441 q 20 386 39 429 l 12 393 m 167 393 q 224 450 184 438 l 233 441 q 174 386 193 429 l 167 393 m 321 393 q 378 450 338 438 l 387 441 q 329 386 347 429 l 321 393 m 475 393 q 532 450 492 438 l 542 441 q 483 386 502 429 l 475 393 m 629 393 q 687 450 646 438 l 696 441 q 637 386 656 429 l 629 393 m 784 393 q 841 450 801 438 l 850 441 q 791 386 810 429 l 784 393 m 939 393 q 996 450 956 438 l 1004 441 q 946 386 964 429 l 939 393 m 12 548 q 69 605 29 593 l 79 595 q 20 540 39 583 l 12 548 m 167 548 q 224 605 184 593 l 233 595 q 174 540 193 583 l 167 548 m 321 548 q 378 605 338 593 l 387 595 q 329 540 347 583 l 321 548 m 475 548 q 532 605 492 593 l 542 595 q 483 540 502 583 l 475 548 m 629 548 q 687 605 646 593 l 696 595 q 637 540 656 583 l 629 548 m 784 548 q 841 605 801 593 l 850 595 q 791 540 810 583 l 784 548 m 939 548 q 996 605 956 593 l 1004 595 q 946 540 964 583 l 939 548 m 12 702 q 69 760 29 747 l 79 750 q 20 694 39 738 l 12 702 m 167 702 q 224 760 184 747 l 233 750 q 174 694 193 738 l 167 702 m 321 702 q 378 760 338 747 l 387 750 q 329 694 347 738 l 321 702 m 475 702 q 532 760 492 747 l 542 750 q 483 694 502 738 l 475 702 m 629 702 q 687 760 646 747 l 696 750 q 637 694 656 738 l 629 702 m 784 702 q 841 760 801 747 l 850 750 q 791 694 810 738 l 784 702 m 939 702 q 996 760 956 747 l 1004 750 q 946 694 964 738 l 939 702 m 12 857 q 69 913 29 901 l 79 904 q 20 849 39 892 l 12 857 m 167 857 q 224 913 184 901 l 233 904 q 174 849 193 892 l 167 857 m 309 850 q 333 905 309 881 q 387 929 358 929 q 441 907 420 929 q 463 850 463 884 q 441 795 463 818 q 386 772 418 772 q 331 795 353 772 q 309 850 309 818 m 321 857 q 378 913 338 901 l 387 904 q 329 849 347 892 l 321 857 m 475 857 q 532 913 492 901 l 542 904 q 483 849 502 892 l 475 857 m 617 850 q 642 905 617 881 q 696 929 667 929 q 750 907 728 929 q 772 850 772 884 q 749 795 772 818 q 694 772 727 772 q 640 795 662 772 q 617 850 617 818 m 629 857 q 687 913 646 901 l 696 904 q 637 849 656 892 l 629 857 m 784 857 q 841 913 801 901 l 850 904 q 791 849 810 892 l 784 857 m 939 857 q 996 913 956 901 l 1004 904 q 946 849 964 892 l 939 857 m 12 1010 q 69 1068 29 1055 l 79 1059 q 20 1003 39 1046 l 12 1010 m 167 1010 q 224 1068 184 1055 l 233 1059 q 174 1003 193 1046 l 167 1010 m 309 1004 q 333 1059 309 1036 q 387 1083 358 1083 q 441 1061 420 1083 q 463 1004 463 1038 q 441 949 463 972 q 386 926 418 926 q 331 949 353 926 q 309 1004 309 972 m 321 1010 q 378 1068 338 1055 l 387 1059 q 329 1003 347 1046 l 321 1010 m 475 1010 q 532 1068 492 1055 l 542 1059 q 483 1003 502 1046 l 475 1010 m 617 1004 q 642 1059 617 1036 q 696 1083 667 1083 q 750 1061 728 1083 q 772 1004 772 1038 q 749 949 772 972 q 694 926 727 926 q 640 949 662 926 q 617 1004 617 972 m 629 1010 q 687 1068 646 1055 l 696 1059 q 637 1003 656 1046 l 629 1010 m 784 1010 q 841 1068 801 1055 l 850 1059 q 791 1003 810 1046 l 784 1010 m 939 1010 q 996 1068 956 1055 l 1004 1059 q 946 1003 964 1046 l 939 1010 m 12 1165 q 69 1222 29 1210 l 79 1213 q 20 1158 39 1200 l 12 1165 m 167 1165 q 224 1222 184 1210 l 233 1213 q 174 1158 193 1200 l 167 1165 m 309 1159 q 333 1214 309 1190 q 387 1238 358 1238 q 441 1215 420 1238 q 463 1159 463 1193 q 441 1103 463 1126 q 386 1080 418 1080 q 331 1103 353 1080 q 309 1159 309 1126 m 321 1165 q 378 1222 338 1210 l 387 1213 q 329 1158 347 1200 l 321 1165 m 475 1165 q 532 1222 492 1210 l 542 1213 q 483 1158 502 1200 l 475 1165 m 617 1159 q 642 1214 617 1190 q 696 1238 667 1238 q 750 1215 728 1238 q 772 1159 772 1193 q 749 1103 772 1126 q 694 1080 727 1080 q 640 1103 662 1080 q 617 1159 617 1126 m 629 1165 q 687 1222 646 1210 l 696 1213 q 637 1158 656 1200 l 629 1165 m 784 1165 q 841 1222 801 1210 l 850 1213 q 791 1158 810 1200 l 784 1165 m 939 1165 q 996 1222 956 1210 l 1004 1213 q 946 1158 964 1200 l 939 1165 m 12 1320 q 69 1377 29 1364 l 79 1367 q 20 1312 39 1355 l 12 1320 m 167 1320 q 224 1377 184 1364 l 233 1367 q 174 1312 193 1355 l 167 1320 m 309 1313 q 333 1368 309 1344 q 387 1392 358 1392 q 441 1370 420 1392 q 463 1313 463 1348 q 441 1258 463 1281 q 386 1234 418 1234 q 331 1258 353 1234 q 309 1313 309 1281 m 321 1320 q 378 1377 338 1364 l 387 1367 q 329 1312 347 1355 l 321 1320 m 475 1320 q 532 1377 492 1364 l 542 1367 q 483 1312 502 1355 l 475 1320 m 617 1313 q 642 1368 617 1344 q 696 1392 667 1392 q 750 1370 728 1392 q 772 1313 772 1348 q 749 1258 772 1281 q 694 1234 727 1234 q 640 1258 662 1234 q 617 1313 617 1281 m 629 1320 q 687 1377 646 1364 l 696 1367 q 637 1312 656 1355 l 629 1320 m 784 1320 q 841 1377 801 1364 l 850 1367 q 791 1312 810 1355 l 784 1320 m 939 1320 q 996 1377 956 1364 l 1004 1367 q 946 1312 964 1355 l 939 1320 z "},"#":{"ha":1080,"x_min":0,"x_max":475,"o":"m 1080 0 l 1080 1477 l 0 1477 l 0 0 l 1080 0 m 12 83 q 69 140 29 128 l 79 131 q 20 76 39 119 l 12 83 m 167 83 q 224 140 184 128 l 233 131 q 174 76 193 119 l 167 83 m 321 83 q 378 140 338 128 l 387 131 q 329 76 347 119 l 321 83 m 475 83 q 532 140 492 128 l 542 131 q 483 76 502 119 l 475 83 m 629 83 q 687 140 646 128 l 696 131 q 637 76 656 119 l 629 83 m 784 83 q 841 140 801 128 l 850 131 q 791 76 810 119 l 784 83 m 939 83 q 996 140 956 128 l 1004 131 q 946 76 964 119 l 939 83 m 12 237 q 69 295 29 282 l 79 286 q 20 230 39 273 l 12 237 m 167 237 q 224 295 184 282 l 233 286 q 174 230 193 273 l 167 237 m 309 231 q 333 286 309 262 q 387 310 358 310 q 441 288 420 310 q 463 231 463 265 q 441 176 463 199 q 386 153 418 153 q 331 176 353 153 q 309 231 309 199 m 321 237 q 378 295 338 282 l 387 286 q 329 230 347 273 l 321 237 m 475 237 q 532 295 492 282 l 542 286 q 483 230 502 273 l 475 237 m 629 237 q 687 295 646 282 l 696 286 q 637 230 656 273 l 629 237 m 772 231 q 797 286 772 262 q 850 310 821 310 q 904 288 883 310 q 926 231 926 265 q 903 176 926 199 q 849 153 881 153 q 794 176 817 153 q 772 231 772 199 m 784 237 q 841 295 801 282 l 850 286 q 791 230 810 273 l 784 237 m 939 237 q 996 295 956 282 l 1004 286 q 946 230 964 273 l 939 237 m 12 393 q 69 450 29 438 l 79 441 q 20 386 39 429 l 12 393 m 167 393 q 224 450 184 438 l 233 441 q 174 386 193 429 l 167 393 m 309 387 q 333 442 309 418 q 387 466 358 466 q 441 444 420 466 q 463 387 463 421 q 441 332 463 355 q 386 309 418 309 q 331 332 353 309 q 309 387 309 355 m 321 393 q 378 450 338 438 l 387 441 q 329 386 347 429 l 321 393 m 475 393 q 532 450 492 438 l 542 441 q 483 386 502 429 l 475 393 m 629 393 q 687 450 646 438 l 696 441 q 637 386 656 429 l 629 393 m 772 387 q 797 442 772 418 q 850 466 821 466 q 904 444 883 466 q 926 387 926 421 q 903 332 926 355 q 849 309 881 309 q 794 332 817 309 q 772 387 772 355 m 784 393 q 841 450 801 438 l 850 441 q 791 386 810 429 l 784 393 m 939 393 q 996 450 956 438 l 1004 441 q 946 386 964 429 l 939 393 m 12 548 q 69 605 29 593 l 79 595 q 20 540 39 583 l 12 548 m 155 542 q 179 596 155 572 q 233 621 203 621 q 287 598 265 621 q 309 542 309 576 q 286 486 309 509 q 231 463 264 463 q 177 486 199 463 q 155 542 155 509 m 167 548 q 224 605 184 593 l 233 595 q 174 540 193 583 l 167 548 m 309 542 q 333 596 309 572 q 387 621 358 621 q 441 598 420 621 q 463 542 463 576 q 441 486 463 509 q 386 463 418 463 q 331 486 353 463 q 309 542 309 509 m 321 548 q 378 605 338 593 l 387 595 q 329 540 347 583 l 321 548 m 463 542 q 488 596 463 572 q 542 621 512 621 q 596 598 574 621 q 617 542 617 576 q 595 486 617 509 q 540 463 572 463 q 486 486 508 463 q 463 542 463 509 m 475 548 q 532 605 492 593 l 542 595 q 483 540 502 583 l 475 548 m 617 542 q 642 596 617 572 q 696 621 667 621 q 750 598 728 621 q 772 542 772 576 q 749 486 772 509 q 694 463 727 463 q 640 486 662 463 q 617 542 617 509 m 629 548 q 687 605 646 593 l 696 595 q 637 540 656 583 l 629 548 m 772 542 q 797 596 772 572 q 850 621 821 621 q 904 598 883 621 q 926 542 926 576 q 903 486 926 509 q 849 463 881 463 q 794 486 817 463 q 772 542 772 509 m 784 548 q 841 605 801 593 l 850 595 q 791 540 810 583 l 784 548 m 926 542 q 950 596 926 572 q 1004 621 975 621 q 1059 598 1037 621 q 1080 542 1080 576 q 1058 486 1080 509 q 1003 463 1036 463 q 948 486 970 463 q 926 542 926 509 m 939 548 q 996 605 956 593 l 1004 595 q 946 540 964 583 l 939 548 m 12 702 q 69 760 29 747 l 79 750 q 20 694 39 738 l 12 702 m 167 702 q 224 760 184 747 l 233 750 q 174 694 193 738 l 167 702 m 309 696 q 333 751 309 727 q 387 774 358 774 q 441 752 420 774 q 463 696 463 730 q 441 640 463 663 q 386 617 418 617 q 331 640 353 617 q 309 696 309 663 m 321 702 q 378 760 338 747 l 387 750 q 329 694 347 738 l 321 702 m 475 702 q 532 760 492 747 l 542 750 q 483 694 502 738 l 475 702 m 629 702 q 687 760 646 747 l 696 750 q 637 694 656 738 l 629 702 m 772 696 q 797 751 772 727 q 850 774 821 774 q 904 752 883 774 q 926 696 926 730 q 903 640 926 663 q 849 617 881 617 q 794 640 817 617 q 772 696 772 663 m 784 702 q 841 760 801 747 l 850 750 q 791 694 810 738 l 784 702 m 939 702 q 996 760 956 747 l 1004 750 q 946 694 964 738 l 939 702 m 12 857 q 69 913 29 901 l 79 904 q 20 849 39 892 l 12 857 m 167 857 q 224 913 184 901 l 233 904 q 174 849 193 892 l 167 857 m 309 850 q 333 905 309 881 q 387 929 358 929 q 441 907 420 929 q 463 850 463 884 q 441 795 463 818 q 386 772 418 772 q 331 795 353 772 q 309 850 309 818 m 321 857 q 378 913 338 901 l 387 904 q 329 849 347 892 l 321 857 m 475 857 q 532 913 492 901 l 542 904 q 483 849 502 892 l 475 857 m 629 857 q 687 913 646 901 l 696 904 q 637 849 656 892 l 629 857 m 772 850 q 797 905 772 881 q 850 929 821 929 q 904 907 883 929 q 926 850 926 884 q 903 795 926 818 q 849 772 881 772 q 794 795 817 772 q 772 850 772 818 m 784 857 q 841 913 801 901 l 850 904 q 791 849 810 892 l 784 857 m 939 857 q 996 913 956 901 l 1004 904 q 946 849 964 892 l 939 857 m 12 1010 q 69 1068 29 1055 l 79 1059 q 20 1003 39 1046 l 12 1010 m 155 1004 q 179 1059 155 1036 q 233 1083 203 1083 q 287 1061 265 1083 q 309 1004 309 1038 q 286 949 309 972 q 231 926 264 926 q 177 949 199 926 q 155 1004 155 972 m 167 1010 q 224 1068 184 1055 l 233 1059 q 174 1003 193 1046 l 167 1010 m 309 1004 q 333 1059 309 1036 q 387 1083 358 1083 q 441 1061 420 1083 q 463 1004 463 1038 q 441 949 463 972 q 386 926 418 926 q 331 949 353 926 q 309 1004 309 972 m 321 1010 q 378 1068 338 1055 l 387 1059 q 329 1003 347 1046 l 321 1010 m 463 1004 q 488 1059 463 1036 q 542 1083 512 1083 q 596 1061 574 1083 q 617 1004 617 1038 q 595 949 617 972 q 540 926 572 926 q 486 949 508 926 q 463 1004 463 972 m 475 1010 q 532 1068 492 1055 l 542 1059 q 483 1003 502 1046 l 475 1010 m 617 1004 q 642 1059 617 1036 q 696 1083 667 1083 q 750 1061 728 1083 q 772 1004 772 1038 q 749 949 772 972 q 694 926 727 926 q 640 949 662 926 q 617 1004 617 972 m 629 1010 q 687 1068 646 1055 l 696 1059 q 637 1003 656 1046 l 629 1010 m 772 1004 q 797 1059 772 1036 q 850 1083 821 1083 q 904 1061 883 1083 q 926 1004 926 1038 q 903 949 926 972 q 849 926 881 926 q 794 949 817 926 q 772 1004 772 972 m 784 1010 q 841 1068 801 1055 l 850 1059 q 791 1003 810 1046 l 784 1010 m 926 1004 q 950 1059 926 1036 q 1004 1083 975 1083 q 1059 1061 1037 1083 q 1080 1004 1080 1038 q 1058 949 1080 972 q 1003 926 1036 926 q 948 949 970 926 q 926 1004 926 972 m 939 1010 q 996 1068 956 1055 l 1004 1059 q 946 1003 964 1046 l 939 1010 m 12 1165 q 69 1222 29 1210 l 79 1213 q 20 1158 39 1200 l 12 1165 m 167 1165 q 224 1222 184 1210 l 233 1213 q 174 1158 193 1200 l 167 1165 m 309 1159 q 333 1214 309 1190 q 387 1238 358 1238 q 441 1215 420 1238 q 463 1159 463 1193 q 441 1103 463 1126 q 386 1080 418 1080 q 331 1103 353 1080 q 309 1159 309 1126 m 321 1165 q 378 1222 338 1210 l 387 1213 q 329 1158 347 1200 l 321 1165 m 475 1165 q 532 1222 492 1210 l 542 1213 q 483 1158 502 1200 l 475 1165 m 629 1165 q 687 1222 646 1210 l 696 1213 q 637 1158 656 1200 l 629 1165 m 772 1159 q 797 1214 772 1190 q 850 1238 821 1238 q 904 1215 883 1238 q 926 1159 926 1193 q 903 1103 926 1126 q 849 1080 881 1080 q 794 1103 817 1080 q 772 1159 772 1126 m 784 1165 q 841 1222 801 1210 l 850 1213 q 791 1158 810 1200 l 784 1165 m 939 1165 q 996 1222 956 1210 l 1004 1213 q 946 1158 964 1200 l 939 1165 m 12 1320 q 69 1377 29 1364 l 79 1367 q 20 1312 39 1355 l 12 1320 m 167 1320 q 224 1377 184 1364 l 233 1367 q 174 1312 193 1355 l 167 1320 m 309 1313 q 333 1368 309 1344 q 387 1392 358 1392 q 441 1370 420 1392 q 463 1313 463 1348 q 441 1258 463 1281 q 386 1234 418 1234 q 331 1258 353 1234 q 309 1313 309 1281 m 321 1320 q 378 1377 338 1364 l 387 1367 q 329 1312 347 1355 l 321 1320 m 475 1320 q 532 1377 492 1364 l 542 1367 q 483 1312 502 1355 l 475 1320 m 629 1320 q 687 1377 646 1364 l 696 1367 q 637 1312 656 1355 l 629 1320 m 772 1313 q 797 1368 772 1344 q 850 1392 821 1392 q 904 1370 883 1392 q 926 1313 926 1348 q 903 1258 926 1281 q 849 1234 881 1234 q 794 1258 817 1234 q 772 1313 772 1281 m 784 1320 q 841 1377 801 1364 l 850 1367 q 791 1312 810 1355 l 784 1320 m 939 1320 q 996 1377 956 1364 l 1004 1367 q 946 1312 964 1355 l 939 1320 z "},"$":{"ha":1080,"x_min":0,"x_max":475,"o":"m 1080 0 l 1080 1472 l 0 1472 l 0 0 l 1080 0 m 12 83 q 69 140 29 128 l 79 131 q 20 76 39 119 l 12 83 m 167 83 q 224 140 184 128 l 233 131 q 174 76 193 119 l 167 83 m 321 83 q 378 140 338 128 l 387 131 q 329 76 347 119 l 321 83 m 463 77 q 488 132 463 108 q 542 156 512 156 q 596 134 574 156 q 617 77 617 111 q 595 22 617 45 q 540 -1 572 -1 q 486 22 508 -1 q 463 77 463 45 m 475 83 q 532 140 492 128 l 542 131 q 483 76 502 119 l 475 83 m 629 83 q 687 140 646 128 l 696 131 q 637 76 656 119 l 629 83 m 784 83 q 841 140 801 128 l 850 131 q 791 76 810 119 l 784 83 m 939 83 q 996 140 956 128 l 1004 131 q 946 76 964 119 l 939 83 m 12 237 q 69 295 29 282 l 79 286 q 20 230 39 273 l 12 237 m 167 237 q 224 295 184 282 l 233 286 q 174 230 193 273 l 167 237 m 309 231 q 333 286 309 262 q 387 310 358 310 q 441 288 420 310 q 463 231 463 265 q 441 176 463 199 q 386 153 418 153 q 331 176 353 153 q 309 231 309 199 m 321 237 q 378 295 338 282 l 387 286 q 329 230 347 273 l 321 237 m 463 231 q 488 286 463 262 q 542 310 512 310 q 596 288 574 310 q 617 231 617 265 q 595 176 617 199 q 540 153 572 153 q 486 176 508 153 q 463 231 463 199 m 475 237 q 532 295 492 282 l 542 286 q 483 230 502 273 l 475 237 m 617 231 q 642 286 617 262 q 696 310 667 310 q 750 288 728 310 q 772 231 772 265 q 749 176 772 199 q 694 153 727 153 q 640 176 662 153 q 617 231 617 199 m 629 237 q 687 295 646 282 l 696 286 q 637 230 656 273 l 629 237 m 784 237 q 841 295 801 282 l 850 286 q 791 230 810 273 l 784 237 m 939 237 q 996 295 956 282 l 1004 286 q 946 230 964 273 l 939 237 m 12 393 q 69 450 29 438 l 79 441 q 20 386 39 429 l 12 393 m 155 387 q 179 442 155 418 q 233 466 203 466 q 287 444 265 466 q 309 387 309 421 q 286 332 309 355 q 231 309 264 309 q 177 332 199 309 q 155 387 155 355 m 167 393 q 224 450 184 438 l 233 441 q 174 386 193 429 l 167 393 m 321 393 q 378 450 338 438 l 387 441 q 329 386 347 429 l 321 393 m 463 387 q 488 442 463 418 q 542 466 512 466 q 596 444 574 466 q 617 387 617 421 q 595 332 617 355 q 540 309 572 309 q 486 332 508 309 q 463 387 463 355 m 475 393 q 532 450 492 438 l 542 441 q 483 386 502 429 l 475 393 m 629 393 q 687 450 646 438 l 696 441 q 637 386 656 429 l 629 393 m 772 387 q 797 442 772 418 q 850 466 821 466 q 904 444 883 466 q 926 387 926 421 q 903 332 926 355 q 849 309 881 309 q 794 332 817 309 q 772 387 772 355 m 784 393 q 841 450 801 438 l 850 441 q 791 386 810 429 l 784 393 m 939 393 q 996 450 956 438 l 1004 441 q 946 386 964 429 l 939 393 m 12 548 q 69 605 29 593 l 79 595 q 20 540 39 583 l 12 548 m 167 548 q 224 605 184 593 l 233 595 q 174 540 193 583 l 167 548 m 321 548 q 378 605 338 593 l 387 595 q 329 540 347 583 l 321 548 m 463 542 q 488 596 463 572 q 542 621 512 621 q 596 598 574 621 q 617 542 617 576 q 595 486 617 509 q 540 463 572 463 q 486 486 508 463 q 463 542 463 509 m 475 548 q 532 605 492 593 l 542 595 q 483 540 502 583 l 475 548 m 629 548 q 687 605 646 593 l 696 595 q 637 540 656 583 l 629 548 m 772 542 q 797 596 772 572 q 850 621 821 621 q 904 598 883 621 q 926 542 926 576 q 903 486 926 509 q 849 463 881 463 q 794 486 817 463 q 772 542 772 509 m 784 548 q 841 605 801 593 l 850 595 q 791 540 810 583 l 784 548 m 939 548 q 996 605 956 593 l 1004 595 q 946 540 964 583 l 939 548 m 12 702 q 69 760 29 747 l 79 750 q 20 694 39 738 l 12 702 m 167 702 q 224 760 184 747 l 233 750 q 174 694 193 738 l 167 702 m 309 696 q 333 751 309 727 q 387 774 358 774 q 441 752 420 774 q 463 696 463 730 q 441 640 463 663 q 386 617 418 617 q 331 640 353 617 q 309 696 309 663 m 321 702 q 378 760 338 747 l 387 750 q 329 694 347 738 l 321 702 m 463 696 q 488 751 463 727 q 542 774 512 774 q 596 752 574 774 q 617 696 617 730 q 595 640 617 663 q 540 617 572 617 q 486 640 508 617 q 463 696 463 663 m 475 702 q 532 760 492 747 l 542 750 q 483 694 502 738 l 475 702 m 617 696 q 642 751 617 727 q 696 774 667 774 q 750 752 728 774 q 772 696 772 730 q 749 640 772 663 q 694 617 727 617 q 640 640 662 617 q 617 696 617 663 m 629 702 q 687 760 646 747 l 696 750 q 637 694 656 738 l 629 702 m 784 702 q 841 760 801 747 l 850 750 q 791 694 810 738 l 784 702 m 939 702 q 996 760 956 747 l 1004 750 q 946 694 964 738 l 939 702 m 12 857 q 69 913 29 901 l 79 904 q 20 849 39 892 l 12 857 m 155 850 q 179 905 155 881 q 233 929 203 929 q 287 907 265 929 q 309 850 309 884 q 286 795 309 818 q 231 772 264 772 q 177 795 199 772 q 155 850 155 818 m 167 857 q 224 913 184 901 l 233 904 q 174 849 193 892 l 167 857 m 321 857 q 378 913 338 901 l 387 904 q 329 849 347 892 l 321 857 m 463 850 q 488 905 463 881 q 542 929 512 929 q 596 907 574 929 q 617 850 617 884 q 595 795 617 818 q 540 772 572 772 q 486 795 508 772 q 463 850 463 818 m 475 857 q 532 913 492 901 l 542 904 q 483 849 502 892 l 475 857 m 629 857 q 687 913 646 901 l 696 904 q 637 849 656 892 l 629 857 m 784 857 q 841 913 801 901 l 850 904 q 791 849 810 892 l 784 857 m 939 857 q 996 913 956 901 l 1004 904 q 946 849 964 892 l 939 857 m 12 1010 q 69 1068 29 1055 l 79 1059 q 20 1003 39 1046 l 12 1010 m 155 1004 q 179 1059 155 1036 q 233 1083 203 1083 q 287 1061 265 1083 q 309 1004 309 1038 q 286 949 309 972 q 231 926 264 926 q 177 949 199 926 q 155 1004 155 972 m 167 1010 q 224 1068 184 1055 l 233 1059 q 174 1003 193 1046 l 167 1010 m 321 1010 q 378 1068 338 1055 l 387 1059 q 329 1003 347 1046 l 321 1010 m 463 1004 q 488 1059 463 1036 q 542 1083 512 1083 q 596 1061 574 1083 q 617 1004 617 1038 q 595 949 617 972 q 540 926 572 926 q 486 949 508 926 q 463 1004 463 972 m 475 1010 q 532 1068 492 1055 l 542 1059 q 483 1003 502 1046 l 475 1010 m 629 1010 q 687 1068 646 1055 l 696 1059 q 637 1003 656 1046 l 629 1010 m 772 1004 q 797 1059 772 1036 q 850 1083 821 1083 q 904 1061 883 1083 q 926 1004 926 1038 q 903 949 926 972 q 849 926 881 926 q 794 949 817 926 q 772 1004 772 972 m 784 1010 q 841 1068 801 1055 l 850 1059 q 791 1003 810 1046 l 784 1010 m 939 1010 q 996 1068 956 1055 l 1004 1059 q 946 1003 964 1046 l 939 1010 m 12 1165 q 69 1222 29 1210 l 79 1213 q 20 1158 39 1200 l 12 1165 m 167 1165 q 224 1222 184 1210 l 233 1213 q 174 1158 193 1200 l 167 1165 m 309 1159 q 333 1214 309 1190 q 387 1238 358 1238 q 441 1215 420 1238 q 463 1159 463 1193 q 441 1103 463 1126 q 386 1080 418 1080 q 331 1103 353 1080 q 309 1159 309 1126 m 321 1165 q 378 1222 338 1210 l 387 1213 q 329 1158 347 1200 l 321 1165 m 463 1159 q 488 1214 463 1190 q 542 1238 512 1238 q 596 1215 574 1238 q 617 1159 617 1193 q 595 1103 617 1126 q 540 1080 572 1080 q 486 1103 508 1080 q 463 1159 463 1126 m 475 1165 q 532 1222 492 1210 l 542 1213 q 483 1158 502 1200 l 475 1165 m 617 1159 q 642 1214 617 1190 q 696 1238 667 1238 q 750 1215 728 1238 q 772 1159 772 1193 q 749 1103 772 1126 q 694 1080 727 1080 q 640 1103 662 1080 q 617 1159 617 1126 m 629 1165 q 687 1222 646 1210 l 696 1213 q 637 1158 656 1200 l 629 1165 m 784 1165 q 841 1222 801 1210 l 850 1213 q 791 1158 810 1200 l 784 1165 m 939 1165 q 996 1222 956 1210 l 1004 1213 q 946 1158 964 1200 l 939 1165 m 12 1320 q 69 1377 29 1364 l 79 1367 q 20 1312 39 1355 l 12 1320 m 167 1320 q 224 1377 184 1364 l 233 1367 q 174 1312 193 1355 l 167 1320 m 321 1320 q 378 1377 338 1364 l 387 1367 q 329 1312 347 1355 l 321 1320 m 463 1313 q 488 1368 463 1344 q 542 1392 512 1392 q 596 1370 574 1392 q 617 1313 617 1348 q 595 1258 617 1281 q 540 1234 572 1234 q 486 1258 508 1234 q 463 1313 463 1281 m 475 1320 q 532 1377 492 1364 l 542 1367 q 483 1312 502 1355 l 475 1320 m 629 1320 q 687 1377 646 1364 l 696 1367 q 637 1312 656 1355 l 629 1320 m 784 1320 q 841 1377 801 1364 l 850 1367 q 791 1312 810 1355 l 784 1320 m 939 1320 q 996 1377 956 1364 l 1004 1367 q 946 1312 964 1355 l 939 1320 z "},"%":{"ha":1080,"x_min":0,"x_max":475,"o":"m 1080 0 l 1080 1469 l 0 1469 l 0 0 l 1080 0 m 12 83 q 69 140 29 128 l 79 131 q 20 76 39 119 l 12 83 m 167 83 q 224 140 184 128 l 233 131 q 174 76 193 119 l 167 83 m 321 83 q 378 140 338 128 l 387 131 q 329 76 347 119 l 321 83 m 475 83 q 532 140 492 128 l 542 131 q 483 76 502 119 l 475 83 m 617 77 q 642 132 617 108 q 696 156 667 156 q 750 134 728 156 q 772 77 772 111 q 749 22 772 45 q 694 -1 727 -1 q 640 22 662 -1 q 617 77 617 45 m 629 83 q 687 140 646 128 l 696 131 q 637 76 656 119 l 629 83 m 772 77 q 797 132 772 108 q 850 156 821 156 q 904 134 883 156 q 926 77 926 111 q 903 22 926 45 q 849 -1 881 -1 q 794 22 817 -1 q 772 77 772 45 m 784 83 q 841 140 801 128 l 850 131 q 791 76 810 119 l 784 83 m 926 77 q 950 132 926 108 q 1004 156 975 156 q 1059 134 1037 156 q 1080 77 1080 111 q 1058 22 1080 45 q 1003 -1 1036 -1 q 948 22 970 -1 q 926 77 926 45 m 939 83 q 996 140 956 128 l 1004 131 q 946 76 964 119 l 939 83 m 12 237 q 69 295 29 282 l 79 286 q 20 230 39 273 l 12 237 m 167 237 q 224 295 184 282 l 233 286 q 174 230 193 273 l 167 237 m 309 231 q 333 286 309 262 q 387 310 358 310 q 441 288 420 310 q 463 231 463 265 q 441 176 463 199 q 386 153 418 153 q 331 176 353 153 q 309 231 309 199 m 321 237 q 378 295 338 282 l 387 286 q 329 230 347 273 l 321 237 m 475 237 q 532 295 492 282 l 542 286 q 483 230 502 273 l 475 237 m 617 231 q 642 286 617 262 q 696 310 667 310 q 750 288 728 310 q 772 231 772 265 q 749 176 772 199 q 694 153 727 153 q 640 176 662 153 q 617 231 617 199 m 629 237 q 687 295 646 282 l 696 286 q 637 230 656 273 l 629 237 m 784 237 q 841 295 801 282 l 850 286 q 791 230 810 273 l 784 237 m 926 231 q 950 286 926 262 q 1004 310 975 310 q 1059 288 1037 310 q 1080 231 1080 265 q 1058 176 1080 199 q 1003 153 1036 153 q 948 176 970 153 q 926 231 926 199 m 939 237 q 996 295 956 282 l 1004 286 q 946 230 964 273 l 939 237 m 12 393 q 69 450 29 438 l 79 441 q 20 386 39 429 l 12 393 m 167 393 q 224 450 184 438 l 233 441 q 174 386 193 429 l 167 393 m 321 393 q 378 450 338 438 l 387 441 q 329 386 347 429 l 321 393 m 463 387 q 488 442 463 418 q 542 466 512 466 q 596 444 574 466 q 617 387 617 421 q 595 332 617 355 q 540 309 572 309 q 486 332 508 309 q 463 387 463 355 m 475 393 q 532 450 492 438 l 542 441 q 483 386 502 429 l 475 393 m 629 393 q 687 450 646 438 l 696 441 q 637 386 656 429 l 629 393 m 772 387 q 797 442 772 418 q 850 466 821 466 q 904 444 883 466 q 926 387 926 421 q 903 332 926 355 q 849 309 881 309 q 794 332 817 309 q 772 387 772 355 m 784 393 q 841 450 801 438 l 850 441 q 791 386 810 429 l 784 393 m 926 387 q 950 442 926 418 q 1004 466 975 466 q 1059 444 1037 466 q 1080 387 1080 421 q 1058 332 1080 355 q 1003 309 1036 309 q 948 332 970 309 q 926 387 926 355 m 939 393 q 996 450 956 438 l 1004 441 q 946 386 964 429 l 939 393 m 12 548 q 69 605 29 593 l 79 595 q 20 540 39 583 l 12 548 m 167 548 q 224 605 184 593 l 233 595 q 174 540 193 583 l 167 548 m 321 548 q 378 605 338 593 l 387 595 q 329 540 347 583 l 321 548 m 463 542 q 488 596 463 572 q 542 621 512 621 q 596 598 574 621 q 617 542 617 576 q 595 486 617 509 q 540 463 572 463 q 486 486 508 463 q 463 542 463 509 m 475 548 q 532 605 492 593 l 542 595 q 483 540 502 583 l 475 548 m 617 542 q 642 596 617 572 q 696 621 667 621 q 750 598 728 621 q 772 542 772 576 q 749 486 772 509 q 694 463 727 463 q 640 486 662 463 q 617 542 617 509 m 629 548 q 687 605 646 593 l 696 595 q 637 540 656 583 l 629 548 m 784 548 q 841 605 801 593 l 850 595 q 791 540 810 583 l 784 548 m 939 548 q 996 605 956 593 l 1004 595 q 946 540 964 583 l 939 548 m 12 702 q 69 760 29 747 l 79 750 q 20 694 39 738 l 12 702 m 167 702 q 224 760 184 747 l 233 750 q 174 694 193 738 l 167 702 m 321 702 q 378 760 338 747 l 387 750 q 329 694 347 738 l 321 702 m 475 702 q 532 760 492 747 l 542 750 q 483 694 502 738 l 475 702 m 617 696 q 642 751 617 727 q 696 774 667 774 q 750 752 728 774 q 772 696 772 730 q 749 640 772 663 q 694 617 727 617 q 640 640 662 617 q 617 696 617 663 m 629 702 q 687 760 646 747 l 696 750 q 637 694 656 738 l 629 702 m 784 702 q 841 760 801 747 l 850 750 q 791 694 810 738 l 784 702 m 939 702 q 996 760 956 747 l 1004 750 q 946 694 964 738 l 939 702 m 12 857 q 69 913 29 901 l 79 904 q 20 849 39 892 l 12 857 m 167 857 q 224 913 184 901 l 233 904 q 174 849 193 892 l 167 857 m 321 857 q 378 913 338 901 l 387 904 q 329 849 347 892 l 321 857 m 475 857 q 532 913 492 901 l 542 904 q 483 849 502 892 l 475 857 m 617 850 q 642 905 617 881 q 696 929 667 929 q 750 907 728 929 q 772 850 772 884 q 749 795 772 818 q 694 772 727 772 q 640 795 662 772 q 617 850 617 818 m 629 857 q 687 913 646 901 l 696 904 q 637 849 656 892 l 629 857 m 772 850 q 797 905 772 881 q 850 929 821 929 q 904 907 883 929 q 926 850 926 884 q 903 795 926 818 q 849 772 881 772 q 794 795 817 772 q 772 850 772 818 m 784 857 q 841 913 801 901 l 850 904 q 791 849 810 892 l 784 857 m 939 857 q 996 913 956 901 l 1004 904 q 946 849 964 892 l 939 857 m 12 1010 q 69 1068 29 1055 l 79 1059 q 20 1003 39 1046 l 12 1010 m 155 1004 q 179 1059 155 1036 q 233 1083 203 1083 q 287 1061 265 1083 q 309 1004 309 1038 q 286 949 309 972 q 231 926 264 926 q 177 949 199 926 q 155 1004 155 972 m 167 1010 q 224 1068 184 1055 l 233 1059 q 174 1003 193 1046 l 167 1010 m 309 1004 q 333 1059 309 1036 q 387 1083 358 1083 q 441 1061 420 1083 q 463 1004 463 1038 q 441 949 463 972 q 386 926 418 926 q 331 949 353 926 q 309 1004 309 972 m 321 1010 q 378 1068 338 1055 l 387 1059 q 329 1003 347 1046 l 321 1010 m 463 1004 q 488 1059 463 1036 q 542 1083 512 1083 q 596 1061 574 1083 q 617 1004 617 1038 q 595 949 617 972 q 540 926 572 926 q 486 949 508 926 q 463 1004 463 972 m 475 1010 q 532 1068 492 1055 l 542 1059 q 483 1003 502 1046 l 475 1010 m 629 1010 q 687 1068 646 1055 l 696 1059 q 637 1003 656 1046 l 629 1010 m 772 1004 q 797 1059 772 1036 q 850 1083 821 1083 q 904 1061 883 1083 q 926 1004 926 1038 q 903 949 926 972 q 849 926 881 926 q 794 949 817 926 q 772 1004 772 972 m 784 1010 q 841 1068 801 1055 l 850 1059 q 791 1003 810 1046 l 784 1010 m 939 1010 q 996 1068 956 1055 l 1004 1059 q 946 1003 964 1046 l 939 1010 m 12 1165 q 69 1222 29 1210 l 79 1213 q 20 1158 39 1200 l 12 1165 m 155 1159 q 179 1214 155 1190 q 233 1238 203 1238 q 287 1215 265 1238 q 309 1159 309 1193 q 286 1103 309 1126 q 231 1080 264 1080 q 177 1103 199 1080 q 155 1159 155 1126 m 167 1165 q 224 1222 184 1210 l 233 1213 q 174 1158 193 1200 l 167 1165 m 321 1165 q 378 1222 338 1210 l 387 1213 q 329 1158 347 1200 l 321 1165 m 463 1159 q 488 1214 463 1190 q 542 1238 512 1238 q 596 1215 574 1238 q 617 1159 617 1193 q 595 1103 617 1126 q 540 1080 572 1080 q 486 1103 508 1080 q 463 1159 463 1126 m 475 1165 q 532 1222 492 1210 l 542 1213 q 483 1158 502 1200 l 475 1165 m 629 1165 q 687 1222 646 1210 l 696 1213 q 637 1158 656 1200 l 629 1165 m 772 1159 q 797 1214 772 1190 q 850 1238 821 1238 q 904 1215 883 1238 q 926 1159 926 1193 q 903 1103 926 1126 q 849 1080 881 1080 q 794 1103 817 1080 q 772 1159 772 1126 m 784 1165 q 841 1222 801 1210 l 850 1213 q 791 1158 810 1200 l 784 1165 m 926 1159 q 950 1214 926 1190 q 1004 1238 975 1238 q 1059 1215 1037 1238 q 1080 1159 1080 1193 q 1058 1103 1080 1126 q 1003 1080 1036 1080 q 948 1103 970 1080 q 926 1159 926 1126 m 939 1165 q 996 1222 956 1210 l 1004 1213 q 946 1158 964 1200 l 939 1165 m 12 1320 q 69 1377 29 1364 l 79 1367 q 20 1312 39 1355 l 12 1320 m 155 1313 q 179 1368 155 1344 q 233 1392 203 1392 q 287 1370 265 1392 q 309 1313 309 1348 q 286 1258 309 1281 q 231 1234 264 1234 q 177 1258 199 1234 q 155 1313 155 1281 m 167 1320 q 224 1377 184 1364 l 233 1367 q 174 1312 193 1355 l 167 1320 m 309 1313 q 333 1368 309 1344 q 387 1392 358 1392 q 441 1370 420 1392 q 463 1313 463 1348 q 441 1258 463 1281 q 386 1234 418 1234 q 331 1258 353 1234 q 309 1313 309 1281 m 321 1320 q 378 1377 338 1364 l 387 1367 q 329 1312 347 1355 l 321 1320 m 463 1313 q 488 1368 463 1344 q 542 1392 512 1392 q 596 1370 574 1392 q 617 1313 617 1348 q 595 1258 617 1281 q 540 1234 572 1234 q 486 1258 508 1234 q 463 1313 463 1281 m 475 1320 q 532 1377 492 1364 l 542 1367 q 483 1312 502 1355 l 475 1320 m 617 1313 q 642 1368 617 1344 q 696 1392 667 1392 q 750 1370 728 1392 q 772 1313 772 1348 q 749 1258 772 1281 q 694 1234 727 1234 q 640 1258 662 1234 q 617 1313 617 1281 m 629 1320 q 687 1377 646 1364 l 696 1367 q 637 1312 656 1355 l 629 1320 m 784 1320 q 841 1377 801 1364 l 850 1367 q 791 1312 810 1355 l 784 1320 m 926 1313 q 950 1368 926 1344 q 1004 1392 975 1392 q 1059 1370 1037 1392 q 1080 1313 1080 1348 q 1058 1258 1080 1281 q 1003 1234 1036 1234 q 948 1258 970 1234 q 926 1313 926 1281 m 939 1320 q 996 1377 956 1364 l 1004 1367 q 946 1312 964 1355 l 939 1320 z "},"&":{"ha":1080,"x_min":0,"x_max":475,"o":"m 1080 0 l 1080 1478 l 0 1478 l 0 0 l 1080 0 m 12 83 q 69 140 29 128 l 79 131 q 20 76 39 119 l 12 83 m 167 83 q 224 140 184 128 l 233 131 q 174 76 193 119 l 167 83 m 321 83 q 378 140 338 128 l 387 131 q 329 76 347 119 l 321 83 m 475 83 q 532 140 492 128 l 542 131 q 483 76 502 119 l 475 83 m 617 77 q 642 132 617 108 q 696 156 667 156 q 750 134 728 156 q 772 77 772 111 q 749 22 772 45 q 694 -1 727 -1 q 640 22 662 -1 q 617 77 617 45 m 629 83 q 687 140 646 128 l 696 131 q 637 76 656 119 l 629 83 m 784 83 q 841 140 801 128 l 850 131 q 791 76 810 119 l 784 83 m 939 83 q 996 140 956 128 l 1004 131 q 946 76 964 119 l 939 83 m 12 237 q 69 295 29 282 l 79 286 q 20 230 39 273 l 12 237 m 167 237 q 224 295 184 282 l 233 286 q 174 230 193 273 l 167 237 m 321 237 q 378 295 338 282 l 387 286 q 329 230 347 273 l 321 237 m 463 231 q 488 286 463 262 q 542 310 512 310 q 596 288 574 310 q 617 231 617 265 q 595 176 617 199 q 540 153 572 153 q 486 176 508 153 q 463 231 463 199 m 475 237 q 532 295 492 282 l 542 286 q 483 230 502 273 l 475 237 m 617 231 q 642 286 617 262 q 696 310 667 310 q 750 288 728 310 q 772 231 772 265 q 749 176 772 199 q 694 153 727 153 q 640 176 662 153 q 617 231 617 199 m 629 237 q 687 295 646 282 l 696 286 q 637 230 656 273 l 629 237 m 772 231 q 797 286 772 262 q 850 310 821 310 q 904 288 883 310 q 926 231 926 265 q 903 176 926 199 q 849 153 881 153 q 794 176 817 153 q 772 231 772 199 m 784 237 q 841 295 801 282 l 850 286 q 791 230 810 273 l 784 237 m 926 231 q 950 286 926 262 q 1004 310 975 310 q 1059 288 1037 310 q 1080 231 1080 265 q 1058 176 1080 199 q 1003 153 1036 153 q 948 176 970 153 q 926 231 926 199 m 939 237 q 996 295 956 282 l 1004 286 q 946 230 964 273 l 939 237 m 12 393 q 69 450 29 438 l 79 441 q 20 386 39 429 l 12 393 m 167 393 q 224 450 184 438 l 233 441 q 174 386 193 429 l 167 393 m 309 387 q 333 442 309 418 q 387 466 358 466 q 441 444 420 466 q 463 387 463 421 q 441 332 463 355 q 386 309 418 309 q 331 332 353 309 q 309 387 309 355 m 321 393 q 378 450 338 438 l 387 441 q 329 386 347 429 l 321 393 m 475 393 q 532 450 492 438 l 542 441 q 483 386 502 429 l 475 393 m 617 387 q 642 442 617 418 q 696 466 667 466 q 750 444 728 466 q 772 387 772 421 q 749 332 772 355 q 694 309 727 309 q 640 332 662 309 q 617 387 617 355 m 629 393 q 687 450 646 438 l 696 441 q 637 386 656 429 l 629 393 m 784 393 q 841 450 801 438 l 850 441 q 791 386 810 429 l 784 393 m 939 393 q 996 450 956 438 l 1004 441 q 946 386 964 429 l 939 393 m 12 548 q 69 605 29 593 l 79 595 q 20 540 39 583 l 12 548 m 167 548 q 224 605 184 593 l 233 595 q 174 540 193 583 l 167 548 m 309 542 q 333 596 309 572 q 387 621 358 621 q 441 598 420 621 q 463 542 463 576 q 441 486 463 509 q 386 463 418 463 q 331 486 353 463 q 309 542 309 509 m 321 548 q 378 605 338 593 l 387 595 q 329 540 347 583 l 321 548 m 475 548 q 532 605 492 593 l 542 595 q 483 540 502 583 l 475 548 m 617 542 q 642 596 617 572 q 696 621 667 621 q 750 598 728 621 q 772 542 772 576 q 749 486 772 509 q 694 463 727 463 q 640 486 662 463 q 617 542 617 509 m 629 548 q 687 605 646 593 l 696 595 q 637 540 656 583 l 629 548 m 784 548 q 841 605 801 593 l 850 595 q 791 540 810 583 l 784 548 m 939 548 q 996 605 956 593 l 1004 595 q 946 540 964 583 l 939 548 m 12 702 q 69 760 29 747 l 79 750 q 20 694 39 738 l 12 702 m 167 702 q 224 760 184 747 l 233 750 q 174 694 193 738 l 167 702 m 321 702 q 378 760 338 747 l 387 750 q 329 694 347 738 l 321 702 m 463 696 q 488 751 463 727 q 542 774 512 774 q 596 752 574 774 q 617 696 617 730 q 595 640 617 663 q 540 617 572 617 q 486 640 508 617 q 463 696 463 663 m 475 702 q 532 760 492 747 l 542 750 q 483 694 502 738 l 475 702 m 617 696 q 642 751 617 727 q 696 774 667 774 q 750 752 728 774 q 772 696 772 730 q 749 640 772 663 q 694 617 727 617 q 640 640 662 617 q 617 696 617 663 m 629 702 q 687 760 646 747 l 696 750 q 637 694 656 738 l 629 702 m 772 696 q 797 751 772 727 q 850 774 821 774 q 904 752 883 774 q 926 696 926 730 q 903 640 926 663 q 849 617 881 617 q 794 640 817 617 q 772 696 772 663 m 784 702 q 841 760 801 747 l 850 750 q 791 694 810 738 l 784 702 m 939 702 q 996 760 956 747 l 1004 750 q 946 694 964 738 l 939 702 m 12 857 q 69 913 29 901 l 79 904 q 20 849 39 892 l 12 857 m 167 857 q 224 913 184 901 l 233 904 q 174 849 193 892 l 167 857 m 309 850 q 333 905 309 881 q 387 929 358 929 q 441 907 420 929 q 463 850 463 884 q 441 795 463 818 q 386 772 418 772 q 331 795 353 772 q 309 850 309 818 m 321 857 q 378 913 338 901 l 387 904 q 329 849 347 892 l 321 857 m 475 857 q 532 913 492 901 l 542 904 q 483 849 502 892 l 475 857 m 617 850 q 642 905 617 881 q 696 929 667 929 q 750 907 728 929 q 772 850 772 884 q 749 795 772 818 q 694 772 727 772 q 640 795 662 772 q 617 850 617 818 m 629 857 q 687 913 646 901 l 696 904 q 637 849 656 892 l 629 857 m 784 857 q 841 913 801 901 l 850 904 q 791 849 810 892 l 784 857 m 939 857 q 996 913 956 901 l 1004 904 q 946 849 964 892 l 939 857 m 12 1010 q 69 1068 29 1055 l 79 1059 q 20 1003 39 1046 l 12 1010 m 167 1010 q 224 1068 184 1055 l 233 1059 q 174 1003 193 1046 l 167 1010 m 309 1004 q 333 1059 309 1036 q 387 1083 358 1083 q 441 1061 420 1083 q 463 1004 463 1038 q 441 949 463 972 q 386 926 418 926 q 331 949 353 926 q 309 1004 309 972 m 321 1010 q 378 1068 338 1055 l 387 1059 q 329 1003 347 1046 l 321 1010 m 475 1010 q 532 1068 492 1055 l 542 1059 q 483 1003 502 1046 l 475 1010 m 617 1004 q 642 1059 617 1036 q 696 1083 667 1083 q 750 1061 728 1083 q 772 1004 772 1038 q 749 949 772 972 q 694 926 727 926 q 640 949 662 926 q 617 1004 617 972 m 629 1010 q 687 1068 646 1055 l 696 1059 q 637 1003 656 1046 l 629 1010 m 784 1010 q 841 1068 801 1055 l 850 1059 q 791 1003 810 1046 l 784 1010 m 939 1010 q 996 1068 956 1055 l 1004 1059 q 946 1003 964 1046 l 939 1010 m 12 1165 q 69 1222 29 1210 l 79 1213 q 20 1158 39 1200 l 12 1165 m 167 1165 q 224 1222 184 1210 l 233 1213 q 174 1158 193 1200 l 167 1165 m 321 1165 q 378 1222 338 1210 l 387 1213 q 329 1158 347 1200 l 321 1165 m 463 1159 q 488 1214 463 1190 q 542 1238 512 1238 q 596 1215 574 1238 q 617 1159 617 1193 q 595 1103 617 1126 q 540 1080 572 1080 q 486 1103 508 1080 q 463 1159 463 1126 m 475 1165 q 532 1222 492 1210 l 542 1213 q 483 1158 502 1200 l 475 1165 m 617 1159 q 642 1214 617 1190 q 696 1238 667 1238 q 750 1215 728 1238 q 772 1159 772 1193 q 749 1103 772 1126 q 694 1080 727 1080 q 640 1103 662 1080 q 617 1159 617 1126 m 629 1165 q 687 1222 646 1210 l 696 1213 q 637 1158 656 1200 l 629 1165 m 772 1159 q 797 1214 772 1190 q 850 1238 821 1238 q 904 1215 883 1238 q 926 1159 926 1193 q 903 1103 926 1126 q 849 1080 881 1080 q 794 1103 817 1080 q 772 1159 772 1126 m 784 1165 q 841 1222 801 1210 l 850 1213 q 791 1158 810 1200 l 784 1165 m 926 1159 q 950 1214 926 1190 q 1004 1238 975 1238 q 1059 1215 1037 1238 q 1080 1159 1080 1193 q 1058 1103 1080 1126 q 1003 1080 1036 1080 q 948 1103 970 1080 q 926 1159 926 1126 m 939 1165 q 996 1222 956 1210 l 1004 1213 q 946 1158 964 1200 l 939 1165 m 12 1320 q 69 1377 29 1364 l 79 1367 q 20 1312 39 1355 l 12 1320 m 167 1320 q 224 1377 184 1364 l 233 1367 q 174 1312 193 1355 l 167 1320 m 321 1320 q 378 1377 338 1364 l 387 1367 q 329 1312 347 1355 l 321 1320 m 475 1320 q 532 1377 492 1364 l 542 1367 q 483 1312 502 1355 l 475 1320 m 617 1313 q 642 1368 617 1344 q 696 1392 667 1392 q 750 1370 728 1392 q 772 1313 772 1348 q 749 1258 772 1281 q 694 1234 727 1234 q 640 1258 662 1234 q 617 1313 617 1281 m 629 1320 q 687 1377 646 1364 l 696 1367 q 637 1312 656 1355 l 629 1320 m 784 1320 q 841 1377 801 1364 l 850 1367 q 791 1312 810 1355 l 784 1320 m 939 1320 q 996 1377 956 1364 l 1004 1367 q 946 1312 964 1355 l 939 1320 z "},"'":{"ha":1080,"x_min":0,"x_max":475,"o":"m 1080 0 l 1080 1474 l 0 1474 l 0 0 l 1080 0 m 12 83 q 69 140 29 128 l 79 131 q 20 76 39 119 l 12 83 m 167 83 q 224 140 184 128 l 233 131 q 174 76 193 119 l 167 83 m 321 83 q 378 140 338 128 l 387 131 q 329 76 347 119 l 321 83 m 475 83 q 532 140 492 128 l 542 131 q 483 76 502 119 l 475 83 m 629 83 q 687 140 646 128 l 696 131 q 637 76 656 119 l 629 83 m 784 83 q 841 140 801 128 l 850 131 q 791 76 810 119 l 784 83 m 939 83 q 996 140 956 128 l 1004 131 q 946 76 964 119 l 939 83 m 12 237 q 69 295 29 282 l 79 286 q 20 230 39 273 l 12 237 m 167 237 q 224 295 184 282 l 233 286 q 174 230 193 273 l 167 237 m 321 237 q 378 295 338 282 l 387 286 q 329 230 347 273 l 321 237 m 475 237 q 532 295 492 282 l 542 286 q 483 230 502 273 l 475 237 m 629 237 q 687 295 646 282 l 696 286 q 637 230 656 273 l 629 237 m 784 237 q 841 295 801 282 l 850 286 q 791 230 810 273 l 784 237 m 939 237 q 996 295 956 282 l 1004 286 q 946 230 964 273 l 939 237 m 12 393 q 69 450 29 438 l 79 441 q 20 386 39 429 l 12 393 m 167 393 q 224 450 184 438 l 233 441 q 174 386 193 429 l 167 393 m 321 393 q 378 450 338 438 l 387 441 q 329 386 347 429 l 321 393 m 475 393 q 532 450 492 438 l 542 441 q 483 386 502 429 l 475 393 m 629 393 q 687 450 646 438 l 696 441 q 637 386 656 429 l 629 393 m 784 393 q 841 450 801 438 l 850 441 q 791 386 810 429 l 784 393 m 939 393 q 996 450 956 438 l 1004 441 q 946 386 964 429 l 939 393 m 12 548 q 69 605 29 593 l 79 595 q 20 540 39 583 l 12 548 m 167 548 q 224 605 184 593 l 233 595 q 174 540 193 583 l 167 548 m 321 548 q 378 605 338 593 l 387 595 q 329 540 347 583 l 321 548 m 475 548 q 532 605 492 593 l 542 595 q 483 540 502 583 l 475 548 m 629 548 q 687 605 646 593 l 696 595 q 637 540 656 583 l 629 548 m 784 548 q 841 605 801 593 l 850 595 q 791 540 810 583 l 784 548 m 939 548 q 996 605 956 593 l 1004 595 q 946 540 964 583 l 939 548 m 12 702 q 69 760 29 747 l 79 750 q 20 694 39 738 l 12 702 m 167 702 q 224 760 184 747 l 233 750 q 174 694 193 738 l 167 702 m 321 702 q 378 760 338 747 l 387 750 q 329 694 347 738 l 321 702 m 475 702 q 532 760 492 747 l 542 750 q 483 694 502 738 l 475 702 m 629 702 q 687 760 646 747 l 696 750 q 637 694 656 738 l 629 702 m 784 702 q 841 760 801 747 l 850 750 q 791 694 810 738 l 784 702 m 939 702 q 996 760 956 747 l 1004 750 q 946 694 964 738 l 939 702 m 12 857 q 69 913 29 901 l 79 904 q 20 849 39 892 l 12 857 m 167 857 q 224 913 184 901 l 233 904 q 174 849 193 892 l 167 857 m 321 857 q 378 913 338 901 l 387 904 q 329 849 347 892 l 321 857 m 463 850 q 488 905 463 881 q 542 929 512 929 q 596 907 574 929 q 617 850 617 884 q 595 795 617 818 q 540 772 572 772 q 486 795 508 772 q 463 850 463 818 m 475 857 q 532 913 492 901 l 542 904 q 483 849 502 892 l 475 857 m 629 857 q 687 913 646 901 l 696 904 q 637 849 656 892 l 629 857 m 784 857 q 841 913 801 901 l 850 904 q 791 849 810 892 l 784 857 m 939 857 q 996 913 956 901 l 1004 904 q 946 849 964 892 l 939 857 m 12 1010 q 69 1068 29 1055 l 79 1059 q 20 1003 39 1046 l 12 1010 m 167 1010 q 224 1068 184 1055 l 233 1059 q 174 1003 193 1046 l 167 1010 m 321 1010 q 378 1068 338 1055 l 387 1059 q 329 1003 347 1046 l 321 1010 m 463 1004 q 488 1059 463 1036 q 542 1083 512 1083 q 596 1061 574 1083 q 617 1004 617 1038 q 595 949 617 972 q 540 926 572 926 q 486 949 508 926 q 463 1004 463 972 m 475 1010 q 532 1068 492 1055 l 542 1059 q 483 1003 502 1046 l 475 1010 m 629 1010 q 687 1068 646 1055 l 696 1059 q 637 1003 656 1046 l 629 1010 m 784 1010 q 841 1068 801 1055 l 850 1059 q 791 1003 810 1046 l 784 1010 m 939 1010 q 996 1068 956 1055 l 1004 1059 q 946 1003 964 1046 l 939 1010 m 12 1165 q 69 1222 29 1210 l 79 1213 q 20 1158 39 1200 l 12 1165 m 167 1165 q 224 1222 184 1210 l 233 1213 q 174 1158 193 1200 l 167 1165 m 321 1165 q 378 1222 338 1210 l 387 1213 q 329 1158 347 1200 l 321 1165 m 463 1159 q 488 1214 463 1190 q 542 1238 512 1238 q 596 1215 574 1238 q 617 1159 617 1193 q 595 1103 617 1126 q 540 1080 572 1080 q 486 1103 508 1080 q 463 1159 463 1126 m 475 1165 q 532 1222 492 1210 l 542 1213 q 483 1158 502 1200 l 475 1165 m 629 1165 q 687 1222 646 1210 l 696 1213 q 637 1158 656 1200 l 629 1165 m 784 1165 q 841 1222 801 1210 l 850 1213 q 791 1158 810 1200 l 784 1165 m 939 1165 q 996 1222 956 1210 l 1004 1213 q 946 1158 964 1200 l 939 1165 m 12 1320 q 69 1377 29 1364 l 79 1367 q 20 1312 39 1355 l 12 1320 m 167 1320 q 224 1377 184 1364 l 233 1367 q 174 1312 193 1355 l 167 1320 m 321 1320 q 378 1377 338 1364 l 387 1367 q 329 1312 347 1355 l 321 1320 m 463 1313 q 488 1368 463 1344 q 542 1392 512 1392 q 596 1370 574 1392 q 617 1313 617 1348 q 595 1258 617 1281 q 540 1234 572 1234 q 486 1258 508 1234 q 463 1313 463 1281 m 475 1320 q 532 1377 492 1364 l 542 1367 q 483 1312 502 1355 l 475 1320 m 629 1320 q 687 1377 646 1364 l 696 1367 q 637 1312 656 1355 l 629 1320 m 784 1320 q 841 1377 801 1364 l 850 1367 q 791 1312 810 1355 l 784 1320 m 939 1320 q 996 1377 956 1364 l 1004 1367 q 946 1312 964 1355 l 939 1320 z "},"(":{"ha":1080,"x_min":0,"x_max":475,"o":"m 1080 0 l 1080 1478 l 0 1478 l 0 0 l 1080 0 m 12 83 q 69 140 29 128 l 79 131 q 20 76 39 119 l 12 83 m 167 83 q 224 140 184 128 l 233 131 q 174 76 193 119 l 167 83 m 321 83 q 378 140 338 128 l 387 131 q 329 76 347 119 l 321 83 m 475 83 q 532 140 492 128 l 542 131 q 483 76 502 119 l 475 83 m 629 83 q 687 140 646 128 l 696 131 q 637 76 656 119 l 629 83 m 772 77 q 797 132 772 108 q 850 156 821 156 q 904 134 883 156 q 926 77 926 111 q 903 22 926 45 q 849 -1 881 -1 q 794 22 817 -1 q 772 77 772 45 m 784 83 q 841 140 801 128 l 850 131 q 791 76 810 119 l 784 83 m 939 83 q 996 140 956 128 l 1004 131 q 946 76 964 119 l 939 83 m 12 237 q 69 295 29 282 l 79 286 q 20 230 39 273 l 12 237 m 167 237 q 224 295 184 282 l 233 286 q 174 230 193 273 l 167 237 m 321 237 q 378 295 338 282 l 387 286 q 329 230 347 273 l 321 237 m 475 237 q 532 295 492 282 l 542 286 q 483 230 502 273 l 475 237 m 617 231 q 642 286 617 262 q 696 310 667 310 q 750 288 728 310 q 772 231 772 265 q 749 176 772 199 q 694 153 727 153 q 640 176 662 153 q 617 231 617 199 m 629 237 q 687 295 646 282 l 696 286 q 637 230 656 273 l 629 237 m 784 237 q 841 295 801 282 l 850 286 q 791 230 810 273 l 784 237 m 939 237 q 996 295 956 282 l 1004 286 q 946 230 964 273 l 939 237 m 12 393 q 69 450 29 438 l 79 441 q 20 386 39 429 l 12 393 m 167 393 q 224 450 184 438 l 233 441 q 174 386 193 429 l 167 393 m 321 393 q 378 450 338 438 l 387 441 q 329 386 347 429 l 321 393 m 475 393 q 532 450 492 438 l 542 441 q 483 386 502 429 l 475 393 m 617 387 q 642 442 617 418 q 696 466 667 466 q 750 444 728 466 q 772 387 772 421 q 749 332 772 355 q 694 309 727 309 q 640 332 662 309 q 617 387 617 355 m 629 393 q 687 450 646 438 l 696 441 q 637 386 656 429 l 629 393 m 784 393 q 841 450 801 438 l 850 441 q 791 386 810 429 l 784 393 m 939 393 q 996 450 956 438 l 1004 441 q 946 386 964 429 l 939 393 m 12 548 q 69 605 29 593 l 79 595 q 20 540 39 583 l 12 548 m 167 548 q 224 605 184 593 l 233 595 q 174 540 193 583 l 167 548 m 321 548 q 378 605 338 593 l 387 595 q 329 540 347 583 l 321 548 m 475 548 q 532 605 492 593 l 542 595 q 483 540 502 583 l 475 548 m 617 542 q 642 596 617 572 q 696 621 667 621 q 750 598 728 621 q 772 542 772 576 q 749 486 772 509 q 694 463 727 463 q 640 486 662 463 q 617 542 617 509 m 629 548 q 687 605 646 593 l 696 595 q 637 540 656 583 l 629 548 m 784 548 q 841 605 801 593 l 850 595 q 791 540 810 583 l 784 548 m 939 548 q 996 605 956 593 l 1004 595 q 946 540 964 583 l 939 548 m 12 702 q 69 760 29 747 l 79 750 q 20 694 39 738 l 12 702 m 167 702 q 224 760 184 747 l 233 750 q 174 694 193 738 l 167 702 m 321 702 q 378 760 338 747 l 387 750 q 329 694 347 738 l 321 702 m 475 702 q 532 760 492 747 l 542 750 q 483 694 502 738 l 475 702 m 617 696 q 642 751 617 727 q 696 774 667 774 q 750 752 728 774 q 772 696 772 730 q 749 640 772 663 q 694 617 727 617 q 640 640 662 617 q 617 696 617 663 m 629 702 q 687 760 646 747 l 696 750 q 637 694 656 738 l 629 702 m 784 702 q 841 760 801 747 l 850 750 q 791 694 810 738 l 784 702 m 939 702 q 996 760 956 747 l 1004 750 q 946 694 964 738 l 939 702 m 12 857 q 69 913 29 901 l 79 904 q 20 849 39 892 l 12 857 m 167 857 q 224 913 184 901 l 233 904 q 174 849 193 892 l 167 857 m 321 857 q 378 913 338 901 l 387 904 q 329 849 347 892 l 321 857 m 475 857 q 532 913 492 901 l 542 904 q 483 849 502 892 l 475 857 m 617 850 q 642 905 617 881 q 696 929 667 929 q 750 907 728 929 q 772 850 772 884 q 749 795 772 818 q 694 772 727 772 q 640 795 662 772 q 617 850 617 818 m 629 857 q 687 913 646 901 l 696 904 q 637 849 656 892 l 629 857 m 784 857 q 841 913 801 901 l 850 904 q 791 849 810 892 l 784 857 m 939 857 q 996 913 956 901 l 1004 904 q 946 849 964 892 l 939 857 m 12 1010 q 69 1068 29 1055 l 79 1059 q 20 1003 39 1046 l 12 1010 m 167 1010 q 224 1068 184 1055 l 233 1059 q 174 1003 193 1046 l 167 1010 m 321 1010 q 378 1068 338 1055 l 387 1059 q 329 1003 347 1046 l 321 1010 m 475 1010 q 532 1068 492 1055 l 542 1059 q 483 1003 502 1046 l 475 1010 m 617 1004 q 642 1059 617 1036 q 696 1083 667 1083 q 750 1061 728 1083 q 772 1004 772 1038 q 749 949 772 972 q 694 926 727 926 q 640 949 662 926 q 617 1004 617 972 m 629 1010 q 687 1068 646 1055 l 696 1059 q 637 1003 656 1046 l 629 1010 m 784 1010 q 841 1068 801 1055 l 850 1059 q 791 1003 810 1046 l 784 1010 m 939 1010 q 996 1068 956 1055 l 1004 1059 q 946 1003 964 1046 l 939 1010 m 12 1165 q 69 1222 29 1210 l 79 1213 q 20 1158 39 1200 l 12 1165 m 167 1165 q 224 1222 184 1210 l 233 1213 q 174 1158 193 1200 l 167 1165 m 321 1165 q 378 1222 338 1210 l 387 1213 q 329 1158 347 1200 l 321 1165 m 475 1165 q 532 1222 492 1210 l 542 1213 q 483 1158 502 1200 l 475 1165 m 617 1159 q 642 1214 617 1190 q 696 1238 667 1238 q 750 1215 728 1238 q 772 1159 772 1193 q 749 1103 772 1126 q 694 1080 727 1080 q 640 1103 662 1080 q 617 1159 617 1126 m 629 1165 q 687 1222 646 1210 l 696 1213 q 637 1158 656 1200 l 629 1165 m 784 1165 q 841 1222 801 1210 l 850 1213 q 791 1158 810 1200 l 784 1165 m 939 1165 q 996 1222 956 1210 l 1004 1213 q 946 1158 964 1200 l 939 1165 m 12 1320 q 69 1377 29 1364 l 79 1367 q 20 1312 39 1355 l 12 1320 m 167 1320 q 224 1377 184 1364 l 233 1367 q 174 1312 193 1355 l 167 1320 m 321 1320 q 378 1377 338 1364 l 387 1367 q 329 1312 347 1355 l 321 1320 m 475 1320 q 532 1377 492 1364 l 542 1367 q 483 1312 502 1355 l 475 1320 m 629 1320 q 687 1377 646 1364 l 696 1367 q 637 1312 656 1355 l 629 1320 m 772 1313 q 797 1368 772 1344 q 850 1392 821 1392 q 904 1370 883 1392 q 926 1313 926 1348 q 903 1258 926 1281 q 849 1234 881 1234 q 794 1258 817 1234 q 772 1313 772 1281 m 784 1320 q 841 1377 801 1364 l 850 1367 q 791 1312 810 1355 l 784 1320 m 939 1320 q 996 1377 956 1364 l 1004 1367 q 946 1312 964 1355 l 939 1320 z "},")":{"ha":1080,"x_min":0,"x_max":475,"o":"m 1080 0 l 1080 1475 l 0 1475 l 0 0 l 1080 0 m 12 83 q 69 140 29 128 l 79 131 q 20 76 39 119 l 12 83 m 167 83 q 224 140 184 128 l 233 131 q 174 76 193 119 l 167 83 m 309 77 q 333 132 309 108 q 387 156 358 156 q 441 134 420 156 q 463 77 463 111 q 441 22 463 45 q 386 -1 418 -1 q 331 22 353 -1 q 309 77 309 45 m 321 83 q 378 140 338 128 l 387 131 q 329 76 347 119 l 321 83 m 475 83 q 532 140 492 128 l 542 131 q 483 76 502 119 l 475 83 m 629 83 q 687 140 646 128 l 696 131 q 637 76 656 119 l 629 83 m 784 83 q 841 140 801 128 l 850 131 q 791 76 810 119 l 784 83 m 939 83 q 996 140 956 128 l 1004 131 q 946 76 964 119 l 939 83 m 12 237 q 69 295 29 282 l 79 286 q 20 230 39 273 l 12 237 m 167 237 q 224 295 184 282 l 233 286 q 174 230 193 273 l 167 237 m 321 237 q 378 295 338 282 l 387 286 q 329 230 347 273 l 321 237 m 463 231 q 488 286 463 262 q 542 310 512 310 q 596 288 574 310 q 617 231 617 265 q 595 176 617 199 q 540 153 572 153 q 486 176 508 153 q 463 231 463 199 m 475 237 q 532 295 492 282 l 542 286 q 483 230 502 273 l 475 237 m 629 237 q 687 295 646 282 l 696 286 q 637 230 656 273 l 629 237 m 784 237 q 841 295 801 282 l 850 286 q 791 230 810 273 l 784 237 m 939 237 q 996 295 956 282 l 1004 286 q 946 230 964 273 l 939 237 m 12 393 q 69 450 29 438 l 79 441 q 20 386 39 429 l 12 393 m 167 393 q 224 450 184 438 l 233 441 q 174 386 193 429 l 167 393 m 321 393 q 378 450 338 438 l 387 441 q 329 386 347 429 l 321 393 m 463 387 q 488 442 463 418 q 542 466 512 466 q 596 444 574 466 q 617 387 617 421 q 595 332 617 355 q 540 309 572 309 q 486 332 508 309 q 463 387 463 355 m 475 393 q 532 450 492 438 l 542 441 q 483 386 502 429 l 475 393 m 629 393 q 687 450 646 438 l 696 441 q 637 386 656 429 l 629 393 m 784 393 q 841 450 801 438 l 850 441 q 791 386 810 429 l 784 393 m 939 393 q 996 450 956 438 l 1004 441 q 946 386 964 429 l 939 393 m 12 548 q 69 605 29 593 l 79 595 q 20 540 39 583 l 12 548 m 167 548 q 224 605 184 593 l 233 595 q 174 540 193 583 l 167 548 m 321 548 q 378 605 338 593 l 387 595 q 329 540 347 583 l 321 548 m 463 542 q 488 596 463 572 q 542 621 512 621 q 596 598 574 621 q 617 542 617 576 q 595 486 617 509 q 540 463 572 463 q 486 486 508 463 q 463 542 463 509 m 475 548 q 532 605 492 593 l 542 595 q 483 540 502 583 l 475 548 m 629 548 q 687 605 646 593 l 696 595 q 637 540 656 583 l 629 548 m 784 548 q 841 605 801 593 l 850 595 q 791 540 810 583 l 784 548 m 939 548 q 996 605 956 593 l 1004 595 q 946 540 964 583 l 939 548 m 12 702 q 69 760 29 747 l 79 750 q 20 694 39 738 l 12 702 m 167 702 q 224 760 184 747 l 233 750 q 174 694 193 738 l 167 702 m 321 702 q 378 760 338 747 l 387 750 q 329 694 347 738 l 321 702 m 463 696 q 488 751 463 727 q 542 774 512 774 q 596 752 574 774 q 617 696 617 730 q 595 640 617 663 q 540 617 572 617 q 486 640 508 617 q 463 696 463 663 m 475 702 q 532 760 492 747 l 542 750 q 483 694 502 738 l 475 702 m 629 702 q 687 760 646 747 l 696 750 q 637 694 656 738 l 629 702 m 784 702 q 841 760 801 747 l 850 750 q 791 694 810 738 l 784 702 m 939 702 q 996 760 956 747 l 1004 750 q 946 694 964 738 l 939 702 m 12 857 q 69 913 29 901 l 79 904 q 20 849 39 892 l 12 857 m 167 857 q 224 913 184 901 l 233 904 q 174 849 193 892 l 167 857 m 321 857 q 378 913 338 901 l 387 904 q 329 849 347 892 l 321 857 m 463 850 q 488 905 463 881 q 542 929 512 929 q 596 907 574 929 q 617 850 617 884 q 595 795 617 818 q 540 772 572 772 q 486 795 508 772 q 463 850 463 818 m 475 857 q 532 913 492 901 l 542 904 q 483 849 502 892 l 475 857 m 629 857 q 687 913 646 901 l 696 904 q 637 849 656 892 l 629 857 m 784 857 q 841 913 801 901 l 850 904 q 791 849 810 892 l 784 857 m 939 857 q 996 913 956 901 l 1004 904 q 946 849 964 892 l 939 857 m 12 1010 q 69 1068 29 1055 l 79 1059 q 20 1003 39 1046 l 12 1010 m 167 1010 q 224 1068 184 1055 l 233 1059 q 174 1003 193 1046 l 167 1010 m 321 1010 q 378 1068 338 1055 l 387 1059 q 329 1003 347 1046 l 321 1010 m 463 1004 q 488 1059 463 1036 q 542 1083 512 1083 q 596 1061 574 1083 q 617 1004 617 1038 q 595 949 617 972 q 540 926 572 926 q 486 949 508 926 q 463 1004 463 972 m 475 1010 q 532 1068 492 1055 l 542 1059 q 483 1003 502 1046 l 475 1010 m 629 1010 q 687 1068 646 1055 l 696 1059 q 637 1003 656 1046 l 629 1010 m 784 1010 q 841 1068 801 1055 l 850 1059 q 791 1003 810 1046 l 784 1010 m 939 1010 q 996 1068 956 1055 l 1004 1059 q 946 1003 964 1046 l 939 1010 m 12 1165 q 69 1222 29 1210 l 79 1213 q 20 1158 39 1200 l 12 1165 m 167 1165 q 224 1222 184 1210 l 233 1213 q 174 1158 193 1200 l 167 1165 m 321 1165 q 378 1222 338 1210 l 387 1213 q 329 1158 347 1200 l 321 1165 m 463 1159 q 488 1214 463 1190 q 542 1238 512 1238 q 596 1215 574 1238 q 617 1159 617 1193 q 595 1103 617 1126 q 540 1080 572 1080 q 486 1103 508 1080 q 463 1159 463 1126 m 475 1165 q 532 1222 492 1210 l 542 1213 q 483 1158 502 1200 l 475 1165 m 629 1165 q 687 1222 646 1210 l 696 1213 q 637 1158 656 1200 l 629 1165 m 784 1165 q 841 1222 801 1210 l 850 1213 q 791 1158 810 1200 l 784 1165 m 939 1165 q 996 1222 956 1210 l 1004 1213 q 946 1158 964 1200 l 939 1165 m 12 1320 q 69 1377 29 1364 l 79 1367 q 20 1312 39 1355 l 12 1320 m 167 1320 q 224 1377 184 1364 l 233 1367 q 174 1312 193 1355 l 167 1320 m 309 1313 q 333 1368 309 1344 q 387 1392 358 1392 q 441 1370 420 1392 q 463 1313 463 1348 q 441 1258 463 1281 q 386 1234 418 1234 q 331 1258 353 1234 q 309 1313 309 1281 m 321 1320 q 378 1377 338 1364 l 387 1367 q 329 1312 347 1355 l 321 1320 m 475 1320 q 532 1377 492 1364 l 542 1367 q 483 1312 502 1355 l 475 1320 m 629 1320 q 687 1377 646 1364 l 696 1367 q 637 1312 656 1355 l 629 1320 m 784 1320 q 841 1377 801 1364 l 850 1367 q 791 1312 810 1355 l 784 1320 m 939 1320 q 996 1377 956 1364 l 1004 1367 q 946 1312 964 1355 l 939 1320 z "},"*":{"ha":1080,"x_min":0,"x_max":476,"o":"m 1083 0 l 1083 1475 l 0 1475 l 0 0 l 1083 0 m 12 83 q 69 140 29 128 l 79 131 q 20 76 39 119 l 12 83 m 167 83 q 224 140 184 128 l 233 131 q 174 76 193 119 l 167 83 m 321 83 q 378 140 338 128 l 387 131 q 329 76 347 119 l 321 83 m 463 77 q 488 132 463 108 q 542 156 512 156 q 596 134 574 156 q 617 77 617 111 q 595 22 617 45 q 540 -1 572 -1 q 486 22 508 -1 q 463 77 463 45 m 475 83 q 532 140 492 128 l 542 131 q 483 76 502 119 l 475 83 m 629 83 q 687 140 646 128 l 696 131 q 637 76 656 119 l 629 83 m 784 83 q 841 140 801 128 l 850 131 q 791 76 810 119 l 784 83 m 939 83 q 996 140 956 128 l 1004 131 q 946 76 964 119 l 939 83 m 12 237 q 69 295 29 282 l 79 286 q 20 230 39 273 l 12 237 m 155 231 q 179 286 155 262 q 233 310 203 310 q 287 288 265 310 q 309 231 309 265 q 286 176 309 199 q 231 153 264 153 q 177 176 199 153 q 155 231 155 199 m 167 237 q 224 295 184 282 l 233 286 q 174 230 193 273 l 167 237 m 321 237 q 378 295 338 282 l 387 286 q 329 230 347 273 l 321 237 m 463 231 q 488 286 463 262 q 542 310 512 310 q 596 288 574 310 q 617 231 617 265 q 595 176 617 199 q 540 153 572 153 q 486 176 508 153 q 463 231 463 199 m 475 237 q 532 295 492 282 l 542 286 q 483 230 502 273 l 475 237 m 629 237 q 687 295 646 282 l 696 286 q 637 230 656 273 l 629 237 m 772 231 q 797 286 772 262 q 850 310 821 310 q 904 288 883 310 q 926 231 926 265 q 903 176 926 199 q 849 153 881 153 q 794 176 817 153 q 772 231 772 199 m 784 237 q 841 295 801 282 l 850 286 q 791 230 810 273 l 784 237 m 939 237 q 996 295 956 282 l 1004 286 q 946 230 964 273 l 939 237 m 12 393 q 69 450 29 438 l 79 441 q 20 386 39 429 l 12 393 m 167 393 q 224 450 184 438 l 233 441 q 174 386 193 429 l 167 393 m 309 387 q 333 442 309 418 q 387 466 358 466 q 441 444 420 466 q 463 387 463 421 q 441 332 463 355 q 386 309 418 309 q 331 332 353 309 q 309 387 309 355 m 321 393 q 378 450 338 438 l 387 441 q 329 386 347 429 l 321 393 m 463 387 q 488 442 463 418 q 542 466 512 466 q 596 444 574 466 q 617 387 617 421 q 595 332 617 355 q 540 309 572 309 q 486 332 508 309 q 463 387 463 355 m 475 393 q 532 450 492 438 l 542 441 q 483 386 502 429 l 475 393 m 617 387 q 642 442 617 418 q 696 466 667 466 q 750 444 728 466 q 772 387 772 421 q 749 332 772 355 q 694 309 727 309 q 640 332 662 309 q 617 387 617 355 m 629 393 q 687 450 646 438 l 696 441 q 637 386 656 429 l 629 393 m 784 393 q 841 450 801 438 l 850 441 q 791 386 810 429 l 784 393 m 939 393 q 996 450 956 438 l 1004 441 q 946 386 964 429 l 939 393 m 12 548 q 69 605 29 593 l 79 595 q 20 540 39 583 l 12 548 m 167 548 q 224 605 184 593 l 233 595 q 174 540 193 583 l 167 548 m 321 548 q 378 605 338 593 l 387 595 q 329 540 347 583 l 321 548 m 463 542 q 488 596 463 572 q 542 621 512 621 q 596 598 574 621 q 617 542 617 576 q 595 486 617 509 q 540 463 572 463 q 486 486 508 463 q 463 542 463 509 m 475 548 q 532 605 492 593 l 542 595 q 483 540 502 583 l 475 548 m 629 548 q 687 605 646 593 l 696 595 q 637 540 656 583 l 629 548 m 784 548 q 841 605 801 593 l 850 595 q 791 540 810 583 l 784 548 m 939 548 q 996 605 956 593 l 1004 595 q 946 540 964 583 l 939 548 m 12 702 q 69 760 29 747 l 79 750 q 20 694 39 738 l 12 702 m 155 696 q 179 751 155 727 q 233 774 203 774 q 287 752 265 774 q 309 696 309 730 q 286 640 309 663 q 231 617 264 617 q 177 640 199 617 q 155 696 155 663 m 167 702 q 224 760 184 747 l 233 750 q 174 694 193 738 l 167 702 m 309 696 q 333 751 309 727 q 387 774 358 774 q 441 752 420 774 q 463 696 463 730 q 441 640 463 663 q 386 617 418 617 q 331 640 353 617 q 309 696 309 663 m 321 702 q 378 760 338 747 l 387 750 q 329 694 347 738 l 321 702 m 463 696 q 488 751 463 727 q 542 774 512 774 q 596 752 574 774 q 617 696 617 730 q 595 640 617 663 q 540 617 572 617 q 486 640 508 617 q 463 696 463 663 m 475 702 q 532 760 492 747 l 542 750 q 483 694 502 738 l 475 702 m 617 696 q 642 751 617 727 q 696 774 667 774 q 750 752 728 774 q 772 696 772 730 q 749 640 772 663 q 694 617 727 617 q 640 640 662 617 q 617 696 617 663 m 629 702 q 687 760 646 747 l 696 750 q 637 694 656 738 l 629 702 m 772 696 q 797 751 772 727 q 850 774 821 774 q 904 752 883 774 q 926 696 926 730 q 903 640 926 663 q 849 617 881 617 q 794 640 817 617 q 772 696 772 663 m 784 702 q 841 760 801 747 l 850 750 q 791 694 810 738 l 784 702 m 939 702 q 996 760 956 747 l 1004 750 q 946 694 964 738 l 939 702 m 12 857 q 69 913 29 901 l 79 904 q 20 849 39 892 l 12 857 m 167 857 q 224 913 184 901 l 233 904 q 174 849 193 892 l 167 857 m 321 857 q 378 913 338 901 l 387 904 q 329 849 347 892 l 321 857 m 463 850 q 488 905 463 881 q 542 929 512 929 q 596 907 574 929 q 617 850 617 884 q 595 795 617 818 q 540 772 572 772 q 486 795 508 772 q 463 850 463 818 m 475 857 q 532 913 492 901 l 542 904 q 483 849 502 892 l 475 857 m 629 857 q 687 913 646 901 l 696 904 q 637 849 656 892 l 629 857 m 784 857 q 841 913 801 901 l 850 904 q 791 849 810 892 l 784 857 m 939 857 q 996 913 956 901 l 1004 904 q 946 849 964 892 l 939 857 m 12 1010 q 69 1068 29 1055 l 79 1059 q 20 1003 39 1046 l 12 1010 m 167 1010 q 224 1068 184 1055 l 233 1059 q 174 1003 193 1046 l 167 1010 m 309 1004 q 333 1059 309 1036 q 387 1083 358 1083 q 441 1061 420 1083 q 463 1004 463 1038 q 441 949 463 972 q 386 926 418 926 q 331 949 353 926 q 309 1004 309 972 m 321 1010 q 378 1068 338 1055 l 387 1059 q 329 1003 347 1046 l 321 1010 m 463 1004 q 488 1059 463 1036 q 542 1083 512 1083 q 596 1061 574 1083 q 617 1004 617 1038 q 595 949 617 972 q 540 926 572 926 q 486 949 508 926 q 463 1004 463 972 m 475 1010 q 532 1068 492 1055 l 542 1059 q 483 1003 502 1046 l 475 1010 m 617 1004 q 642 1059 617 1036 q 696 1083 667 1083 q 750 1061 728 1083 q 772 1004 772 1038 q 749 949 772 972 q 694 926 727 926 q 640 949 662 926 q 617 1004 617 972 m 629 1010 q 687 1068 646 1055 l 696 1059 q 637 1003 656 1046 l 629 1010 m 784 1010 q 841 1068 801 1055 l 850 1059 q 791 1003 810 1046 l 784 1010 m 939 1010 q 996 1068 956 1055 l 1004 1059 q 946 1003 964 1046 l 939 1010 m 12 1165 q 69 1222 29 1210 l 79 1213 q 20 1158 39 1200 l 12 1165 m 155 1159 q 179 1214 155 1190 q 233 1238 203 1238 q 287 1215 265 1238 q 309 1159 309 1193 q 286 1103 309 1126 q 231 1080 264 1080 q 177 1103 199 1080 q 155 1159 155 1126 m 167 1165 q 224 1222 184 1210 l 233 1213 q 174 1158 193 1200 l 167 1165 m 321 1165 q 378 1222 338 1210 l 387 1213 q 329 1158 347 1200 l 321 1165 m 463 1159 q 488 1214 463 1190 q 542 1238 512 1238 q 596 1215 574 1238 q 617 1159 617 1193 q 595 1103 617 1126 q 540 1080 572 1080 q 486 1103 508 1080 q 463 1159 463 1126 m 475 1165 q 532 1222 492 1210 l 542 1213 q 483 1158 502 1200 l 475 1165 m 629 1165 q 687 1222 646 1210 l 696 1213 q 637 1158 656 1200 l 629 1165 m 772 1159 q 797 1214 772 1190 q 850 1238 821 1238 q 904 1215 883 1238 q 926 1159 926 1193 q 903 1103 926 1126 q 849 1080 881 1080 q 794 1103 817 1080 q 772 1159 772 1126 m 784 1165 q 841 1222 801 1210 l 850 1213 q 791 1158 810 1200 l 784 1165 m 939 1165 q 996 1222 956 1210 l 1004 1213 q 946 1158 964 1200 l 939 1165 m 12 1320 q 69 1377 29 1364 l 79 1367 q 20 1312 39 1355 l 12 1320 m 167 1320 q 224 1377 184 1364 l 233 1367 q 174 1312 193 1355 l 167 1320 m 321 1320 q 378 1377 338 1364 l 387 1367 q 329 1312 347 1355 l 321 1320 m 463 1313 q 488 1368 463 1344 q 542 1392 512 1392 q 596 1370 574 1392 q 617 1313 617 1348 q 595 1258 617 1281 q 540 1234 572 1234 q 486 1258 508 1234 q 463 1313 463 1281 m 475 1320 q 532 1377 492 1364 l 542 1367 q 483 1312 502 1355 l 475 1320 m 629 1320 q 687 1377 646 1364 l 696 1367 q 637 1312 656 1355 l 629 1320 m 784 1320 q 841 1377 801 1364 l 850 1367 q 791 1312 810 1355 l 784 1320 m 939 1320 q 996 1377 956 1364 l 1004 1367 q 946 1312 964 1355 l 939 1320 z "},"+":{"ha":1080,"x_min":0,"x_max":475,"o":"m 1080 0 l 1080 1478 l 0 1478 l 0 0 l 1080 0 m 12 83 q 69 140 29 128 l 79 131 q 20 76 39 119 l 12 83 m 167 83 q 224 140 184 128 l 233 131 q 174 76 193 119 l 167 83 m 321 83 q 378 140 338 128 l 387 131 q 329 76 347 119 l 321 83 m 475 83 q 532 140 492 128 l 542 131 q 483 76 502 119 l 475 83 m 629 83 q 687 140 646 128 l 696 131 q 637 76 656 119 l 629 83 m 784 83 q 841 140 801 128 l 850 131 q 791 76 810 119 l 784 83 m 939 83 q 996 140 956 128 l 1004 131 q 946 76 964 119 l 939 83 m 12 237 q 69 295 29 282 l 79 286 q 20 230 39 273 l 12 237 m 167 237 q 224 295 184 282 l 233 286 q 174 230 193 273 l 167 237 m 321 237 q 378 295 338 282 l 387 286 q 329 230 347 273 l 321 237 m 475 237 q 532 295 492 282 l 542 286 q 483 230 502 273 l 475 237 m 629 237 q 687 295 646 282 l 696 286 q 637 230 656 273 l 629 237 m 784 237 q 841 295 801 282 l 850 286 q 791 230 810 273 l 784 237 m 939 237 q 996 295 956 282 l 1004 286 q 946 230 964 273 l 939 237 m 12 393 q 69 450 29 438 l 79 441 q 20 386 39 429 l 12 393 m 167 393 q 224 450 184 438 l 233 441 q 174 386 193 429 l 167 393 m 321 393 q 378 450 338 438 l 387 441 q 329 386 347 429 l 321 393 m 463 387 q 488 442 463 418 q 542 466 512 466 q 596 444 574 466 q 617 387 617 421 q 595 332 617 355 q 540 309 572 309 q 486 332 508 309 q 463 387 463 355 m 475 393 q 532 450 492 438 l 542 441 q 483 386 502 429 l 475 393 m 629 393 q 687 450 646 438 l 696 441 q 637 386 656 429 l 629 393 m 784 393 q 841 450 801 438 l 850 441 q 791 386 810 429 l 784 393 m 939 393 q 996 450 956 438 l 1004 441 q 946 386 964 429 l 939 393 m 12 548 q 69 605 29 593 l 79 595 q 20 540 39 583 l 12 548 m 167 548 q 224 605 184 593 l 233 595 q 174 540 193 583 l 167 548 m 321 548 q 378 605 338 593 l 387 595 q 329 540 347 583 l 321 548 m 463 542 q 488 596 463 572 q 542 621 512 621 q 596 598 574 621 q 617 542 617 576 q 595 486 617 509 q 540 463 572 463 q 486 486 508 463 q 463 542 463 509 m 475 548 q 532 605 492 593 l 542 595 q 483 540 502 583 l 475 548 m 629 548 q 687 605 646 593 l 696 595 q 637 540 656 583 l 629 548 m 784 548 q 841 605 801 593 l 850 595 q 791 540 810 583 l 784 548 m 939 548 q 996 605 956 593 l 1004 595 q 946 540 964 583 l 939 548 m 12 702 q 69 760 29 747 l 79 750 q 20 694 39 738 l 12 702 m 155 696 q 179 751 155 727 q 233 774 203 774 q 287 752 265 774 q 309 696 309 730 q 286 640 309 663 q 231 617 264 617 q 177 640 199 617 q 155 696 155 663 m 167 702 q 224 760 184 747 l 233 750 q 174 694 193 738 l 167 702 m 309 696 q 333 751 309 727 q 387 774 358 774 q 441 752 420 774 q 463 696 463 730 q 441 640 463 663 q 386 617 418 617 q 331 640 353 617 q 309 696 309 663 m 321 702 q 378 760 338 747 l 387 750 q 329 694 347 738 l 321 702 m 463 696 q 488 751 463 727 q 542 774 512 774 q 596 752 574 774 q 617 696 617 730 q 595 640 617 663 q 540 617 572 617 q 486 640 508 617 q 463 696 463 663 m 475 702 q 532 760 492 747 l 542 750 q 483 694 502 738 l 475 702 m 617 696 q 642 751 617 727 q 696 774 667 774 q 750 752 728 774 q 772 696 772 730 q 749 640 772 663 q 694 617 727 617 q 640 640 662 617 q 617 696 617 663 m 629 702 q 687 760 646 747 l 696 750 q 637 694 656 738 l 629 702 m 772 696 q 797 751 772 727 q 850 774 821 774 q 904 752 883 774 q 926 696 926 730 q 903 640 926 663 q 849 617 881 617 q 794 640 817 617 q 772 696 772 663 m 784 702 q 841 760 801 747 l 850 750 q 791 694 810 738 l 784 702 m 939 702 q 996 760 956 747 l 1004 750 q 946 694 964 738 l 939 702 m 12 857 q 69 913 29 901 l 79 904 q 20 849 39 892 l 12 857 m 167 857 q 224 913 184 901 l 233 904 q 174 849 193 892 l 167 857 m 321 857 q 378 913 338 901 l 387 904 q 329 849 347 892 l 321 857 m 463 850 q 488 905 463 881 q 542 929 512 929 q 596 907 574 929 q 617 850 617 884 q 595 795 617 818 q 540 772 572 772 q 486 795 508 772 q 463 850 463 818 m 475 857 q 532 913 492 901 l 542 904 q 483 849 502 892 l 475 857 m 629 857 q 687 913 646 901 l 696 904 q 637 849 656 892 l 629 857 m 784 857 q 841 913 801 901 l 850 904 q 791 849 810 892 l 784 857 m 939 857 q 996 913 956 901 l 1004 904 q 946 849 964 892 l 939 857 m 12 1010 q 69 1068 29 1055 l 79 1059 q 20 1003 39 1046 l 12 1010 m 167 1010 q 224 1068 184 1055 l 233 1059 q 174 1003 193 1046 l 167 1010 m 321 1010 q 378 1068 338 1055 l 387 1059 q 329 1003 347 1046 l 321 1010 m 463 1004 q 488 1059 463 1036 q 542 1083 512 1083 q 596 1061 574 1083 q 617 1004 617 1038 q 595 949 617 972 q 540 926 572 926 q 486 949 508 926 q 463 1004 463 972 m 475 1010 q 532 1068 492 1055 l 542 1059 q 483 1003 502 1046 l 475 1010 m 629 1010 q 687 1068 646 1055 l 696 1059 q 637 1003 656 1046 l 629 1010 m 784 1010 q 841 1068 801 1055 l 850 1059 q 791 1003 810 1046 l 784 1010 m 939 1010 q 996 1068 956 1055 l 1004 1059 q 946 1003 964 1046 l 939 1010 m 12 1165 q 69 1222 29 1210 l 79 1213 q 20 1158 39 1200 l 12 1165 m 167 1165 q 224 1222 184 1210 l 233 1213 q 174 1158 193 1200 l 167 1165 m 321 1165 q 378 1222 338 1210 l 387 1213 q 329 1158 347 1200 l 321 1165 m 475 1165 q 532 1222 492 1210 l 542 1213 q 483 1158 502 1200 l 475 1165 m 629 1165 q 687 1222 646 1210 l 696 1213 q 637 1158 656 1200 l 629 1165 m 784 1165 q 841 1222 801 1210 l 850 1213 q 791 1158 810 1200 l 784 1165 m 939 1165 q 996 1222 956 1210 l 1004 1213 q 946 1158 964 1200 l 939 1165 m 12 1320 q 69 1377 29 1364 l 79 1367 q 20 1312 39 1355 l 12 1320 m 167 1320 q 224 1377 184 1364 l 233 1367 q 174 1312 193 1355 l 167 1320 m 321 1320 q 378 1377 338 1364 l 387 1367 q 329 1312 347 1355 l 321 1320 m 475 1320 q 532 1377 492 1364 l 542 1367 q 483 1312 502 1355 l 475 1320 m 629 1320 q 687 1377 646 1364 l 696 1367 q 637 1312 656 1355 l 629 1320 m 784 1320 q 841 1377 801 1364 l 850 1367 q 791 1312 810 1355 l 784 1320 m 939 1320 q 996 1377 956 1364 l 1004 1367 q 946 1312 964 1355 l 939 1320 z "},",":{"ha":1080,"x_min":0,"x_max":475,"o":"m 1080 0 l 1080 1475 l 0 1475 l 0 0 l 1080 0 m 12 83 q 69 140 29 128 l 79 131 q 20 76 39 119 l 12 83 m 167 83 q 224 140 184 128 l 233 131 q 174 76 193 119 l 167 83 m 309 77 q 333 132 309 108 q 387 156 358 156 q 441 134 420 156 q 463 77 463 111 q 441 22 463 45 q 386 -1 418 -1 q 331 22 353 -1 q 309 77 309 45 m 321 83 q 378 140 338 128 l 387 131 q 329 76 347 119 l 321 83 m 475 83 q 532 140 492 128 l 542 131 q 483 76 502 119 l 475 83 m 629 83 q 687 140 646 128 l 696 131 q 637 76 656 119 l 629 83 m 784 83 q 841 140 801 128 l 850 131 q 791 76 810 119 l 784 83 m 939 83 q 996 140 956 128 l 1004 131 q 946 76 964 119 l 939 83 m 12 237 q 69 295 29 282 l 79 286 q 20 230 39 273 l 12 237 m 155 231 q 179 286 155 262 q 233 310 203 310 q 287 288 265 310 q 309 231 309 265 q 286 176 309 199 q 231 153 264 153 q 177 176 199 153 q 155 231 155 199 m 167 237 q 224 295 184 282 l 233 286 q 174 230 193 273 l 167 237 m 309 231 q 333 286 309 262 q 387 310 358 310 q 441 288 420 310 q 463 231 463 265 q 441 176 463 199 q 386 153 418 153 q 331 176 353 153 q 309 231 309 199 m 321 237 q 378 295 338 282 l 387 286 q 329 230 347 273 l 321 237 m 475 237 q 532 295 492 282 l 542 286 q 483 230 502 273 l 475 237 m 629 237 q 687 295 646 282 l 696 286 q 637 230 656 273 l 629 237 m 784 237 q 841 295 801 282 l 850 286 q 791 230 810 273 l 784 237 m 939 237 q 996 295 956 282 l 1004 286 q 946 230 964 273 l 939 237 m 12 393 q 69 450 29 438 l 79 441 q 20 386 39 429 l 12 393 m 155 387 q 179 442 155 418 q 233 466 203 466 q 287 444 265 466 q 309 387 309 421 q 286 332 309 355 q 231 309 264 309 q 177 332 199 309 q 155 387 155 355 m 167 393 q 224 450 184 438 l 233 441 q 174 386 193 429 l 167 393 m 309 387 q 333 442 309 418 q 387 466 358 466 q 441 444 420 466 q 463 387 463 421 q 441 332 463 355 q 386 309 418 309 q 331 332 353 309 q 309 387 309 355 m 321 393 q 378 450 338 438 l 387 441 q 329 386 347 429 l 321 393 m 475 393 q 532 450 492 438 l 542 441 q 483 386 502 429 l 475 393 m 629 393 q 687 450 646 438 l 696 441 q 637 386 656 429 l 629 393 m 784 393 q 841 450 801 438 l 850 441 q 791 386 810 429 l 784 393 m 939 393 q 996 450 956 438 l 1004 441 q 946 386 964 429 l 939 393 m 12 548 q 69 605 29 593 l 79 595 q 20 540 39 583 l 12 548 m 167 548 q 224 605 184 593 l 233 595 q 174 540 193 583 l 167 548 m 321 548 q 378 605 338 593 l 387 595 q 329 540 347 583 l 321 548 m 475 548 q 532 605 492 593 l 542 595 q 483 540 502 583 l 475 548 m 629 548 q 687 605 646 593 l 696 595 q 637 540 656 583 l 629 548 m 784 548 q 841 605 801 593 l 850 595 q 791 540 810 583 l 784 548 m 939 548 q 996 605 956 593 l 1004 595 q 946 540 964 583 l 939 548 m 12 702 q 69 760 29 747 l 79 750 q 20 694 39 738 l 12 702 m 167 702 q 224 760 184 747 l 233 750 q 174 694 193 738 l 167 702 m 321 702 q 378 760 338 747 l 387 750 q 329 694 347 738 l 321 702 m 475 702 q 532 760 492 747 l 542 750 q 483 694 502 738 l 475 702 m 629 702 q 687 760 646 747 l 696 750 q 637 694 656 738 l 629 702 m 784 702 q 841 760 801 747 l 850 750 q 791 694 810 738 l 784 702 m 939 702 q 996 760 956 747 l 1004 750 q 946 694 964 738 l 939 702 m 12 857 q 69 913 29 901 l 79 904 q 20 849 39 892 l 12 857 m 167 857 q 224 913 184 901 l 233 904 q 174 849 193 892 l 167 857 m 321 857 q 378 913 338 901 l 387 904 q 329 849 347 892 l 321 857 m 475 857 q 532 913 492 901 l 542 904 q 483 849 502 892 l 475 857 m 629 857 q 687 913 646 901 l 696 904 q 637 849 656 892 l 629 857 m 784 857 q 841 913 801 901 l 850 904 q 791 849 810 892 l 784 857 m 939 857 q 996 913 956 901 l 1004 904 q 946 849 964 892 l 939 857 m 12 1010 q 69 1068 29 1055 l 79 1059 q 20 1003 39 1046 l 12 1010 m 167 1010 q 224 1068 184 1055 l 233 1059 q 174 1003 193 1046 l 167 1010 m 321 1010 q 378 1068 338 1055 l 387 1059 q 329 1003 347 1046 l 321 1010 m 475 1010 q 532 1068 492 1055 l 542 1059 q 483 1003 502 1046 l 475 1010 m 629 1010 q 687 1068 646 1055 l 696 1059 q 637 1003 656 1046 l 629 1010 m 784 1010 q 841 1068 801 1055 l 850 1059 q 791 1003 810 1046 l 784 1010 m 939 1010 q 996 1068 956 1055 l 1004 1059 q 946 1003 964 1046 l 939 1010 m 12 1165 q 69 1222 29 1210 l 79 1213 q 20 1158 39 1200 l 12 1165 m 167 1165 q 224 1222 184 1210 l 233 1213 q 174 1158 193 1200 l 167 1165 m 321 1165 q 378 1222 338 1210 l 387 1213 q 329 1158 347 1200 l 321 1165 m 475 1165 q 532 1222 492 1210 l 542 1213 q 483 1158 502 1200 l 475 1165 m 629 1165 q 687 1222 646 1210 l 696 1213 q 637 1158 656 1200 l 629 1165 m 784 1165 q 841 1222 801 1210 l 850 1213 q 791 1158 810 1200 l 784 1165 m 939 1165 q 996 1222 956 1210 l 1004 1213 q 946 1158 964 1200 l 939 1165 m 12 1320 q 69 1377 29 1364 l 79 1367 q 20 1312 39 1355 l 12 1320 m 167 1320 q 224 1377 184 1364 l 233 1367 q 174 1312 193 1355 l 167 1320 m 321 1320 q 378 1377 338 1364 l 387 1367 q 329 1312 347 1355 l 321 1320 m 475 1320 q 532 1377 492 1364 l 542 1367 q 483 1312 502 1355 l 475 1320 m 629 1320 q 687 1377 646 1364 l 696 1367 q 637 1312 656 1355 l 629 1320 m 784 1320 q 841 1377 801 1364 l 850 1367 q 791 1312 810 1355 l 784 1320 m 939 1320 q 996 1377 956 1364 l 1004 1367 q 946 1312 964 1355 l 939 1320 z "},"-":{"ha":1080,"x_min":0,"x_max":475,"o":"m 1080 0 l 1080 1480 l 0 1480 l 0 0 l 1080 0 m 12 83 q 69 140 29 128 l 79 131 q 20 76 39 119 l 12 83 m 167 83 q 224 140 184 128 l 233 131 q 174 76 193 119 l 167 83 m 321 83 q 378 140 338 128 l 387 131 q 329 76 347 119 l 321 83 m 475 83 q 532 140 492 128 l 542 131 q 483 76 502 119 l 475 83 m 629 83 q 687 140 646 128 l 696 131 q 637 76 656 119 l 629 83 m 784 83 q 841 140 801 128 l 850 131 q 791 76 810 119 l 784 83 m 939 83 q 996 140 956 128 l 1004 131 q 946 76 964 119 l 939 83 m 12 237 q 69 295 29 282 l 79 286 q 20 230 39 273 l 12 237 m 167 237 q 224 295 184 282 l 233 286 q 174 230 193 273 l 167 237 m 321 237 q 378 295 338 282 l 387 286 q 329 230 347 273 l 321 237 m 475 237 q 532 295 492 282 l 542 286 q 483 230 502 273 l 475 237 m 629 237 q 687 295 646 282 l 696 286 q 637 230 656 273 l 629 237 m 784 237 q 841 295 801 282 l 850 286 q 791 230 810 273 l 784 237 m 939 237 q 996 295 956 282 l 1004 286 q 946 230 964 273 l 939 237 m 12 393 q 69 450 29 438 l 79 441 q 20 386 39 429 l 12 393 m 167 393 q 224 450 184 438 l 233 441 q 174 386 193 429 l 167 393 m 321 393 q 378 450 338 438 l 387 441 q 329 386 347 429 l 321 393 m 475 393 q 532 450 492 438 l 542 441 q 483 386 502 429 l 475 393 m 629 393 q 687 450 646 438 l 696 441 q 637 386 656 429 l 629 393 m 784 393 q 841 450 801 438 l 850 441 q 791 386 810 429 l 784 393 m 939 393 q 996 450 956 438 l 1004 441 q 946 386 964 429 l 939 393 m 12 548 q 69 605 29 593 l 79 595 q 20 540 39 583 l 12 548 m 167 548 q 224 605 184 593 l 233 595 q 174 540 193 583 l 167 548 m 321 548 q 378 605 338 593 l 387 595 q 329 540 347 583 l 321 548 m 475 548 q 532 605 492 593 l 542 595 q 483 540 502 583 l 475 548 m 629 548 q 687 605 646 593 l 696 595 q 637 540 656 583 l 629 548 m 784 548 q 841 605 801 593 l 850 595 q 791 540 810 583 l 784 548 m 939 548 q 996 605 956 593 l 1004 595 q 946 540 964 583 l 939 548 m 12 702 q 69 760 29 747 l 79 750 q 20 694 39 738 l 12 702 m 155 696 q 179 751 155 727 q 233 774 203 774 q 287 752 265 774 q 309 696 309 730 q 286 640 309 663 q 231 617 264 617 q 177 640 199 617 q 155 696 155 663 m 167 702 q 224 760 184 747 l 233 750 q 174 694 193 738 l 167 702 m 309 696 q 333 751 309 727 q 387 774 358 774 q 441 752 420 774 q 463 696 463 730 q 441 640 463 663 q 386 617 418 617 q 331 640 353 617 q 309 696 309 663 m 321 702 q 378 760 338 747 l 387 750 q 329 694 347 738 l 321 702 m 463 696 q 488 751 463 727 q 542 774 512 774 q 596 752 574 774 q 617 696 617 730 q 595 640 617 663 q 540 617 572 617 q 486 640 508 617 q 463 696 463 663 m 475 702 q 532 760 492 747 l 542 750 q 483 694 502 738 l 475 702 m 617 696 q 642 751 617 727 q 696 774 667 774 q 750 752 728 774 q 772 696 772 730 q 749 640 772 663 q 694 617 727 617 q 640 640 662 617 q 617 696 617 663 m 629 702 q 687 760 646 747 l 696 750 q 637 694 656 738 l 629 702 m 772 696 q 797 751 772 727 q 850 774 821 774 q 904 752 883 774 q 926 696 926 730 q 903 640 926 663 q 849 617 881 617 q 794 640 817 617 q 772 696 772 663 m 784 702 q 841 760 801 747 l 850 750 q 791 694 810 738 l 784 702 m 926 696 q 950 751 926 727 q 1004 774 975 774 q 1059 752 1037 774 q 1080 696 1080 730 q 1058 640 1080 663 q 1003 617 1036 617 q 948 640 970 617 q 926 696 926 663 m 939 702 q 996 760 956 747 l 1004 750 q 946 694 964 738 l 939 702 m 12 857 q 69 913 29 901 l 79 904 q 20 849 39 892 l 12 857 m 167 857 q 224 913 184 901 l 233 904 q 174 849 193 892 l 167 857 m 321 857 q 378 913 338 901 l 387 904 q 329 849 347 892 l 321 857 m 475 857 q 532 913 492 901 l 542 904 q 483 849 502 892 l 475 857 m 629 857 q 687 913 646 901 l 696 904 q 637 849 656 892 l 629 857 m 784 857 q 841 913 801 901 l 850 904 q 791 849 810 892 l 784 857 m 939 857 q 996 913 956 901 l 1004 904 q 946 849 964 892 l 939 857 m 12 1010 q 69 1068 29 1055 l 79 1059 q 20 1003 39 1046 l 12 1010 m 167 1010 q 224 1068 184 1055 l 233 1059 q 174 1003 193 1046 l 167 1010 m 321 1010 q 378 1068 338 1055 l 387 1059 q 329 1003 347 1046 l 321 1010 m 475 1010 q 532 1068 492 1055 l 542 1059 q 483 1003 502 1046 l 475 1010 m 629 1010 q 687 1068 646 1055 l 696 1059 q 637 1003 656 1046 l 629 1010 m 784 1010 q 841 1068 801 1055 l 850 1059 q 791 1003 810 1046 l 784 1010 m 939 1010 q 996 1068 956 1055 l 1004 1059 q 946 1003 964 1046 l 939 1010 m 12 1165 q 69 1222 29 1210 l 79 1213 q 20 1158 39 1200 l 12 1165 m 167 1165 q 224 1222 184 1210 l 233 1213 q 174 1158 193 1200 l 167 1165 m 321 1165 q 378 1222 338 1210 l 387 1213 q 329 1158 347 1200 l 321 1165 m 475 1165 q 532 1222 492 1210 l 542 1213 q 483 1158 502 1200 l 475 1165 m 629 1165 q 687 1222 646 1210 l 696 1213 q 637 1158 656 1200 l 629 1165 m 784 1165 q 841 1222 801 1210 l 850 1213 q 791 1158 810 1200 l 784 1165 m 939 1165 q 996 1222 956 1210 l 1004 1213 q 946 1158 964 1200 l 939 1165 m 12 1320 q 69 1377 29 1364 l 79 1367 q 20 1312 39 1355 l 12 1320 m 167 1320 q 224 1377 184 1364 l 233 1367 q 174 1312 193 1355 l 167 1320 m 321 1320 q 378 1377 338 1364 l 387 1367 q 329 1312 347 1355 l 321 1320 m 475 1320 q 532 1377 492 1364 l 542 1367 q 483 1312 502 1355 l 475 1320 m 629 1320 q 687 1377 646 1364 l 696 1367 q 637 1312 656 1355 l 629 1320 m 784 1320 q 841 1377 801 1364 l 850 1367 q 791 1312 810 1355 l 784 1320 m 939 1320 q 996 1377 956 1364 l 1004 1367 q 946 1312 964 1355 l 939 1320 z "},".":{"ha":1080,"x_min":0,"x_max":475,"o":"m 1080 0 l 1080 1477 l 0 1477 l 0 0 l 1080 0 m 12 83 q 69 140 29 128 l 79 131 q 20 76 39 119 l 12 83 m 167 83 q 224 140 184 128 l 233 131 q 174 76 193 119 l 167 83 m 321 83 q 378 140 338 128 l 387 131 q 329 76 347 119 l 321 83 m 475 83 q 532 140 492 128 l 542 131 q 483 76 502 119 l 475 83 m 629 83 q 687 140 646 128 l 696 131 q 637 76 656 119 l 629 83 m 784 83 q 841 140 801 128 l 850 131 q 791 76 810 119 l 784 83 m 939 83 q 996 140 956 128 l 1004 131 q 946 76 964 119 l 939 83 m 155 233 q 179 288 155 264 q 233 312 203 312 q 287 290 265 312 q 309 233 309 267 q 286 178 309 201 q 231 155 264 155 q 177 178 199 155 q 155 233 155 201 m 12 237 q 69 295 29 282 l 79 286 q 20 230 39 273 l 12 237 m 309 233 q 333 288 309 264 q 387 312 358 312 q 441 290 420 312 q 463 233 463 267 q 441 178 463 201 q 386 155 418 155 q 331 178 353 155 q 309 233 309 201 m 167 237 q 224 295 184 282 l 233 286 q 174 230 193 273 l 167 237 m 321 237 q 378 295 338 282 l 387 286 q 329 230 347 273 l 321 237 m 475 237 q 532 295 492 282 l 542 286 q 483 230 502 273 l 475 237 m 629 237 q 687 295 646 282 l 696 286 q 637 230 656 273 l 629 237 m 784 237 q 841 295 801 282 l 850 286 q 791 230 810 273 l 784 237 m 939 237 q 996 295 956 282 l 1004 286 q 946 230 964 273 l 939 237 m 155 389 q 179 444 155 420 q 233 467 203 467 q 287 445 265 467 q 309 389 309 423 q 286 333 309 357 q 231 310 264 310 q 177 333 199 310 q 155 389 155 357 m 12 393 q 69 450 29 438 l 79 441 q 20 386 39 429 l 12 393 m 309 389 q 333 444 309 420 q 387 467 358 467 q 441 445 420 467 q 463 389 463 423 q 441 333 463 357 q 386 310 418 310 q 331 333 353 310 q 309 389 309 357 m 167 393 q 224 450 184 438 l 233 441 q 174 386 193 429 l 167 393 m 321 393 q 378 450 338 438 l 387 441 q 329 386 347 429 l 321 393 m 475 393 q 532 450 492 438 l 542 441 q 483 386 502 429 l 475 393 m 629 393 q 687 450 646 438 l 696 441 q 637 386 656 429 l 629 393 m 784 393 q 841 450 801 438 l 850 441 q 791 386 810 429 l 784 393 m 939 393 q 996 450 956 438 l 1004 441 q 946 386 964 429 l 939 393 m 12 548 q 69 605 29 593 l 79 595 q 20 540 39 583 l 12 548 m 167 548 q 224 605 184 593 l 233 595 q 174 540 193 583 l 167 548 m 321 548 q 378 605 338 593 l 387 595 q 329 540 347 583 l 321 548 m 475 548 q 532 605 492 593 l 542 595 q 483 540 502 583 l 475 548 m 629 548 q 687 605 646 593 l 696 595 q 637 540 656 583 l 629 548 m 784 548 q 841 605 801 593 l 850 595 q 791 540 810 583 l 784 548 m 939 548 q 996 605 956 593 l 1004 595 q 946 540 964 583 l 939 548 m 12 702 q 69 760 29 747 l 79 750 q 20 694 39 738 l 12 702 m 167 702 q 224 760 184 747 l 233 750 q 174 694 193 738 l 167 702 m 321 702 q 378 760 338 747 l 387 750 q 329 694 347 738 l 321 702 m 475 702 q 532 760 492 747 l 542 750 q 483 694 502 738 l 475 702 m 629 702 q 687 760 646 747 l 696 750 q 637 694 656 738 l 629 702 m 784 702 q 841 760 801 747 l 850 750 q 791 694 810 738 l 784 702 m 939 702 q 996 760 956 747 l 1004 750 q 946 694 964 738 l 939 702 m 12 857 q 69 913 29 901 l 79 904 q 20 849 39 892 l 12 857 m 167 857 q 224 913 184 901 l 233 904 q 174 849 193 892 l 167 857 m 321 857 q 378 913 338 901 l 387 904 q 329 849 347 892 l 321 857 m 475 857 q 532 913 492 901 l 542 904 q 483 849 502 892 l 475 857 m 629 857 q 687 913 646 901 l 696 904 q 637 849 656 892 l 629 857 m 784 857 q 841 913 801 901 l 850 904 q 791 849 810 892 l 784 857 m 939 857 q 996 913 956 901 l 1004 904 q 946 849 964 892 l 939 857 m 12 1010 q 69 1068 29 1055 l 79 1059 q 20 1003 39 1046 l 12 1010 m 167 1010 q 224 1068 184 1055 l 233 1059 q 174 1003 193 1046 l 167 1010 m 321 1010 q 378 1068 338 1055 l 387 1059 q 329 1003 347 1046 l 321 1010 m 475 1010 q 532 1068 492 1055 l 542 1059 q 483 1003 502 1046 l 475 1010 m 629 1010 q 687 1068 646 1055 l 696 1059 q 637 1003 656 1046 l 629 1010 m 784 1010 q 841 1068 801 1055 l 850 1059 q 791 1003 810 1046 l 784 1010 m 939 1010 q 996 1068 956 1055 l 1004 1059 q 946 1003 964 1046 l 939 1010 m 12 1165 q 69 1222 29 1210 l 79 1213 q 20 1158 39 1200 l 12 1165 m 167 1165 q 224 1222 184 1210 l 233 1213 q 174 1158 193 1200 l 167 1165 m 321 1165 q 378 1222 338 1210 l 387 1213 q 329 1158 347 1200 l 321 1165 m 475 1165 q 532 1222 492 1210 l 542 1213 q 483 1158 502 1200 l 475 1165 m 629 1165 q 687 1222 646 1210 l 696 1213 q 637 1158 656 1200 l 629 1165 m 784 1165 q 841 1222 801 1210 l 850 1213 q 791 1158 810 1200 l 784 1165 m 939 1165 q 996 1222 956 1210 l 1004 1213 q 946 1158 964 1200 l 939 1165 m 12 1320 q 69 1377 29 1364 l 79 1367 q 20 1312 39 1355 l 12 1320 m 167 1320 q 224 1377 184 1364 l 233 1367 q 174 1312 193 1355 l 167 1320 m 321 1320 q 378 1377 338 1364 l 387 1367 q 329 1312 347 1355 l 321 1320 m 475 1320 q 532 1377 492 1364 l 542 1367 q 483 1312 502 1355 l 475 1320 m 629 1320 q 687 1377 646 1364 l 696 1367 q 637 1312 656 1355 l 629 1320 m 784 1320 q 841 1377 801 1364 l 850 1367 q 791 1312 810 1355 l 784 1320 m 939 1320 q 996 1377 956 1364 l 1004 1367 q 946 1312 964 1355 l 939 1320 z "},"/":{"ha":1080,"x_min":0,"x_max":1080,"o":"m 1080 0 l 1080 1474 l 0 1474 l 0 0 l 1080 0 m 12 83 q 69 140 29 128 l 79 131 q 20 76 39 119 l 12 83 m 155 387 q 179 442 155 418 q 233 466 203 466 q 287 444 265 466 q 309 387 309 421 q 286 332 309 355 q 231 309 264 309 q 177 332 199 309 q 155 387 155 355 m 167 83 q 224 140 184 128 l 233 131 q 174 76 193 119 l 167 83 m 321 83 q 378 140 338 128 l 387 131 q 329 76 347 119 l 321 83 m 475 83 q 532 140 492 128 l 542 131 q 483 76 502 119 l 475 83 m 629 83 q 687 140 646 128 l 696 131 q 637 76 656 119 l 629 83 m 784 83 q 841 140 801 128 l 850 131 q 791 76 810 119 l 784 83 m 939 83 q 996 140 956 128 l 1004 131 q 946 76 964 119 l 939 83 m 12 237 q 69 295 29 282 l 79 286 q 20 230 39 273 l 12 237 m 155 231 q 179 286 155 262 q 233 310 203 310 q 287 288 265 310 q 309 231 309 265 q 286 176 309 199 q 231 153 264 153 q 177 176 199 153 q 155 231 155 199 m 167 237 q 224 295 184 282 l 233 286 q 174 230 193 273 l 167 237 m 321 237 q 378 295 338 282 l 387 286 q 329 230 347 273 l 321 237 m 475 237 q 532 295 492 282 l 542 286 q 483 230 502 273 l 475 237 m 629 237 q 687 295 646 282 l 696 286 q 637 230 656 273 l 629 237 m 784 237 q 841 295 801 282 l 850 286 q 791 230 810 273 l 784 237 m 939 237 q 996 295 956 282 l 1004 286 q 946 230 964 273 l 939 237 m 12 393 q 69 450 29 438 l 79 441 q 20 386 39 429 l 12 393 m 167 393 q 224 450 184 438 l 233 441 q 174 386 193 429 l 167 393 m 309 387 q 333 442 309 418 q 387 466 358 466 q 441 444 420 466 q 463 387 463 421 q 441 332 463 355 q 386 309 418 309 q 331 332 353 309 q 309 387 309 355 m 321 393 q 378 450 338 438 l 387 441 q 329 386 347 429 l 321 393 m 475 393 q 532 450 492 438 l 542 441 q 483 386 502 429 l 475 393 m 629 393 q 687 450 646 438 l 696 441 q 637 386 656 429 l 629 393 m 784 393 q 841 450 801 438 l 850 441 q 791 386 810 429 l 784 393 m 939 393 q 996 450 956 438 l 1004 441 q 946 386 964 429 l 939 393 m 12 548 q 69 605 29 593 l 79 595 q 20 540 39 583 l 12 548 m 167 548 q 224 605 184 593 l 233 595 q 174 540 193 583 l 167 548 m 321 548 q 378 605 338 593 l 387 595 q 329 540 347 583 l 321 548 m 463 542 q 488 596 463 572 q 542 621 512 621 q 596 598 574 621 q 617 542 617 576 q 595 486 617 509 q 540 463 572 463 q 486 486 508 463 q 463 542 463 509 m 475 548 q 532 605 492 593 l 542 595 q 483 540 502 583 l 475 548 m 629 548 q 687 605 646 593 l 696 595 q 637 540 656 583 l 629 548 m 784 548 q 841 605 801 593 l 850 595 q 791 540 810 583 l 784 548 m 939 548 q 996 605 956 593 l 1004 595 q 946 540 964 583 l 939 548 m 12 702 q 69 760 29 747 l 79 750 q 20 694 39 738 l 12 702 m 167 702 q 224 760 184 747 l 233 750 q 174 694 193 738 l 167 702 m 321 702 q 378 760 338 747 l 387 750 q 329 694 347 738 l 321 702 m 463 696 q 488 751 463 727 q 542 774 512 774 q 596 752 574 774 q 617 696 617 730 q 595 640 617 663 q 540 617 572 617 q 486 640 508 617 q 463 696 463 663 m 475 702 q 532 760 492 747 l 542 750 q 483 694 502 738 l 475 702 m 617 696 q 642 751 617 727 q 696 774 667 774 q 750 752 728 774 q 772 696 772 730 q 749 640 772 663 q 694 617 727 617 q 640 640 662 617 q 617 696 617 663 m 629 702 q 687 760 646 747 l 696 750 q 637 694 656 738 l 629 702 m 784 702 q 841 760 801 747 l 850 750 q 791 694 810 738 l 784 702 m 939 702 q 996 760 956 747 l 1004 750 q 946 694 964 738 l 939 702 m 12 857 q 69 913 29 901 l 79 904 q 20 849 39 892 l 12 857 m 167 857 q 224 913 184 901 l 233 904 q 174 849 193 892 l 167 857 m 321 857 q 378 913 338 901 l 387 904 q 329 849 347 892 l 321 857 m 475 857 q 532 913 492 901 l 542 904 q 483 849 502 892 l 475 857 m 617 850 q 642 905 617 881 q 696 929 667 929 q 750 907 728 929 q 772 850 772 884 q 749 795 772 818 q 694 772 727 772 q 640 795 662 772 q 617 850 617 818 m 629 857 q 687 913 646 901 l 696 904 q 637 849 656 892 l 629 857 m 772 850 q 797 905 772 881 q 850 929 821 929 q 904 907 883 929 q 926 850 926 884 q 903 795 926 818 q 849 772 881 772 q 794 795 817 772 q 772 850 772 818 m 784 857 q 841 913 801 901 l 850 904 q 791 849 810 892 l 784 857 m 939 857 q 996 913 956 901 l 1004 904 q 946 849 964 892 l 939 857 m 12 1010 q 69 1068 29 1055 l 79 1059 q 20 1003 39 1046 l 12 1010 m 167 1010 q 224 1068 184 1055 l 233 1059 q 174 1003 193 1046 l 167 1010 m 321 1010 q 378 1068 338 1055 l 387 1059 q 329 1003 347 1046 l 321 1010 m 475 1010 q 532 1068 492 1055 l 542 1059 q 483 1003 502 1046 l 475 1010 m 629 1010 q 687 1068 646 1055 l 696 1059 q 637 1003 656 1046 l 629 1010 m 772 1004 q 797 1059 772 1036 q 850 1083 821 1083 q 904 1061 883 1083 q 926 1004 926 1038 q 903 949 926 972 q 849 926 881 926 q 794 949 817 926 q 772 1004 772 972 m 784 1010 q 841 1068 801 1055 l 850 1059 q 791 1003 810 1046 l 784 1010 m 939 1010 q 996 1068 956 1055 l 1004 1059 q 946 1003 964 1046 l 939 1010 m 12 1165 q 69 1222 29 1210 l 79 1213 q 20 1158 39 1200 l 12 1165 m 167 1165 q 224 1222 184 1210 l 233 1213 q 174 1158 193 1200 l 167 1165 m 321 1165 q 378 1222 338 1210 l 387 1213 q 329 1158 347 1200 l 321 1165 m 475 1165 q 532 1222 492 1210 l 542 1213 q 483 1158 502 1200 l 475 1165 m 629 1165 q 687 1222 646 1210 l 696 1213 q 637 1158 656 1200 l 629 1165 m 784 1165 q 841 1222 801 1210 l 850 1213 q 791 1158 810 1200 l 784 1165 m 926 1159 q 950 1214 926 1190 q 1004 1238 975 1238 q 1059 1215 1037 1238 q 1080 1159 1080 1193 q 1058 1103 1080 1126 q 1003 1080 1036 1080 q 948 1103 970 1080 q 926 1159 926 1126 m 939 1165 q 996 1222 956 1210 l 1004 1213 q 946 1158 964 1200 l 939 1165 m 12 1320 q 69 1377 29 1364 l 79 1367 q 20 1312 39 1355 l 12 1320 m 167 1320 q 224 1377 184 1364 l 233 1367 q 174 1312 193 1355 l 167 1320 m 321 1320 q 378 1377 338 1364 l 387 1367 q 329 1312 347 1355 l 321 1320 m 475 1320 q 532 1377 492 1364 l 542 1367 q 483 1312 502 1355 l 475 1320 m 629 1320 q 687 1377 646 1364 l 696 1367 q 637 1312 656 1355 l 629 1320 m 784 1320 q 841 1377 801 1364 l 850 1367 q 791 1312 810 1355 l 784 1320 m 939 1320 q 996 1377 956 1364 l 1004 1367 q 946 1312 964 1355 l 939 1320 m 309 542 q 333 596 309 572 q 387 621 358 621 q 441 598 420 621 q 463 542 463 576 q 441 486 463 509 q 386 463 418 463 q 331 486 353 463 q 309 542 309 509 m 926 1004 q 950 1059 926 1036 q 1004 1083 975 1083 q 1059 1061 1037 1083 q 1080 1004 1080 1038 q 1058 949 1080 972 q 1003 926 1036 926 q 948 949 970 926 q 926 1004 926 972 z "},":":{"ha":1080,"x_min":0,"x_max":475,"o":"m 1080 0 l 1080 1477 l 0 1477 l 0 0 l 1080 0 m 12 83 q 69 140 29 128 l 79 131 q 20 76 39 119 l 12 83 m 167 83 q 224 140 184 128 l 233 131 q 174 76 193 119 l 167 83 m 321 83 q 378 140 338 128 l 387 131 q 329 76 347 119 l 321 83 m 475 83 q 532 140 492 128 l 542 131 q 483 76 502 119 l 475 83 m 629 83 q 687 140 646 128 l 696 131 q 637 76 656 119 l 629 83 m 784 83 q 841 140 801 128 l 850 131 q 791 76 810 119 l 784 83 m 939 83 q 996 140 956 128 l 1004 131 q 946 76 964 119 l 939 83 m 12 237 q 69 295 29 282 l 79 286 q 20 230 39 273 l 12 237 m 167 237 q 224 295 184 282 l 233 286 q 174 230 193 273 l 167 237 m 309 231 q 333 286 309 262 q 387 310 358 310 q 441 288 420 310 q 463 231 463 265 q 441 176 463 199 q 386 153 418 153 q 331 176 353 153 q 309 231 309 199 m 321 237 q 378 295 338 282 l 387 286 q 329 230 347 273 l 321 237 m 463 231 q 488 286 463 262 q 542 310 512 310 q 596 288 574 310 q 617 231 617 265 q 595 176 617 199 q 540 153 572 153 q 486 176 508 153 q 463 231 463 199 m 475 237 q 532 295 492 282 l 542 286 q 483 230 502 273 l 475 237 m 629 237 q 687 295 646 282 l 696 286 q 637 230 656 273 l 629 237 m 784 237 q 841 295 801 282 l 850 286 q 791 230 810 273 l 784 237 m 939 237 q 996 295 956 282 l 1004 286 q 946 230 964 273 l 939 237 m 12 393 q 69 450 29 438 l 79 441 q 20 386 39 429 l 12 393 m 167 393 q 224 450 184 438 l 233 441 q 174 386 193 429 l 167 393 m 309 387 q 333 442 309 418 q 387 466 358 466 q 441 444 420 466 q 463 387 463 421 q 441 332 463 355 q 386 309 418 309 q 331 332 353 309 q 309 387 309 355 m 321 393 q 378 450 338 438 l 387 441 q 329 386 347 429 l 321 393 m 463 387 q 488 442 463 418 q 542 466 512 466 q 596 444 574 466 q 617 387 617 421 q 595 332 617 355 q 540 309 572 309 q 486 332 508 309 q 463 387 463 355 m 475 393 q 532 450 492 438 l 542 441 q 483 386 502 429 l 475 393 m 629 393 q 687 450 646 438 l 696 441 q 637 386 656 429 l 629 393 m 784 393 q 841 450 801 438 l 850 441 q 791 386 810 429 l 784 393 m 939 393 q 996 450 956 438 l 1004 441 q 946 386 964 429 l 939 393 m 12 548 q 69 605 29 593 l 79 595 q 20 540 39 583 l 12 548 m 167 548 q 224 605 184 593 l 233 595 q 174 540 193 583 l 167 548 m 321 548 q 378 605 338 593 l 387 595 q 329 540 347 583 l 321 548 m 475 548 q 532 605 492 593 l 542 595 q 483 540 502 583 l 475 548 m 629 548 q 687 605 646 593 l 696 595 q 637 540 656 583 l 629 548 m 784 548 q 841 605 801 593 l 850 595 q 791 540 810 583 l 784 548 m 939 548 q 996 605 956 593 l 1004 595 q 946 540 964 583 l 939 548 m 12 702 q 69 760 29 747 l 79 750 q 20 694 39 738 l 12 702 m 167 702 q 224 760 184 747 l 233 750 q 174 694 193 738 l 167 702 m 321 702 q 378 760 338 747 l 387 750 q 329 694 347 738 l 321 702 m 475 702 q 532 760 492 747 l 542 750 q 483 694 502 738 l 475 702 m 629 702 q 687 760 646 747 l 696 750 q 637 694 656 738 l 629 702 m 784 702 q 841 760 801 747 l 850 750 q 791 694 810 738 l 784 702 m 939 702 q 996 760 956 747 l 1004 750 q 946 694 964 738 l 939 702 m 12 857 q 69 913 29 901 l 79 904 q 20 849 39 892 l 12 857 m 167 857 q 224 913 184 901 l 233 904 q 174 849 193 892 l 167 857 m 309 850 q 333 905 309 881 q 387 929 358 929 q 441 907 420 929 q 463 850 463 884 q 441 795 463 818 q 386 772 418 772 q 331 795 353 772 q 309 850 309 818 m 321 857 q 378 913 338 901 l 387 904 q 329 849 347 892 l 321 857 m 463 850 q 488 905 463 881 q 542 929 512 929 q 596 907 574 929 q 617 850 617 884 q 595 795 617 818 q 540 772 572 772 q 486 795 508 772 q 463 850 463 818 m 475 857 q 532 913 492 901 l 542 904 q 483 849 502 892 l 475 857 m 629 857 q 687 913 646 901 l 696 904 q 637 849 656 892 l 629 857 m 784 857 q 841 913 801 901 l 850 904 q 791 849 810 892 l 784 857 m 939 857 q 996 913 956 901 l 1004 904 q 946 849 964 892 l 939 857 m 12 1010 q 69 1068 29 1055 l 79 1059 q 20 1003 39 1046 l 12 1010 m 167 1010 q 224 1068 184 1055 l 233 1059 q 174 1003 193 1046 l 167 1010 m 309 1004 q 333 1059 309 1036 q 387 1083 358 1083 q 441 1061 420 1083 q 463 1004 463 1038 q 441 949 463 972 q 386 926 418 926 q 331 949 353 926 q 309 1004 309 972 m 321 1010 q 378 1068 338 1055 l 387 1059 q 329 1003 347 1046 l 321 1010 m 463 1004 q 488 1059 463 1036 q 542 1083 512 1083 q 596 1061 574 1083 q 617 1004 617 1038 q 595 949 617 972 q 540 926 572 926 q 486 949 508 926 q 463 1004 463 972 m 475 1010 q 532 1068 492 1055 l 542 1059 q 483 1003 502 1046 l 475 1010 m 629 1010 q 687 1068 646 1055 l 696 1059 q 637 1003 656 1046 l 629 1010 m 784 1010 q 841 1068 801 1055 l 850 1059 q 791 1003 810 1046 l 784 1010 m 939 1010 q 996 1068 956 1055 l 1004 1059 q 946 1003 964 1046 l 939 1010 m 12 1165 q 69 1222 29 1210 l 79 1213 q 20 1158 39 1200 l 12 1165 m 167 1165 q 224 1222 184 1210 l 233 1213 q 174 1158 193 1200 l 167 1165 m 321 1165 q 378 1222 338 1210 l 387 1213 q 329 1158 347 1200 l 321 1165 m 475 1165 q 532 1222 492 1210 l 542 1213 q 483 1158 502 1200 l 475 1165 m 629 1165 q 687 1222 646 1210 l 696 1213 q 637 1158 656 1200 l 629 1165 m 784 1165 q 841 1222 801 1210 l 850 1213 q 791 1158 810 1200 l 784 1165 m 939 1165 q 996 1222 956 1210 l 1004 1213 q 946 1158 964 1200 l 939 1165 m 12 1320 q 69 1377 29 1364 l 79 1367 q 20 1312 39 1355 l 12 1320 m 167 1320 q 224 1377 184 1364 l 233 1367 q 174 1312 193 1355 l 167 1320 m 321 1320 q 378 1377 338 1364 l 387 1367 q 329 1312 347 1355 l 321 1320 m 475 1320 q 532 1377 492 1364 l 542 1367 q 483 1312 502 1355 l 475 1320 m 629 1320 q 687 1377 646 1364 l 696 1367 q 637 1312 656 1355 l 629 1320 m 784 1320 q 841 1377 801 1364 l 850 1367 q 791 1312 810 1355 l 784 1320 m 939 1320 q 996 1377 956 1364 l 1004 1367 q 946 1312 964 1355 l 939 1320 z "},";":{"ha":1080,"x_min":0,"x_max":475,"o":"m 1080 0 l 1080 1472 l 0 1472 l 0 0 l 1080 0 m 12 83 q 69 140 29 128 l 79 131 q 20 76 39 119 l 12 83 m 167 83 q 224 140 184 128 l 233 131 q 174 76 193 119 l 167 83 m 321 83 q 378 140 338 128 l 387 131 q 329 76 347 119 l 321 83 m 463 77 q 488 132 463 108 q 542 156 512 156 q 596 134 574 156 q 617 77 617 111 q 595 22 617 45 q 540 -1 572 -1 q 486 22 508 -1 q 463 77 463 45 m 475 83 q 532 140 492 128 l 542 131 q 483 76 502 119 l 475 83 m 629 83 q 687 140 646 128 l 696 131 q 637 76 656 119 l 629 83 m 784 83 q 841 140 801 128 l 850 131 q 791 76 810 119 l 784 83 m 939 83 q 996 140 956 128 l 1004 131 q 946 76 964 119 l 939 83 m 12 237 q 69 295 29 282 l 79 286 q 20 230 39 273 l 12 237 m 167 237 q 224 295 184 282 l 233 286 q 174 230 193 273 l 167 237 m 309 231 q 333 286 309 262 q 387 310 358 310 q 441 288 420 310 q 463 231 463 265 q 441 176 463 199 q 386 153 418 153 q 331 176 353 153 q 309 231 309 199 m 321 237 q 378 295 338 282 l 387 286 q 329 230 347 273 l 321 237 m 463 231 q 488 286 463 262 q 542 310 512 310 q 596 288 574 310 q 617 231 617 265 q 595 176 617 199 q 540 153 572 153 q 486 176 508 153 q 463 231 463 199 m 475 237 q 532 295 492 282 l 542 286 q 483 230 502 273 l 475 237 m 629 237 q 687 295 646 282 l 696 286 q 637 230 656 273 l 629 237 m 784 237 q 841 295 801 282 l 850 286 q 791 230 810 273 l 784 237 m 939 237 q 996 295 956 282 l 1004 286 q 946 230 964 273 l 939 237 m 12 393 q 69 450 29 438 l 79 441 q 20 386 39 429 l 12 393 m 167 393 q 224 450 184 438 l 233 441 q 174 386 193 429 l 167 393 m 309 387 q 333 442 309 418 q 387 466 358 466 q 441 444 420 466 q 463 387 463 421 q 441 332 463 355 q 386 309 418 309 q 331 332 353 309 q 309 387 309 355 m 321 393 q 378 450 338 438 l 387 441 q 329 386 347 429 l 321 393 m 463 387 q 488 442 463 418 q 542 466 512 466 q 596 444 574 466 q 617 387 617 421 q 595 332 617 355 q 540 309 572 309 q 486 332 508 309 q 463 387 463 355 m 475 393 q 532 450 492 438 l 542 441 q 483 386 502 429 l 475 393 m 629 393 q 687 450 646 438 l 696 441 q 637 386 656 429 l 629 393 m 784 393 q 841 450 801 438 l 850 441 q 791 386 810 429 l 784 393 m 939 393 q 996 450 956 438 l 1004 441 q 946 386 964 429 l 939 393 m 12 548 q 69 605 29 593 l 79 595 q 20 540 39 583 l 12 548 m 167 548 q 224 605 184 593 l 233 595 q 174 540 193 583 l 167 548 m 321 548 q 378 605 338 593 l 387 595 q 329 540 347 583 l 321 548 m 475 548 q 532 605 492 593 l 542 595 q 483 540 502 583 l 475 548 m 629 548 q 687 605 646 593 l 696 595 q 637 540 656 583 l 629 548 m 784 548 q 841 605 801 593 l 850 595 q 791 540 810 583 l 784 548 m 939 548 q 996 605 956 593 l 1004 595 q 946 540 964 583 l 939 548 m 12 702 q 69 760 29 747 l 79 750 q 20 694 39 738 l 12 702 m 167 702 q 224 760 184 747 l 233 750 q 174 694 193 738 l 167 702 m 321 702 q 378 760 338 747 l 387 750 q 329 694 347 738 l 321 702 m 475 702 q 532 760 492 747 l 542 750 q 483 694 502 738 l 475 702 m 629 702 q 687 760 646 747 l 696 750 q 637 694 656 738 l 629 702 m 784 702 q 841 760 801 747 l 850 750 q 791 694 810 738 l 784 702 m 939 702 q 996 760 956 747 l 1004 750 q 946 694 964 738 l 939 702 m 12 857 q 69 913 29 901 l 79 904 q 20 849 39 892 l 12 857 m 167 857 q 224 913 184 901 l 233 904 q 174 849 193 892 l 167 857 m 309 850 q 333 905 309 881 q 387 929 358 929 q 441 907 420 929 q 463 850 463 884 q 441 795 463 818 q 386 772 418 772 q 331 795 353 772 q 309 850 309 818 m 321 857 q 378 913 338 901 l 387 904 q 329 849 347 892 l 321 857 m 463 850 q 488 905 463 881 q 542 929 512 929 q 596 907 574 929 q 617 850 617 884 q 595 795 617 818 q 540 772 572 772 q 486 795 508 772 q 463 850 463 818 m 475 857 q 532 913 492 901 l 542 904 q 483 849 502 892 l 475 857 m 629 857 q 687 913 646 901 l 696 904 q 637 849 656 892 l 629 857 m 784 857 q 841 913 801 901 l 850 904 q 791 849 810 892 l 784 857 m 939 857 q 996 913 956 901 l 1004 904 q 946 849 964 892 l 939 857 m 12 1010 q 69 1068 29 1055 l 79 1059 q 20 1003 39 1046 l 12 1010 m 167 1010 q 224 1068 184 1055 l 233 1059 q 174 1003 193 1046 l 167 1010 m 309 1004 q 333 1059 309 1036 q 387 1083 358 1083 q 441 1061 420 1083 q 463 1004 463 1038 q 441 949 463 972 q 386 926 418 926 q 331 949 353 926 q 309 1004 309 972 m 321 1010 q 378 1068 338 1055 l 387 1059 q 329 1003 347 1046 l 321 1010 m 463 1004 q 488 1059 463 1036 q 542 1083 512 1083 q 596 1061 574 1083 q 617 1004 617 1038 q 595 949 617 972 q 540 926 572 926 q 486 949 508 926 q 463 1004 463 972 m 475 1010 q 532 1068 492 1055 l 542 1059 q 483 1003 502 1046 l 475 1010 m 629 1010 q 687 1068 646 1055 l 696 1059 q 637 1003 656 1046 l 629 1010 m 784 1010 q 841 1068 801 1055 l 850 1059 q 791 1003 810 1046 l 784 1010 m 939 1010 q 996 1068 956 1055 l 1004 1059 q 946 1003 964 1046 l 939 1010 m 12 1165 q 69 1222 29 1210 l 79 1213 q 20 1158 39 1200 l 12 1165 m 167 1165 q 224 1222 184 1210 l 233 1213 q 174 1158 193 1200 l 167 1165 m 321 1165 q 378 1222 338 1210 l 387 1213 q 329 1158 347 1200 l 321 1165 m 475 1165 q 532 1222 492 1210 l 542 1213 q 483 1158 502 1200 l 475 1165 m 629 1165 q 687 1222 646 1210 l 696 1213 q 637 1158 656 1200 l 629 1165 m 784 1165 q 841 1222 801 1210 l 850 1213 q 791 1158 810 1200 l 784 1165 m 939 1165 q 996 1222 956 1210 l 1004 1213 q 946 1158 964 1200 l 939 1165 m 12 1320 q 69 1377 29 1364 l 79 1367 q 20 1312 39 1355 l 12 1320 m 167 1320 q 224 1377 184 1364 l 233 1367 q 174 1312 193 1355 l 167 1320 m 321 1320 q 378 1377 338 1364 l 387 1367 q 329 1312 347 1355 l 321 1320 m 475 1320 q 532 1377 492 1364 l 542 1367 q 483 1312 502 1355 l 475 1320 m 629 1320 q 687 1377 646 1364 l 696 1367 q 637 1312 656 1355 l 629 1320 m 784 1320 q 841 1377 801 1364 l 850 1367 q 791 1312 810 1355 l 784 1320 m 939 1320 q 996 1377 956 1364 l 1004 1367 q 946 1312 964 1355 l 939 1320 z "},"<":{"ha":1080,"x_min":0,"x_max":475,"o":"m 1080 0 l 1080 1477 l 0 1477 l 0 0 l 1080 0 m 12 83 q 69 140 29 128 l 79 131 q 20 76 39 119 l 12 83 m 167 83 q 224 140 184 128 l 233 131 q 174 76 193 119 l 167 83 m 321 83 q 378 140 338 128 l 387 131 q 329 76 347 119 l 321 83 m 475 83 q 532 140 492 128 l 542 131 q 483 76 502 119 l 475 83 m 629 83 q 687 140 646 128 l 696 131 q 637 76 656 119 l 629 83 m 784 83 q 841 140 801 128 l 850 131 q 791 76 810 119 l 784 83 m 939 83 q 996 140 956 128 l 1004 131 q 946 76 964 119 l 939 83 m 12 237 q 69 295 29 282 l 79 286 q 20 230 39 273 l 12 237 m 167 237 q 224 295 184 282 l 233 286 q 174 230 193 273 l 167 237 m 321 237 q 378 295 338 282 l 387 286 q 329 230 347 273 l 321 237 m 475 237 q 532 295 492 282 l 542 286 q 483 230 502 273 l 475 237 m 629 237 q 687 295 646 282 l 696 286 q 637 230 656 273 l 629 237 m 784 237 q 841 295 801 282 l 850 286 q 791 230 810 273 l 784 237 m 939 237 q 996 295 956 282 l 1004 286 q 946 230 964 273 l 939 237 m 12 393 q 69 450 29 438 l 79 441 q 20 386 39 429 l 12 393 m 167 393 q 224 450 184 438 l 233 441 q 174 386 193 429 l 167 393 m 321 393 q 378 450 338 438 l 387 441 q 329 386 347 429 l 321 393 m 475 393 q 532 450 492 438 l 542 441 q 483 386 502 429 l 475 393 m 629 393 q 687 450 646 438 l 696 441 q 637 386 656 429 l 629 393 m 772 387 q 797 442 772 418 q 850 466 821 466 q 904 444 883 466 q 926 387 926 421 q 903 332 926 355 q 849 309 881 309 q 794 332 817 309 q 772 387 772 355 m 784 393 q 841 450 801 438 l 850 441 q 791 386 810 429 l 784 393 m 926 387 q 950 442 926 418 q 1004 466 975 466 q 1059 444 1037 466 q 1080 387 1080 421 q 1058 332 1080 355 q 1003 309 1036 309 q 948 332 970 309 q 926 387 926 355 m 939 393 q 996 450 956 438 l 1004 441 q 946 386 964 429 l 939 393 m 12 548 q 69 605 29 593 l 79 595 q 20 540 39 583 l 12 548 m 167 548 q 224 605 184 593 l 233 595 q 174 540 193 583 l 167 548 m 321 548 q 378 605 338 593 l 387 595 q 329 540 347 583 l 321 548 m 463 542 q 488 596 463 572 q 542 621 512 621 q 596 598 574 621 q 617 542 617 576 q 595 486 617 509 q 540 463 572 463 q 486 486 508 463 q 463 542 463 509 m 475 548 q 532 605 492 593 l 542 595 q 483 540 502 583 l 475 548 m 617 542 q 642 596 617 572 q 696 621 667 621 q 750 598 728 621 q 772 542 772 576 q 749 486 772 509 q 694 463 727 463 q 640 486 662 463 q 617 542 617 509 m 629 548 q 687 605 646 593 l 696 595 q 637 540 656 583 l 629 548 m 784 548 q 841 605 801 593 l 850 595 q 791 540 810 583 l 784 548 m 939 548 q 996 605 956 593 l 1004 595 q 946 540 964 583 l 939 548 m 12 702 q 69 760 29 747 l 79 750 q 20 694 39 738 l 12 702 m 155 696 q 179 751 155 727 q 233 774 203 774 q 287 752 265 774 q 309 696 309 730 q 286 640 309 663 q 231 617 264 617 q 177 640 199 617 q 155 696 155 663 m 167 702 q 224 760 184 747 l 233 750 q 174 694 193 738 l 167 702 m 309 696 q 333 751 309 727 q 387 774 358 774 q 441 752 420 774 q 463 696 463 730 q 441 640 463 663 q 386 617 418 617 q 331 640 353 617 q 309 696 309 663 m 321 702 q 378 760 338 747 l 387 750 q 329 694 347 738 l 321 702 m 475 702 q 532 760 492 747 l 542 750 q 483 694 502 738 l 475 702 m 629 702 q 687 760 646 747 l 696 750 q 637 694 656 738 l 629 702 m 784 702 q 841 760 801 747 l 850 750 q 791 694 810 738 l 784 702 m 939 702 q 996 760 956 747 l 1004 750 q 946 694 964 738 l 939 702 m 12 857 q 69 913 29 901 l 79 904 q 20 849 39 892 l 12 857 m 167 857 q 224 913 184 901 l 233 904 q 174 849 193 892 l 167 857 m 321 857 q 378 913 338 901 l 387 904 q 329 849 347 892 l 321 857 m 463 850 q 488 905 463 881 q 542 929 512 929 q 596 907 574 929 q 617 850 617 884 q 595 795 617 818 q 540 772 572 772 q 486 795 508 772 q 463 850 463 818 m 475 857 q 532 913 492 901 l 542 904 q 483 849 502 892 l 475 857 m 617 850 q 642 905 617 881 q 696 929 667 929 q 750 907 728 929 q 772 850 772 884 q 749 795 772 818 q 694 772 727 772 q 640 795 662 772 q 617 850 617 818 m 629 857 q 687 913 646 901 l 696 904 q 637 849 656 892 l 629 857 m 784 857 q 841 913 801 901 l 850 904 q 791 849 810 892 l 784 857 m 939 857 q 996 913 956 901 l 1004 904 q 946 849 964 892 l 939 857 m 12 1010 q 69 1068 29 1055 l 79 1059 q 20 1003 39 1046 l 12 1010 m 167 1010 q 224 1068 184 1055 l 233 1059 q 174 1003 193 1046 l 167 1010 m 321 1010 q 378 1068 338 1055 l 387 1059 q 329 1003 347 1046 l 321 1010 m 475 1010 q 532 1068 492 1055 l 542 1059 q 483 1003 502 1046 l 475 1010 m 629 1010 q 687 1068 646 1055 l 696 1059 q 637 1003 656 1046 l 629 1010 m 772 1004 q 797 1059 772 1036 q 850 1083 821 1083 q 904 1061 883 1083 q 926 1004 926 1038 q 903 949 926 972 q 849 926 881 926 q 794 949 817 926 q 772 1004 772 972 m 784 1010 q 841 1068 801 1055 l 850 1059 q 791 1003 810 1046 l 784 1010 m 926 1004 q 950 1059 926 1036 q 1004 1083 975 1083 q 1059 1061 1037 1083 q 1080 1004 1080 1038 q 1058 949 1080 972 q 1003 926 1036 926 q 948 949 970 926 q 926 1004 926 972 m 939 1010 q 996 1068 956 1055 l 1004 1059 q 946 1003 964 1046 l 939 1010 m 12 1165 q 69 1222 29 1210 l 79 1213 q 20 1158 39 1200 l 12 1165 m 167 1165 q 224 1222 184 1210 l 233 1213 q 174 1158 193 1200 l 167 1165 m 321 1165 q 378 1222 338 1210 l 387 1213 q 329 1158 347 1200 l 321 1165 m 475 1165 q 532 1222 492 1210 l 542 1213 q 483 1158 502 1200 l 475 1165 m 629 1165 q 687 1222 646 1210 l 696 1213 q 637 1158 656 1200 l 629 1165 m 784 1165 q 841 1222 801 1210 l 850 1213 q 791 1158 810 1200 l 784 1165 m 939 1165 q 996 1222 956 1210 l 1004 1213 q 946 1158 964 1200 l 939 1165 m 12 1320 q 69 1377 29 1364 l 79 1367 q 20 1312 39 1355 l 12 1320 m 167 1320 q 224 1377 184 1364 l 233 1367 q 174 1312 193 1355 l 167 1320 m 321 1320 q 378 1377 338 1364 l 387 1367 q 329 1312 347 1355 l 321 1320 m 475 1320 q 532 1377 492 1364 l 542 1367 q 483 1312 502 1355 l 475 1320 m 629 1320 q 687 1377 646 1364 l 696 1367 q 637 1312 656 1355 l 629 1320 m 784 1320 q 841 1377 801 1364 l 850 1367 q 791 1312 810 1355 l 784 1320 m 939 1320 q 996 1377 956 1364 l 1004 1367 q 946 1312 964 1355 l 939 1320 z "}}}
